M48
; DRILL file {KiCad 7.0.1-0} date 2023 March 30, Thursday 00:17:36
; FORMAT={-:-/ absolute / inch / decimal}
; #@! TF.CreationDate,2023-03-30T00:17:36-04:00
; #@! TF.GenerationSoftware,Kicad,Pcbnew,7.0.1-0
; #@! TF.FileFunction,MixedPlating,1,2
FMAT,2
INCH
; #@! TA.AperFunction,Plated,PTH,ViaDrill
T1C0.0150
; #@! TA.AperFunction,Plated,PTH,ComponentDrill
T2C0.0157
; #@! TA.AperFunction,Plated,PTH,ComponentDrill
T3C0.0236
; #@! TA.AperFunction,Plated,PTH,ComponentDrill
T4C0.0315
; #@! TA.AperFunction,Plated,PTH,ComponentDrill
T5C0.0354
; #@! TA.AperFunction,Plated,PTH,ComponentDrill
T6C0.0394
; #@! TA.AperFunction,Plated,PTH,ComponentDrill
T7C0.0433
; #@! TA.AperFunction,Plated,PTH,ComponentDrill
T8C0.0472
; #@! TA.AperFunction,Plated,PTH,ComponentDrill
T9C0.0512
; #@! TA.AperFunction,Plated,PTH,ComponentDrill
T10C0.1260
; #@! TA.AperFunction,NonPlated,NPTH,ComponentDrill
T11C0.1378
%
G90
G05
T1
X4.1Y-3.15
X4.575Y-3.55
X4.575Y-3.775
X5.025Y-2.525
X5.025Y-3.4
X5.025Y-3.6
X5.575Y-3.425
X5.575Y-3.6
X6.125Y-2.675
X6.225Y-2.675
X6.225Y-2.775
T2
X4.1869Y-2.933
X4.1869Y-2.9665
X4.1869Y-2.9999
X4.1869Y-3.0334
X4.1869Y-3.0669
X4.1869Y-3.1003
X4.1869Y-3.1338
X4.1869Y-3.1673
X4.24Y-2.933
X4.24Y-2.9665
X4.24Y-2.9999
X4.24Y-3.0334
X4.24Y-3.0669
X4.24Y-3.1003
X4.24Y-3.1338
X4.24Y-3.1673
T4
X4.1008Y-3.325
X4.1992Y-3.325
X4.52Y-1.85
X4.52Y-1.95
X4.5742Y-3.3
X4.5742Y-3.3984
X4.675Y-2.9
X4.675Y-3.2
X4.675Y-3.3
X4.675Y-3.7
X4.725Y-2.5016
X4.725Y-2.6
X4.775Y-2.9
X4.775Y-3.2
X4.775Y-3.3
X4.775Y-3.7
X4.875Y-2.9
X4.875Y-3.2
X4.875Y-3.3
X4.875Y-3.7
X4.92Y-1.85
X4.92Y-1.95
X4.925Y-4.1
X4.925Y-4.3
X4.925Y-4.3984
X4.975Y-2.7008
X4.975Y-2.7992
X4.975Y-2.9
X4.975Y-3.2
X4.975Y-3.3
X4.975Y-3.7
X5.0234Y-4.1
X5.075Y-2.4
X5.075Y-2.8
X5.075Y-2.9
X5.075Y-3.2
X5.075Y-3.3
X5.075Y-3.7
X5.175Y-2.4
X5.175Y-2.8
X5.175Y-2.9
X5.175Y-3.2
X5.175Y-3.3
X5.175Y-3.7
X5.275Y-2.4
X5.275Y-2.8
X5.275Y-2.9
X5.275Y-3.2
X5.275Y-3.3
X5.275Y-3.7
X5.375Y-2.4
X5.375Y-2.8
X5.375Y-2.9
X5.375Y-3.2
X5.375Y-3.3
X5.375Y-3.7
X5.475Y-2.4
X5.475Y-2.8
X5.475Y-2.9
X5.475Y-3.2
X5.475Y-3.3
X5.475Y-3.7
X5.55Y-4.124
X5.55Y-4.2224
X5.575Y-2.9
X5.575Y-3.2
X5.75Y-2.9
X5.75Y-3.0
X5.75Y-3.1
X5.75Y-3.2
X5.75Y-3.3
X5.75Y-3.4
X5.8Y-3.525
X5.8Y-3.625
X5.8Y-3.725
X5.8Y-3.825
X5.8Y-3.925
X5.8Y-4.025
X5.8Y-4.125
X5.8Y-4.225
X6.025Y-2.4
X6.025Y-2.8
X6.1Y-3.525
X6.1Y-3.625
X6.1Y-3.725
X6.1Y-3.825
X6.1Y-3.925
X6.1Y-4.025
X6.1Y-4.125
X6.1Y-4.225
X6.125Y-2.4
X6.125Y-2.8
X6.15Y-2.9
X6.15Y-3.0
X6.15Y-3.1
X6.15Y-3.2
X6.15Y-3.3
X6.15Y-3.4
X6.2Y-3.525
X6.2Y-3.6234
X6.4766Y-3.725
X6.575Y-3.725
X6.58Y-1.85
X6.58Y-1.95
X6.98Y-1.85
X6.98Y-1.95
T5
X4.15Y-1.8502
X4.15Y-1.9502
X4.4Y-1.85
X4.4Y-1.95
X4.425Y-3.325
X4.425Y-3.425
X4.725Y-3.8002
X4.725Y-3.9002
X4.975Y-3.8002
X4.975Y-3.9002
X5.225Y-3.8002
X5.225Y-3.9002
X5.475Y-3.8002
X5.475Y-3.9002
X5.5Y-1.8502
X5.5Y-1.9502
X5.75Y-1.85
X5.75Y-1.95
X6.0Y-1.8502
X6.0Y-1.9502
X6.375Y-3.625
X6.475Y-3.625
X6.575Y-3.625
X7.1Y-1.8502
X7.1Y-1.9502
X7.35Y-1.8502
X7.35Y-1.9502
T6
X4.1781Y-3.7
X4.375Y-3.7
X4.525Y-2.075
X4.525Y-2.325
X4.525Y-2.5
X4.525Y-2.6
X4.625Y-2.075
X4.625Y-2.325
X4.725Y-2.075
X4.725Y-2.325
X5.6Y-2.4994
X5.6Y-2.5994
X5.6Y-2.6994
X5.7Y-2.5
X5.7Y-2.6
X5.7Y-2.7
X5.8Y-2.5
X5.8Y-2.6
X5.8Y-2.7
X5.9Y-2.4
X5.9Y-2.5
X5.9Y-2.6
X6.7756Y-2.07
X6.7756Y-2.325
X6.8756Y-2.07
X6.8756Y-2.325
X6.9756Y-2.07
X6.9756Y-2.325
X7.25Y-3.4
X7.25Y-3.5
X7.25Y-3.6
X7.25Y-3.7
X7.25Y-3.8
X7.25Y-3.9
T7
X4.3478Y-2.925
X4.3478Y-3.1809
X4.525Y-2.925
X4.525Y-3.1809
X4.8Y-4.1
X4.8Y-4.2
X4.8Y-4.3
X6.4191Y-2.9978
X6.4191Y-3.175
X6.675Y-2.9978
X6.675Y-3.175
X6.747Y-2.6614
X6.747Y-2.8386
X6.747Y-3.3364
X6.747Y-3.5136
X7.003Y-2.6614
X7.003Y-2.8386
X7.003Y-3.3364
X7.003Y-3.5136
X7.0691Y-2.9978
X7.0691Y-3.175
X7.325Y-2.9978
X7.325Y-3.175
T8
X4.1Y-2.75
X4.6Y-2.75
T9
X5.25Y-4.55
X5.45Y-4.55
X5.65Y-4.55
X5.85Y-4.55
X6.05Y-4.55
X6.25Y-4.55
T10
X4.15Y-2.4
X4.15Y-4.6
X5.125Y-2.0
X6.375Y-2.0
X7.35Y-2.4
X7.35Y-4.6
T11
X4.1441Y-4.2
T3
G00X4.0841Y-2.8799
M15
G01X4.0526Y-2.8799
M16
G05
G00X4.0841Y-3.2204
M15
G01X4.0526Y-3.2204
M16
G05
G00X4.2309Y-2.8799
M15
G01X4.1719Y-2.8799
M16
G05
G00X4.2309Y-3.2204
M15
G01X4.1719Y-3.2204
M16
G05
T0
M30
