%TF.GenerationSoftware,KiCad,Pcbnew,7.0.1-0*%
%TF.CreationDate,2023-03-30T00:17:38-04:00*%
%TF.ProjectId,CHRP400,43485250-3430-4302-9e6b-696361645f70,0*%
%TF.SameCoordinates,Original*%
%TF.FileFunction,Drillmap*%
%TF.FilePolarity,Positive*%
%FSLAX45Y45*%
G04 Gerber Fmt 4.5, Leading zero omitted, Abs format (unit mm)*
G04 Created by KiCad (PCBNEW 7.0.1-0) date 2023-03-30 00:17:38*
%MOMM*%
%LPD*%
G01*
G04 APERTURE LIST*
%ADD10C,0.050800*%
%ADD11C,0.200000*%
%ADD12C,0.038100*%
%ADD13C,0.040000*%
%ADD14C,0.060000*%
%ADD15C,0.080000*%
%ADD16C,0.090000*%
%ADD17C,0.100000*%
%ADD18C,0.110000*%
%ADD19C,0.120000*%
%ADD20C,0.130000*%
%ADD21C,0.320000*%
%ADD22C,0.350000*%
G04 APERTURE END LIST*
D10*
X15303500Y-5715000D02*
X16319500Y-5715000D01*
X15557500Y-4572000D02*
G75*
G03*
X15430500Y-4445000I-127000J0D01*
G01*
X17653000Y-5715000D02*
X18161000Y-5715000D01*
X10160000Y-6096000D02*
X10160000Y-11684000D01*
X12890500Y-5461000D02*
G75*
G03*
X12890500Y-5715000I0J-127000D01*
G01*
X15811500Y-4826000D02*
X15811500Y-5080000D01*
X12890500Y-5715000D02*
X13906500Y-5715000D01*
X15557500Y-4572000D02*
X15557500Y-5334000D01*
X15303500Y-5461000D02*
X15430500Y-5461000D01*
X16700500Y-5461000D02*
G75*
G03*
X16700500Y-5715000I0J-127000D01*
G01*
X12890500Y-5461000D02*
X13017500Y-5461000D01*
X13652500Y-5334000D02*
G75*
G03*
X13779500Y-5461000I127000J0D01*
G01*
X13017500Y-5461000D02*
G75*
G03*
X13398500Y-5080000I0J381000D01*
G01*
X11557000Y-5715000D02*
G75*
G03*
X11557000Y-5461000I0J127000D01*
G01*
X13398500Y-4826000D02*
X13398500Y-5080000D01*
X18669000Y-5461000D02*
X18542000Y-5461000D01*
X10541000Y-12065000D02*
X18669000Y-12065000D01*
X15811500Y-5080000D02*
G75*
G03*
X16192500Y-5461000I381000J0D01*
G01*
X19050000Y-11684000D02*
X19050000Y-6096000D01*
X13398500Y-4826000D02*
G75*
G03*
X13017500Y-4445000I-381000J0D01*
G01*
X10541000Y-4445000D02*
G75*
G03*
X10160000Y-4826000I0J-381000D01*
G01*
X10160000Y-5080000D02*
G75*
G03*
X10541000Y-5461000I381000J0D01*
G01*
X17653000Y-5461000D02*
G75*
G03*
X17653000Y-5715000I0J-127000D01*
G01*
X16192500Y-5461000D02*
X16319500Y-5461000D01*
X19050000Y-4826000D02*
X19050000Y-5080000D01*
X13652500Y-4572000D02*
X13652500Y-5334000D01*
X18669000Y-5461000D02*
G75*
G03*
X19050000Y-5080000I0J381000D01*
G01*
X19050000Y-4826000D02*
G75*
G03*
X18669000Y-4445000I-381000J0D01*
G01*
X16700500Y-5715000D02*
X17208500Y-5715000D01*
X15430500Y-5461000D02*
G75*
G03*
X15557500Y-5334000I0J127000D01*
G01*
X10541000Y-5715000D02*
G75*
G03*
X10160000Y-6096000I0J-381000D01*
G01*
X16192500Y-4445000D02*
G75*
G03*
X15811500Y-4826000I0J-381000D01*
G01*
X10541000Y-5461000D02*
X10668000Y-5461000D01*
X10160000Y-11684000D02*
G75*
G03*
X10541000Y-12065000I381000J0D01*
G01*
X17653000Y-5461000D02*
X18161000Y-5461000D01*
X14351000Y-5461000D02*
G75*
G03*
X14351000Y-5715000I0J-127000D01*
G01*
X19050000Y-6096000D02*
G75*
G03*
X18669000Y-5715000I-381000J0D01*
G01*
X15303500Y-5461000D02*
G75*
G03*
X15303500Y-5715000I0J-127000D01*
G01*
X10541000Y-5715000D02*
X10668000Y-5715000D01*
X18669000Y-5715000D02*
X18542000Y-5715000D01*
X13779500Y-5461000D02*
X13906500Y-5461000D01*
X11049000Y-5461000D02*
X11557000Y-5461000D01*
X12001500Y-5715000D02*
X12509500Y-5715000D01*
X16700500Y-5461000D02*
X17208500Y-5461000D01*
X16319500Y-5715000D02*
G75*
G03*
X16319500Y-5461000I0J127000D01*
G01*
X11049000Y-5461000D02*
G75*
G03*
X11049000Y-5715000I0J-127000D01*
G01*
X17208500Y-5715000D02*
G75*
G03*
X17208500Y-5461000I0J127000D01*
G01*
X12001500Y-5461000D02*
G75*
G03*
X12001500Y-5715000I0J-127000D01*
G01*
X14351000Y-5715000D02*
X14859000Y-5715000D01*
X18669000Y-12065000D02*
G75*
G03*
X19050000Y-11684000I0J381000D01*
G01*
X14859000Y-5715000D02*
G75*
G03*
X14859000Y-5461000I0J127000D01*
G01*
X13017500Y-4445000D02*
X10541000Y-4445000D01*
X12001500Y-5461000D02*
X12509500Y-5461000D01*
X15430500Y-4445000D02*
X13779500Y-4445000D01*
X11049000Y-5715000D02*
X11557000Y-5715000D01*
X18542000Y-5461000D02*
G75*
G03*
X18542000Y-5715000I0J-127000D01*
G01*
X13779500Y-4445000D02*
G75*
G03*
X13652500Y-4572000I0J-127000D01*
G01*
X18669000Y-4445000D02*
X16192500Y-4445000D01*
X10668000Y-5715000D02*
G75*
G03*
X10668000Y-5461000I0J127000D01*
G01*
X14351000Y-5461000D02*
X14859000Y-5461000D01*
X13906500Y-5715000D02*
G75*
G03*
X13906500Y-5461000I0J127000D01*
G01*
X18161000Y-5715000D02*
G75*
G03*
X18161000Y-5461000I0J127000D01*
G01*
X12509500Y-5715000D02*
G75*
G03*
X12509500Y-5461000I0J127000D01*
G01*
X10160000Y-4826000D02*
X10160000Y-5080000D01*
D11*
D12*
X10394950Y-7981950D02*
X10433050Y-8020050D01*
X10433050Y-7981950D02*
X10394950Y-8020050D01*
X11601450Y-8997950D02*
X11639550Y-9036050D01*
X11639550Y-8997950D02*
X11601450Y-9036050D01*
X11601450Y-9569450D02*
X11639550Y-9607550D01*
X11639550Y-9569450D02*
X11601450Y-9607550D01*
X12744450Y-6394450D02*
X12782550Y-6432550D01*
X12782550Y-6394450D02*
X12744450Y-6432550D01*
X12744450Y-8616950D02*
X12782550Y-8655050D01*
X12782550Y-8616950D02*
X12744450Y-8655050D01*
X12744450Y-9124950D02*
X12782550Y-9163050D01*
X12782550Y-9124950D02*
X12744450Y-9163050D01*
X14141450Y-8680450D02*
X14179550Y-8718550D01*
X14179550Y-8680450D02*
X14141450Y-8718550D01*
X14141450Y-9124950D02*
X14179550Y-9163050D01*
X14179550Y-9124950D02*
X14141450Y-9163050D01*
X15538450Y-6775450D02*
X15576550Y-6813550D01*
X15576550Y-6775450D02*
X15538450Y-6813550D01*
X15792450Y-6775450D02*
X15830550Y-6813550D01*
X15830550Y-6775450D02*
X15792450Y-6813550D01*
X15792450Y-7029450D02*
X15830550Y-7067550D01*
X15830550Y-7029450D02*
X15792450Y-7067550D01*
D13*
X10654600Y-7449820D02*
G75*
G03*
X10654600Y-7449820I-20000J0D01*
G01*
X10654600Y-7534820D02*
G75*
G03*
X10654600Y-7534820I-20000J0D01*
G01*
X10654600Y-7619820D02*
G75*
G03*
X10654600Y-7619820I-20000J0D01*
G01*
X10654600Y-7704820D02*
G75*
G03*
X10654600Y-7704820I-20000J0D01*
G01*
X10654600Y-7789820D02*
G75*
G03*
X10654600Y-7789820I-20000J0D01*
G01*
X10654600Y-7874820D02*
G75*
G03*
X10654600Y-7874820I-20000J0D01*
G01*
X10654600Y-7959820D02*
G75*
G03*
X10654600Y-7959820I-20000J0D01*
G01*
X10654600Y-8044820D02*
G75*
G03*
X10654600Y-8044820I-20000J0D01*
G01*
X10789600Y-7449820D02*
G75*
G03*
X10789600Y-7449820I-20000J0D01*
G01*
X10789600Y-7534820D02*
G75*
G03*
X10789600Y-7534820I-20000J0D01*
G01*
X10789600Y-7619820D02*
G75*
G03*
X10789600Y-7619820I-20000J0D01*
G01*
X10789600Y-7704820D02*
G75*
G03*
X10789600Y-7704820I-20000J0D01*
G01*
X10789600Y-7789820D02*
G75*
G03*
X10789600Y-7789820I-20000J0D01*
G01*
X10789600Y-7874820D02*
G75*
G03*
X10789600Y-7874820I-20000J0D01*
G01*
X10789600Y-7959820D02*
G75*
G03*
X10789600Y-7959820I-20000J0D01*
G01*
X10789600Y-8044820D02*
G75*
G03*
X10789600Y-8044820I-20000J0D01*
G01*
D14*
X10333600Y-7284820D02*
X10333600Y-7344820D01*
X10303600Y-7314820D02*
X10363600Y-7314820D01*
D11*
X10373600Y-7284820D02*
X10293600Y-7284820D01*
X10293600Y-7284820D02*
G75*
G03*
X10293600Y-7344820I0J-30000D01*
G01*
X10293600Y-7344820D02*
X10373600Y-7344820D01*
X10373600Y-7344820D02*
G75*
G03*
X10373600Y-7284820I0J30000D01*
G01*
D14*
X10333600Y-8149820D02*
X10333600Y-8209820D01*
X10303600Y-8179820D02*
X10363600Y-8179820D01*
D11*
X10373600Y-8149820D02*
X10293600Y-8149820D01*
X10293600Y-8149820D02*
G75*
G03*
X10293600Y-8209820I0J-30000D01*
G01*
X10293600Y-8209820D02*
X10373600Y-8209820D01*
X10373600Y-8209820D02*
G75*
G03*
X10373600Y-8149820I0J30000D01*
G01*
D14*
X10671600Y-7284820D02*
X10671600Y-7344820D01*
X10641600Y-7314820D02*
X10701600Y-7314820D01*
D11*
X10746600Y-7284820D02*
X10596600Y-7284820D01*
X10596600Y-7284820D02*
G75*
G03*
X10596600Y-7344820I0J-30000D01*
G01*
X10596600Y-7344820D02*
X10746600Y-7344820D01*
X10746600Y-7344820D02*
G75*
G03*
X10746600Y-7284820I0J30000D01*
G01*
D14*
X10671600Y-8149820D02*
X10671600Y-8209820D01*
X10641600Y-8179820D02*
X10701600Y-8179820D01*
D11*
X10746600Y-8149820D02*
X10596600Y-8149820D01*
X10596600Y-8149820D02*
G75*
G03*
X10596600Y-8209820I0J-30000D01*
G01*
X10596600Y-8209820D02*
X10746600Y-8209820D01*
X10746600Y-8209820D02*
G75*
G03*
X10746600Y-8149820I0J30000D01*
G01*
D15*
X10444285Y-8473785D02*
X10444285Y-8417216D01*
X10387716Y-8417216D01*
X10387716Y-8473785D01*
X10444285Y-8473785D01*
X10694285Y-8473785D02*
X10694285Y-8417216D01*
X10637716Y-8417216D01*
X10637716Y-8473785D01*
X10694285Y-8473785D01*
X11509084Y-4727285D02*
X11509084Y-4670716D01*
X11452515Y-4670716D01*
X11452515Y-4727285D01*
X11509084Y-4727285D01*
X11509084Y-4981285D02*
X11509084Y-4924716D01*
X11452515Y-4924716D01*
X11452515Y-4981285D01*
X11509084Y-4981285D01*
X11646784Y-8410285D02*
X11646784Y-8353715D01*
X11590215Y-8353715D01*
X11590215Y-8410285D01*
X11646784Y-8410285D01*
X11646784Y-8660285D02*
X11646784Y-8603716D01*
X11590215Y-8603716D01*
X11590215Y-8660285D01*
X11646784Y-8660285D01*
X11902784Y-7394284D02*
X11902784Y-7337715D01*
X11846215Y-7337715D01*
X11846215Y-7394284D01*
X11902784Y-7394284D01*
X11902784Y-8156284D02*
X11902784Y-8099715D01*
X11846215Y-8099715D01*
X11846215Y-8156284D01*
X11902784Y-8156284D01*
X11902784Y-8410285D02*
X11902784Y-8353715D01*
X11846215Y-8353715D01*
X11846215Y-8410285D01*
X11902784Y-8410285D01*
X11902784Y-9426285D02*
X11902784Y-9369716D01*
X11846215Y-9369716D01*
X11846215Y-9426285D01*
X11902784Y-9426285D01*
X12029784Y-6382284D02*
X12029784Y-6325715D01*
X11973215Y-6325715D01*
X11973215Y-6382284D01*
X12029784Y-6382284D01*
X12029784Y-6632284D02*
X12029784Y-6575715D01*
X11973215Y-6575715D01*
X11973215Y-6632284D01*
X12029784Y-6632284D01*
X12156784Y-7394284D02*
X12156784Y-7337715D01*
X12100215Y-7337715D01*
X12100215Y-7394284D01*
X12156784Y-7394284D01*
X12156784Y-8156284D02*
X12156784Y-8099715D01*
X12100215Y-8099715D01*
X12100215Y-8156284D01*
X12156784Y-8156284D01*
X12156784Y-8410285D02*
X12156784Y-8353715D01*
X12100215Y-8353715D01*
X12100215Y-8410285D01*
X12156784Y-8410285D01*
X12156784Y-9426285D02*
X12156784Y-9369716D01*
X12100215Y-9369716D01*
X12100215Y-9426285D01*
X12156784Y-9426285D01*
X12410784Y-7394284D02*
X12410784Y-7337715D01*
X12354215Y-7337715D01*
X12354215Y-7394284D01*
X12410784Y-7394284D01*
X12410784Y-8156284D02*
X12410784Y-8099715D01*
X12354215Y-8099715D01*
X12354215Y-8156284D01*
X12410784Y-8156284D01*
X12410784Y-8410285D02*
X12410784Y-8353715D01*
X12354215Y-8353715D01*
X12354215Y-8410285D01*
X12410784Y-8410285D01*
X12410784Y-9426285D02*
X12410784Y-9369716D01*
X12354215Y-9369716D01*
X12354215Y-9426285D01*
X12410784Y-9426285D01*
X12525084Y-4727285D02*
X12525084Y-4670716D01*
X12468515Y-4670716D01*
X12468515Y-4727285D01*
X12525084Y-4727285D01*
X12525084Y-4981285D02*
X12525084Y-4924716D01*
X12468515Y-4924716D01*
X12468515Y-4981285D01*
X12525084Y-4981285D01*
X12537784Y-10442285D02*
X12537784Y-10385716D01*
X12481215Y-10385716D01*
X12481215Y-10442285D01*
X12537784Y-10442285D01*
X12537784Y-10950285D02*
X12537784Y-10893716D01*
X12481215Y-10893716D01*
X12481215Y-10950285D01*
X12537784Y-10950285D01*
X12537784Y-11200284D02*
X12537784Y-11143716D01*
X12481215Y-11143716D01*
X12481215Y-11200284D01*
X12537784Y-11200284D01*
X12664784Y-6888284D02*
X12664784Y-6831715D01*
X12608215Y-6831715D01*
X12608215Y-6888284D01*
X12664784Y-6888284D01*
X12664784Y-7138284D02*
X12664784Y-7081715D01*
X12608215Y-7081715D01*
X12608215Y-7138284D01*
X12664784Y-7138284D01*
X12664784Y-7394284D02*
X12664784Y-7337715D01*
X12608215Y-7337715D01*
X12608215Y-7394284D01*
X12664784Y-7394284D01*
X12664784Y-8156284D02*
X12664784Y-8099715D01*
X12608215Y-8099715D01*
X12608215Y-8156284D01*
X12664784Y-8156284D01*
X12664784Y-8410285D02*
X12664784Y-8353715D01*
X12608215Y-8353715D01*
X12608215Y-8410285D01*
X12664784Y-8410285D01*
X12664784Y-9426285D02*
X12664784Y-9369716D01*
X12608215Y-9369716D01*
X12608215Y-9426285D01*
X12664784Y-9426285D01*
X12787784Y-10442285D02*
X12787784Y-10385716D01*
X12731215Y-10385716D01*
X12731215Y-10442285D01*
X12787784Y-10442285D01*
X12918784Y-6124284D02*
X12918784Y-6067715D01*
X12862215Y-6067715D01*
X12862215Y-6124284D01*
X12918784Y-6124284D01*
X12918784Y-7140284D02*
X12918784Y-7083715D01*
X12862215Y-7083715D01*
X12862215Y-7140284D01*
X12918784Y-7140284D01*
X12918784Y-7394284D02*
X12918784Y-7337715D01*
X12862215Y-7337715D01*
X12862215Y-7394284D01*
X12918784Y-7394284D01*
X12918784Y-8156284D02*
X12918784Y-8099715D01*
X12862215Y-8099715D01*
X12862215Y-8156284D01*
X12918784Y-8156284D01*
X12918784Y-8410285D02*
X12918784Y-8353715D01*
X12862215Y-8353715D01*
X12862215Y-8410285D01*
X12918784Y-8410285D01*
X12918784Y-9426285D02*
X12918784Y-9369716D01*
X12862215Y-9369716D01*
X12862215Y-9426285D01*
X12918784Y-9426285D01*
X13172784Y-6124284D02*
X13172784Y-6067715D01*
X13116215Y-6067715D01*
X13116215Y-6124284D01*
X13172784Y-6124284D01*
X13172784Y-7140284D02*
X13172784Y-7083715D01*
X13116215Y-7083715D01*
X13116215Y-7140284D01*
X13172784Y-7140284D01*
X13172784Y-7394284D02*
X13172784Y-7337715D01*
X13116215Y-7337715D01*
X13116215Y-7394284D01*
X13172784Y-7394284D01*
X13172784Y-8156284D02*
X13172784Y-8099715D01*
X13116215Y-8099715D01*
X13116215Y-8156284D01*
X13172784Y-8156284D01*
X13172784Y-8410285D02*
X13172784Y-8353715D01*
X13116215Y-8353715D01*
X13116215Y-8410285D01*
X13172784Y-8410285D01*
X13172784Y-9426285D02*
X13172784Y-9369716D01*
X13116215Y-9369716D01*
X13116215Y-9426285D01*
X13172784Y-9426285D01*
X13426784Y-6124284D02*
X13426784Y-6067715D01*
X13370215Y-6067715D01*
X13370215Y-6124284D01*
X13426784Y-6124284D01*
X13426784Y-7140284D02*
X13426784Y-7083715D01*
X13370215Y-7083715D01*
X13370215Y-7140284D01*
X13426784Y-7140284D01*
X13426784Y-7394284D02*
X13426784Y-7337715D01*
X13370215Y-7337715D01*
X13370215Y-7394284D01*
X13426784Y-7394284D01*
X13426784Y-8156284D02*
X13426784Y-8099715D01*
X13370215Y-8099715D01*
X13370215Y-8156284D01*
X13426784Y-8156284D01*
X13426784Y-8410285D02*
X13426784Y-8353715D01*
X13370215Y-8353715D01*
X13370215Y-8410285D01*
X13426784Y-8410285D01*
X13426784Y-9426285D02*
X13426784Y-9369716D01*
X13370215Y-9369716D01*
X13370215Y-9426285D01*
X13426784Y-9426285D01*
X13680784Y-6124284D02*
X13680784Y-6067715D01*
X13624215Y-6067715D01*
X13624215Y-6124284D01*
X13680784Y-6124284D01*
X13680784Y-7140284D02*
X13680784Y-7083715D01*
X13624215Y-7083715D01*
X13624215Y-7140284D01*
X13680784Y-7140284D01*
X13680784Y-7394284D02*
X13680784Y-7337715D01*
X13624215Y-7337715D01*
X13624215Y-7394284D01*
X13680784Y-7394284D01*
X13680784Y-8156284D02*
X13680784Y-8099715D01*
X13624215Y-8099715D01*
X13624215Y-8156284D01*
X13680784Y-8156284D01*
X13680784Y-8410285D02*
X13680784Y-8353715D01*
X13624215Y-8353715D01*
X13624215Y-8410285D01*
X13680784Y-8410285D01*
X13680784Y-9426285D02*
X13680784Y-9369716D01*
X13624215Y-9369716D01*
X13624215Y-9426285D01*
X13680784Y-9426285D01*
X13934784Y-6124284D02*
X13934784Y-6067715D01*
X13878215Y-6067715D01*
X13878215Y-6124284D01*
X13934784Y-6124284D01*
X13934784Y-7140284D02*
X13934784Y-7083715D01*
X13878215Y-7083715D01*
X13878215Y-7140284D01*
X13934784Y-7140284D01*
X13934784Y-7394284D02*
X13934784Y-7337715D01*
X13878215Y-7337715D01*
X13878215Y-7394284D01*
X13934784Y-7394284D01*
X13934784Y-8156284D02*
X13934784Y-8099715D01*
X13878215Y-8099715D01*
X13878215Y-8156284D01*
X13934784Y-8156284D01*
X13934784Y-8410285D02*
X13934784Y-8353715D01*
X13878215Y-8353715D01*
X13878215Y-8410285D01*
X13934784Y-8410285D01*
X13934784Y-9426285D02*
X13934784Y-9369716D01*
X13878215Y-9369716D01*
X13878215Y-9426285D01*
X13934784Y-9426285D01*
X14125284Y-10503297D02*
X14125284Y-10446728D01*
X14068715Y-10446728D01*
X14068715Y-10503297D01*
X14125284Y-10503297D01*
X14125284Y-10753297D02*
X14125284Y-10696728D01*
X14068715Y-10696728D01*
X14068715Y-10753297D01*
X14125284Y-10753297D01*
X14188784Y-7394284D02*
X14188784Y-7337715D01*
X14132215Y-7337715D01*
X14132215Y-7394284D01*
X14188784Y-7394284D01*
X14188784Y-8156284D02*
X14188784Y-8099715D01*
X14132215Y-8099715D01*
X14132215Y-8156284D01*
X14188784Y-8156284D01*
X14633284Y-7394284D02*
X14633284Y-7337715D01*
X14576715Y-7337715D01*
X14576715Y-7394284D01*
X14633284Y-7394284D01*
X14633284Y-7648284D02*
X14633284Y-7591715D01*
X14576715Y-7591715D01*
X14576715Y-7648284D01*
X14633284Y-7648284D01*
X14633284Y-7902284D02*
X14633284Y-7845715D01*
X14576715Y-7845715D01*
X14576715Y-7902284D01*
X14633284Y-7902284D01*
X14633284Y-8156284D02*
X14633284Y-8099715D01*
X14576715Y-8099715D01*
X14576715Y-8156284D01*
X14633284Y-8156284D01*
X14633284Y-8410285D02*
X14633284Y-8353715D01*
X14576715Y-8353715D01*
X14576715Y-8410285D01*
X14633284Y-8410285D01*
X14633284Y-8664285D02*
X14633284Y-8607716D01*
X14576715Y-8607716D01*
X14576715Y-8664285D01*
X14633284Y-8664285D01*
X14760284Y-8981785D02*
X14760284Y-8925216D01*
X14703715Y-8925216D01*
X14703715Y-8981785D01*
X14760284Y-8981785D01*
X14760284Y-9235785D02*
X14760284Y-9179216D01*
X14703715Y-9179216D01*
X14703715Y-9235785D01*
X14760284Y-9235785D01*
X14760284Y-9489785D02*
X14760284Y-9433216D01*
X14703715Y-9433216D01*
X14703715Y-9489785D01*
X14760284Y-9489785D01*
X14760284Y-9743785D02*
X14760284Y-9687216D01*
X14703715Y-9687216D01*
X14703715Y-9743785D01*
X14760284Y-9743785D01*
X14760284Y-9997785D02*
X14760284Y-9941216D01*
X14703715Y-9941216D01*
X14703715Y-9997785D01*
X14760284Y-9997785D01*
X14760284Y-10251785D02*
X14760284Y-10195216D01*
X14703715Y-10195216D01*
X14703715Y-10251785D01*
X14760284Y-10251785D01*
X14760284Y-10505785D02*
X14760284Y-10449216D01*
X14703715Y-10449216D01*
X14703715Y-10505785D01*
X14760284Y-10505785D01*
X14760284Y-10759785D02*
X14760284Y-10703216D01*
X14703715Y-10703216D01*
X14703715Y-10759785D01*
X14760284Y-10759785D01*
X15331784Y-6124284D02*
X15331784Y-6067715D01*
X15275215Y-6067715D01*
X15275215Y-6124284D01*
X15331784Y-6124284D01*
X15331784Y-7140284D02*
X15331784Y-7083715D01*
X15275215Y-7083715D01*
X15275215Y-7140284D01*
X15331784Y-7140284D01*
X15522284Y-8981785D02*
X15522284Y-8925216D01*
X15465715Y-8925216D01*
X15465715Y-8981785D01*
X15522284Y-8981785D01*
X15522284Y-9235785D02*
X15522284Y-9179216D01*
X15465715Y-9179216D01*
X15465715Y-9235785D01*
X15522284Y-9235785D01*
X15522284Y-9489785D02*
X15522284Y-9433216D01*
X15465715Y-9433216D01*
X15465715Y-9489785D01*
X15522284Y-9489785D01*
X15522284Y-9743785D02*
X15522284Y-9687216D01*
X15465715Y-9687216D01*
X15465715Y-9743785D01*
X15522284Y-9743785D01*
X15522284Y-9997785D02*
X15522284Y-9941216D01*
X15465715Y-9941216D01*
X15465715Y-9997785D01*
X15522284Y-9997785D01*
X15522284Y-10251785D02*
X15522284Y-10195216D01*
X15465715Y-10195216D01*
X15465715Y-10251785D01*
X15522284Y-10251785D01*
X15522284Y-10505785D02*
X15522284Y-10449216D01*
X15465715Y-10449216D01*
X15465715Y-10505785D01*
X15522284Y-10505785D01*
X15522284Y-10759785D02*
X15522284Y-10703216D01*
X15465715Y-10703216D01*
X15465715Y-10759785D01*
X15522284Y-10759785D01*
X15585784Y-6124284D02*
X15585784Y-6067715D01*
X15529215Y-6067715D01*
X15529215Y-6124284D01*
X15585784Y-6124284D01*
X15585784Y-7140284D02*
X15585784Y-7083715D01*
X15529215Y-7083715D01*
X15529215Y-7140284D01*
X15585784Y-7140284D01*
X15649284Y-7394284D02*
X15649284Y-7337715D01*
X15592715Y-7337715D01*
X15592715Y-7394284D01*
X15649284Y-7394284D01*
X15649284Y-7648284D02*
X15649284Y-7591715D01*
X15592715Y-7591715D01*
X15592715Y-7648284D01*
X15649284Y-7648284D01*
X15649284Y-7902284D02*
X15649284Y-7845715D01*
X15592715Y-7845715D01*
X15592715Y-7902284D01*
X15649284Y-7902284D01*
X15649284Y-8156284D02*
X15649284Y-8099715D01*
X15592715Y-8099715D01*
X15592715Y-8156284D01*
X15649284Y-8156284D01*
X15649284Y-8410285D02*
X15649284Y-8353715D01*
X15592715Y-8353715D01*
X15592715Y-8410285D01*
X15649284Y-8410285D01*
X15649284Y-8664285D02*
X15649284Y-8607716D01*
X15592715Y-8607716D01*
X15592715Y-8664285D01*
X15649284Y-8664285D01*
X15776284Y-8981785D02*
X15776284Y-8925216D01*
X15719715Y-8925216D01*
X15719715Y-8981785D01*
X15776284Y-8981785D01*
X15776284Y-9231785D02*
X15776284Y-9175216D01*
X15719715Y-9175216D01*
X15719715Y-9231785D01*
X15776284Y-9231785D01*
X16478784Y-9489785D02*
X16478784Y-9433216D01*
X16422215Y-9433216D01*
X16422215Y-9489785D01*
X16478784Y-9489785D01*
X16728784Y-9489785D02*
X16728784Y-9433216D01*
X16672215Y-9433216D01*
X16672215Y-9489785D01*
X16728784Y-9489785D01*
X16741484Y-4727285D02*
X16741484Y-4670716D01*
X16684915Y-4670716D01*
X16684915Y-4727285D01*
X16741484Y-4727285D01*
X16741484Y-4981285D02*
X16741484Y-4924716D01*
X16684915Y-4924716D01*
X16684915Y-4981285D01*
X16741484Y-4981285D01*
X17757485Y-4727285D02*
X17757485Y-4670716D01*
X17700916Y-4670716D01*
X17700916Y-4727285D01*
X17757485Y-4727285D01*
X17757485Y-4981285D02*
X17757485Y-4924716D01*
X17700916Y-4924716D01*
X17700916Y-4981285D01*
X17757485Y-4981285D01*
D16*
X10541000Y-4744500D02*
X10586000Y-4699500D01*
X10541000Y-4654500D01*
X10496000Y-4699500D01*
X10541000Y-4744500D01*
X10541000Y-4998500D02*
X10586000Y-4953500D01*
X10541000Y-4908500D01*
X10496000Y-4953500D01*
X10541000Y-4998500D01*
X11176000Y-4744000D02*
X11221000Y-4699000D01*
X11176000Y-4654000D01*
X11131000Y-4699000D01*
X11176000Y-4744000D01*
X11176000Y-4998000D02*
X11221000Y-4953000D01*
X11176000Y-4908000D01*
X11131000Y-4953000D01*
X11176000Y-4998000D01*
X11239500Y-8490500D02*
X11284500Y-8445500D01*
X11239500Y-8400500D01*
X11194500Y-8445500D01*
X11239500Y-8490500D01*
X11239500Y-8744500D02*
X11284500Y-8699500D01*
X11239500Y-8654500D01*
X11194500Y-8699500D01*
X11239500Y-8744500D01*
X12001500Y-9697500D02*
X12046500Y-9652500D01*
X12001500Y-9607500D01*
X11956500Y-9652500D01*
X12001500Y-9697500D01*
X12001500Y-9951500D02*
X12046500Y-9906500D01*
X12001500Y-9861500D01*
X11956500Y-9906500D01*
X12001500Y-9951500D01*
X12636500Y-9697500D02*
X12681500Y-9652500D01*
X12636500Y-9607500D01*
X12591500Y-9652500D01*
X12636500Y-9697500D01*
X12636500Y-9951500D02*
X12681500Y-9906500D01*
X12636500Y-9861500D01*
X12591500Y-9906500D01*
X12636500Y-9951500D01*
X13271500Y-9697500D02*
X13316500Y-9652500D01*
X13271500Y-9607500D01*
X13226500Y-9652500D01*
X13271500Y-9697500D01*
X13271500Y-9951500D02*
X13316500Y-9906500D01*
X13271500Y-9861500D01*
X13226500Y-9906500D01*
X13271500Y-9951500D01*
X13906500Y-9697500D02*
X13951500Y-9652500D01*
X13906500Y-9607500D01*
X13861500Y-9652500D01*
X13906500Y-9697500D01*
X13906500Y-9951500D02*
X13951500Y-9906500D01*
X13906500Y-9861500D01*
X13861500Y-9906500D01*
X13906500Y-9951500D01*
X13970000Y-4744500D02*
X14015000Y-4699500D01*
X13970000Y-4654500D01*
X13925000Y-4699500D01*
X13970000Y-4744500D01*
X13970000Y-4998500D02*
X14015000Y-4953500D01*
X13970000Y-4908500D01*
X13925000Y-4953500D01*
X13970000Y-4998500D01*
X14605000Y-4744000D02*
X14650000Y-4699000D01*
X14605000Y-4654000D01*
X14560000Y-4699000D01*
X14605000Y-4744000D01*
X14605000Y-4998000D02*
X14650000Y-4953000D01*
X14605000Y-4908000D01*
X14560000Y-4953000D01*
X14605000Y-4998000D01*
X15240000Y-4744500D02*
X15285000Y-4699500D01*
X15240000Y-4654500D01*
X15195000Y-4699500D01*
X15240000Y-4744500D01*
X15240000Y-4998500D02*
X15285000Y-4953500D01*
X15240000Y-4908500D01*
X15195000Y-4953500D01*
X15240000Y-4998500D01*
X16192500Y-9252500D02*
X16237500Y-9207500D01*
X16192500Y-9162500D01*
X16147500Y-9207500D01*
X16192500Y-9252500D01*
X16446500Y-9252500D02*
X16491500Y-9207500D01*
X16446500Y-9162500D01*
X16401500Y-9207500D01*
X16446500Y-9252500D01*
X16700500Y-9252500D02*
X16745500Y-9207500D01*
X16700500Y-9162500D01*
X16655500Y-9207500D01*
X16700500Y-9252500D01*
X18034000Y-4744500D02*
X18079000Y-4699500D01*
X18034000Y-4654500D01*
X17989000Y-4699500D01*
X18034000Y-4744500D01*
X18034000Y-4998500D02*
X18079000Y-4953500D01*
X18034000Y-4908500D01*
X17989000Y-4953500D01*
X18034000Y-4998500D01*
X18669000Y-4744500D02*
X18714000Y-4699500D01*
X18669000Y-4654500D01*
X18624000Y-4699500D01*
X18669000Y-4744500D01*
X18669000Y-4998500D02*
X18714000Y-4953500D01*
X18669000Y-4908500D01*
X18624000Y-4953500D01*
X18669000Y-4998500D01*
D17*
X10562500Y-9348000D02*
X10662500Y-9448000D01*
X10662500Y-9348000D02*
X10562500Y-9448000D01*
X10662500Y-9398000D02*
G75*
G03*
X10662500Y-9398000I-50000J0D01*
G01*
X11062500Y-9348000D02*
X11162500Y-9448000D01*
X11162500Y-9348000D02*
X11062500Y-9448000D01*
X11162500Y-9398000D02*
G75*
G03*
X11162500Y-9398000I-50000J0D01*
G01*
X11443500Y-5220500D02*
X11543500Y-5320500D01*
X11543500Y-5220500D02*
X11443500Y-5320500D01*
X11543500Y-5270500D02*
G75*
G03*
X11543500Y-5270500I-50000J0D01*
G01*
X11443500Y-5855500D02*
X11543500Y-5955500D01*
X11543500Y-5855500D02*
X11443500Y-5955500D01*
X11543500Y-5905500D02*
G75*
G03*
X11543500Y-5905500I-50000J0D01*
G01*
X11443500Y-6300000D02*
X11543500Y-6400000D01*
X11543500Y-6300000D02*
X11443500Y-6400000D01*
X11543500Y-6350000D02*
G75*
G03*
X11543500Y-6350000I-50000J0D01*
G01*
X11443500Y-6554000D02*
X11543500Y-6654000D01*
X11543500Y-6554000D02*
X11443500Y-6654000D01*
X11543500Y-6604000D02*
G75*
G03*
X11543500Y-6604000I-50000J0D01*
G01*
X11697500Y-5220500D02*
X11797500Y-5320500D01*
X11797500Y-5220500D02*
X11697500Y-5320500D01*
X11797500Y-5270500D02*
G75*
G03*
X11797500Y-5270500I-50000J0D01*
G01*
X11697500Y-5855500D02*
X11797500Y-5955500D01*
X11797500Y-5855500D02*
X11697500Y-5955500D01*
X11797500Y-5905500D02*
G75*
G03*
X11797500Y-5905500I-50000J0D01*
G01*
X11951500Y-5220500D02*
X12051500Y-5320500D01*
X12051500Y-5220500D02*
X11951500Y-5320500D01*
X12051500Y-5270500D02*
G75*
G03*
X12051500Y-5270500I-50000J0D01*
G01*
X11951500Y-5855500D02*
X12051500Y-5955500D01*
X12051500Y-5855500D02*
X11951500Y-5955500D01*
X12051500Y-5905500D02*
G75*
G03*
X12051500Y-5905500I-50000J0D01*
G01*
X14174000Y-6298500D02*
X14274000Y-6398500D01*
X14274000Y-6298500D02*
X14174000Y-6398500D01*
X14274000Y-6348500D02*
G75*
G03*
X14274000Y-6348500I-50000J0D01*
G01*
X14174000Y-6552500D02*
X14274000Y-6652500D01*
X14274000Y-6552500D02*
X14174000Y-6652500D01*
X14274000Y-6602500D02*
G75*
G03*
X14274000Y-6602500I-50000J0D01*
G01*
X14174000Y-6806500D02*
X14274000Y-6906500D01*
X14274000Y-6806500D02*
X14174000Y-6906500D01*
X14274000Y-6856500D02*
G75*
G03*
X14274000Y-6856500I-50000J0D01*
G01*
X14428000Y-6300000D02*
X14528000Y-6400000D01*
X14528000Y-6300000D02*
X14428000Y-6400000D01*
X14528000Y-6350000D02*
G75*
G03*
X14528000Y-6350000I-50000J0D01*
G01*
X14428000Y-6554000D02*
X14528000Y-6654000D01*
X14528000Y-6554000D02*
X14428000Y-6654000D01*
X14528000Y-6604000D02*
G75*
G03*
X14528000Y-6604000I-50000J0D01*
G01*
X14428000Y-6808000D02*
X14528000Y-6908000D01*
X14528000Y-6808000D02*
X14428000Y-6908000D01*
X14528000Y-6858000D02*
G75*
G03*
X14528000Y-6858000I-50000J0D01*
G01*
X14682000Y-6300000D02*
X14782000Y-6400000D01*
X14782000Y-6300000D02*
X14682000Y-6400000D01*
X14782000Y-6350000D02*
G75*
G03*
X14782000Y-6350000I-50000J0D01*
G01*
X14682000Y-6554000D02*
X14782000Y-6654000D01*
X14782000Y-6554000D02*
X14682000Y-6654000D01*
X14782000Y-6604000D02*
G75*
G03*
X14782000Y-6604000I-50000J0D01*
G01*
X14682000Y-6808000D02*
X14782000Y-6908000D01*
X14782000Y-6808000D02*
X14682000Y-6908000D01*
X14782000Y-6858000D02*
G75*
G03*
X14782000Y-6858000I-50000J0D01*
G01*
X14936000Y-6046000D02*
X15036000Y-6146000D01*
X15036000Y-6046000D02*
X14936000Y-6146000D01*
X15036000Y-6096000D02*
G75*
G03*
X15036000Y-6096000I-50000J0D01*
G01*
X14936000Y-6300000D02*
X15036000Y-6400000D01*
X15036000Y-6300000D02*
X14936000Y-6400000D01*
X15036000Y-6350000D02*
G75*
G03*
X15036000Y-6350000I-50000J0D01*
G01*
X14936000Y-6554000D02*
X15036000Y-6654000D01*
X15036000Y-6554000D02*
X14936000Y-6654000D01*
X15036000Y-6604000D02*
G75*
G03*
X15036000Y-6604000I-50000J0D01*
G01*
X17160000Y-5207800D02*
X17260000Y-5307800D01*
X17260000Y-5207800D02*
X17160000Y-5307800D01*
X17260000Y-5257800D02*
G75*
G03*
X17260000Y-5257800I-50000J0D01*
G01*
X17160000Y-5855500D02*
X17260000Y-5955500D01*
X17260000Y-5855500D02*
X17160000Y-5955500D01*
X17260000Y-5905500D02*
G75*
G03*
X17260000Y-5905500I-50000J0D01*
G01*
X17414000Y-5207800D02*
X17514000Y-5307800D01*
X17514000Y-5207800D02*
X17414000Y-5307800D01*
X17514000Y-5257800D02*
G75*
G03*
X17514000Y-5257800I-50000J0D01*
G01*
X17414000Y-5855500D02*
X17514000Y-5955500D01*
X17514000Y-5855500D02*
X17414000Y-5955500D01*
X17514000Y-5905500D02*
G75*
G03*
X17514000Y-5905500I-50000J0D01*
G01*
X17668000Y-5207800D02*
X17768000Y-5307800D01*
X17768000Y-5207800D02*
X17668000Y-5307800D01*
X17768000Y-5257800D02*
G75*
G03*
X17768000Y-5257800I-50000J0D01*
G01*
X17668000Y-5855500D02*
X17768000Y-5955500D01*
X17768000Y-5855500D02*
X17668000Y-5955500D01*
X17768000Y-5905500D02*
G75*
G03*
X17768000Y-5905500I-50000J0D01*
G01*
X18365000Y-8586000D02*
X18465000Y-8686000D01*
X18465000Y-8586000D02*
X18365000Y-8686000D01*
X18465000Y-8636000D02*
G75*
G03*
X18465000Y-8636000I-50000J0D01*
G01*
X18365000Y-8840000D02*
X18465000Y-8940000D01*
X18465000Y-8840000D02*
X18365000Y-8940000D01*
X18465000Y-8890000D02*
G75*
G03*
X18465000Y-8890000I-50000J0D01*
G01*
X18365000Y-9094000D02*
X18465000Y-9194000D01*
X18465000Y-9094000D02*
X18365000Y-9194000D01*
X18465000Y-9144000D02*
G75*
G03*
X18465000Y-9144000I-50000J0D01*
G01*
X18365000Y-9348000D02*
X18465000Y-9448000D01*
X18465000Y-9348000D02*
X18365000Y-9448000D01*
X18465000Y-9398000D02*
G75*
G03*
X18465000Y-9398000I-50000J0D01*
G01*
X18365000Y-9602000D02*
X18465000Y-9702000D01*
X18465000Y-9602000D02*
X18365000Y-9702000D01*
X18465000Y-9652000D02*
G75*
G03*
X18465000Y-9652000I-50000J0D01*
G01*
X18365000Y-9856000D02*
X18465000Y-9956000D01*
X18465000Y-9856000D02*
X18365000Y-9956000D01*
X18465000Y-9906000D02*
G75*
G03*
X18465000Y-9906000I-50000J0D01*
G01*
D18*
X10988500Y-7374500D02*
X11098500Y-7484500D01*
X11098500Y-7374500D02*
X10988500Y-7484500D01*
X11043500Y-7374500D02*
X11043500Y-7484500D01*
X10988500Y-7429500D02*
X11098500Y-7429500D01*
X10988500Y-8024500D02*
X11098500Y-8134500D01*
X11098500Y-8024500D02*
X10988500Y-8134500D01*
X11043500Y-8024500D02*
X11043500Y-8134500D01*
X10988500Y-8079500D02*
X11098500Y-8079500D01*
X11438500Y-7374500D02*
X11548500Y-7484500D01*
X11548500Y-7374500D02*
X11438500Y-7484500D01*
X11493500Y-7374500D02*
X11493500Y-7484500D01*
X11438500Y-7429500D02*
X11548500Y-7429500D01*
X11438500Y-8024500D02*
X11548500Y-8134500D01*
X11548500Y-8024500D02*
X11438500Y-8134500D01*
X11493500Y-8024500D02*
X11493500Y-8134500D01*
X11438500Y-8079500D02*
X11548500Y-8079500D01*
X12137000Y-10359000D02*
X12247000Y-10469000D01*
X12247000Y-10359000D02*
X12137000Y-10469000D01*
X12192000Y-10359000D02*
X12192000Y-10469000D01*
X12137000Y-10414000D02*
X12247000Y-10414000D01*
X12137000Y-10613000D02*
X12247000Y-10723000D01*
X12247000Y-10613000D02*
X12137000Y-10723000D01*
X12192000Y-10613000D02*
X12192000Y-10723000D01*
X12137000Y-10668000D02*
X12247000Y-10668000D01*
X12137000Y-10867000D02*
X12247000Y-10977000D01*
X12247000Y-10867000D02*
X12137000Y-10977000D01*
X12192000Y-10867000D02*
X12192000Y-10977000D01*
X12137000Y-10922000D02*
X12247000Y-10922000D01*
X16249500Y-7559500D02*
X16359500Y-7669500D01*
X16359500Y-7559500D02*
X16249500Y-7669500D01*
X16304500Y-7559500D02*
X16304500Y-7669500D01*
X16249500Y-7614500D02*
X16359500Y-7614500D01*
X16249500Y-8009500D02*
X16359500Y-8119500D01*
X16359500Y-8009500D02*
X16249500Y-8119500D01*
X16304500Y-8009500D02*
X16304500Y-8119500D01*
X16249500Y-8064500D02*
X16359500Y-8064500D01*
X16899500Y-7559500D02*
X17009500Y-7669500D01*
X17009500Y-7559500D02*
X16899500Y-7669500D01*
X16954500Y-7559500D02*
X16954500Y-7669500D01*
X16899500Y-7614500D02*
X17009500Y-7614500D01*
X16899500Y-8009500D02*
X17009500Y-8119500D01*
X17009500Y-8009500D02*
X16899500Y-8119500D01*
X16954500Y-8009500D02*
X16954500Y-8119500D01*
X16899500Y-8064500D02*
X17009500Y-8064500D01*
X17082500Y-6705000D02*
X17192500Y-6815000D01*
X17192500Y-6705000D02*
X17082500Y-6815000D01*
X17137500Y-6705000D02*
X17137500Y-6815000D01*
X17082500Y-6760000D02*
X17192500Y-6760000D01*
X17082500Y-7155000D02*
X17192500Y-7265000D01*
X17192500Y-7155000D02*
X17082500Y-7265000D01*
X17137500Y-7155000D02*
X17137500Y-7265000D01*
X17082500Y-7210000D02*
X17192500Y-7210000D01*
X17082500Y-8419500D02*
X17192500Y-8529500D01*
X17192500Y-8419500D02*
X17082500Y-8529500D01*
X17137500Y-8419500D02*
X17137500Y-8529500D01*
X17082500Y-8474500D02*
X17192500Y-8474500D01*
X17082500Y-8869500D02*
X17192500Y-8979500D01*
X17192500Y-8869500D02*
X17082500Y-8979500D01*
X17137500Y-8869500D02*
X17137500Y-8979500D01*
X17082500Y-8924500D02*
X17192500Y-8924500D01*
X17732500Y-6705000D02*
X17842500Y-6815000D01*
X17842500Y-6705000D02*
X17732500Y-6815000D01*
X17787500Y-6705000D02*
X17787500Y-6815000D01*
X17732500Y-6760000D02*
X17842500Y-6760000D01*
X17732500Y-7155000D02*
X17842500Y-7265000D01*
X17842500Y-7155000D02*
X17732500Y-7265000D01*
X17787500Y-7155000D02*
X17787500Y-7265000D01*
X17732500Y-7210000D02*
X17842500Y-7210000D01*
X17732500Y-8419500D02*
X17842500Y-8529500D01*
X17842500Y-8419500D02*
X17732500Y-8529500D01*
X17787500Y-8419500D02*
X17787500Y-8529500D01*
X17732500Y-8474500D02*
X17842500Y-8474500D01*
X17732500Y-8869500D02*
X17842500Y-8979500D01*
X17842500Y-8869500D02*
X17732500Y-8979500D01*
X17787500Y-8869500D02*
X17787500Y-8979500D01*
X17732500Y-8924500D02*
X17842500Y-8924500D01*
X17900500Y-7559500D02*
X18010500Y-7669500D01*
X18010500Y-7559500D02*
X17900500Y-7669500D01*
X17955500Y-7559500D02*
X17955500Y-7669500D01*
X17900500Y-7614500D02*
X18010500Y-7614500D01*
X17900500Y-8009500D02*
X18010500Y-8119500D01*
X18010500Y-8009500D02*
X17900500Y-8119500D01*
X17955500Y-8009500D02*
X17955500Y-8119500D01*
X17900500Y-8064500D02*
X18010500Y-8064500D01*
X18550500Y-7559500D02*
X18660500Y-7669500D01*
X18660500Y-7559500D02*
X18550500Y-7669500D01*
X18605500Y-7559500D02*
X18605500Y-7669500D01*
X18550500Y-7614500D02*
X18660500Y-7614500D01*
X18550500Y-8009500D02*
X18660500Y-8119500D01*
X18660500Y-8009500D02*
X18550500Y-8119500D01*
X18605500Y-8009500D02*
X18605500Y-8119500D01*
X18550500Y-8064500D02*
X18660500Y-8064500D01*
D19*
X10354000Y-6925000D02*
X10474000Y-7045000D01*
X10474000Y-6925000D02*
X10354000Y-7045000D01*
X10456427Y-7027427D02*
X10456427Y-6942573D01*
X10371573Y-6942573D01*
X10371573Y-7027427D01*
X10456427Y-7027427D01*
X11624000Y-6925000D02*
X11744000Y-7045000D01*
X11744000Y-6925000D02*
X11624000Y-7045000D01*
X11726427Y-7027427D02*
X11726427Y-6942573D01*
X11641573Y-6942573D01*
X11641573Y-7027427D01*
X11726427Y-7027427D01*
D20*
X13270000Y-11492001D02*
X13400000Y-11622001D01*
X13400000Y-11492001D02*
X13270000Y-11622001D01*
X13335000Y-11622001D02*
X13400000Y-11557001D01*
X13335000Y-11492001D01*
X13270000Y-11557001D01*
X13335000Y-11622001D01*
X13778000Y-11492001D02*
X13908000Y-11622001D01*
X13908000Y-11492001D02*
X13778000Y-11622001D01*
X13843000Y-11622001D02*
X13908000Y-11557001D01*
X13843000Y-11492001D01*
X13778000Y-11557001D01*
X13843000Y-11622001D01*
X14286000Y-11492001D02*
X14416000Y-11622001D01*
X14416000Y-11492001D02*
X14286000Y-11622001D01*
X14351000Y-11622001D02*
X14416000Y-11557001D01*
X14351000Y-11492001D01*
X14286000Y-11557001D01*
X14351000Y-11622001D01*
X14794000Y-11492001D02*
X14924000Y-11622001D01*
X14924000Y-11492001D02*
X14794000Y-11622001D01*
X14859000Y-11622001D02*
X14924000Y-11557001D01*
X14859000Y-11492001D01*
X14794000Y-11557001D01*
X14859000Y-11622001D01*
X15302000Y-11492001D02*
X15432000Y-11622001D01*
X15432000Y-11492001D02*
X15302000Y-11622001D01*
X15367000Y-11622001D02*
X15432000Y-11557001D01*
X15367000Y-11492001D01*
X15302000Y-11557001D01*
X15367000Y-11622001D01*
X15810000Y-11492001D02*
X15940000Y-11622001D01*
X15940000Y-11492001D02*
X15810000Y-11622001D01*
X15875000Y-11622001D02*
X15940000Y-11557001D01*
X15875000Y-11492001D01*
X15810000Y-11557001D01*
X15875000Y-11622001D01*
D21*
X10541000Y-5936000D02*
X10541000Y-6256000D01*
X10381000Y-6096000D02*
X10701000Y-6096000D01*
X10701000Y-6096000D02*
G75*
G03*
X10701000Y-6096000I-160000J0D01*
G01*
X10541000Y-11524000D02*
X10541000Y-11844000D01*
X10381000Y-11684000D02*
X10701000Y-11684000D01*
X10701000Y-11684000D02*
G75*
G03*
X10701000Y-11684000I-160000J0D01*
G01*
X13017500Y-4920000D02*
X13017500Y-5240000D01*
X12857500Y-5080000D02*
X13177500Y-5080000D01*
X13177500Y-5080000D02*
G75*
G03*
X13177500Y-5080000I-160000J0D01*
G01*
X16192500Y-4920000D02*
X16192500Y-5240000D01*
X16032500Y-5080000D02*
X16352500Y-5080000D01*
X16352500Y-5080000D02*
G75*
G03*
X16352500Y-5080000I-160000J0D01*
G01*
X18669000Y-5936000D02*
X18669000Y-6256000D01*
X18509000Y-6096000D02*
X18829000Y-6096000D01*
X18829000Y-6096000D02*
G75*
G03*
X18829000Y-6096000I-160000J0D01*
G01*
X18669000Y-11524000D02*
X18669000Y-11844000D01*
X18509000Y-11684000D02*
X18829000Y-11684000D01*
X18829000Y-11684000D02*
G75*
G03*
X18829000Y-11684000I-160000J0D01*
G01*
D22*
X10649745Y-10791745D02*
X10649745Y-10544255D01*
X10402255Y-10544255D01*
X10402255Y-10791745D01*
X10649745Y-10791745D01*
X10701000Y-10668000D02*
G75*
G03*
X10701000Y-10668000I-175000J0D01*
G01*
D11*
X10405079Y-12380064D02*
X10405079Y-12180064D01*
X10405079Y-12180064D02*
X10452698Y-12180064D01*
X10452698Y-12180064D02*
X10481270Y-12189588D01*
X10481270Y-12189588D02*
X10500317Y-12208635D01*
X10500317Y-12208635D02*
X10509841Y-12227683D01*
X10509841Y-12227683D02*
X10519365Y-12265778D01*
X10519365Y-12265778D02*
X10519365Y-12294349D01*
X10519365Y-12294349D02*
X10509841Y-12332445D01*
X10509841Y-12332445D02*
X10500317Y-12351492D01*
X10500317Y-12351492D02*
X10481270Y-12370540D01*
X10481270Y-12370540D02*
X10452698Y-12380064D01*
X10452698Y-12380064D02*
X10405079Y-12380064D01*
X10605079Y-12380064D02*
X10605079Y-12246730D01*
X10605079Y-12284826D02*
X10614603Y-12265778D01*
X10614603Y-12265778D02*
X10624127Y-12256254D01*
X10624127Y-12256254D02*
X10643174Y-12246730D01*
X10643174Y-12246730D02*
X10662222Y-12246730D01*
X10728889Y-12380064D02*
X10728889Y-12246730D01*
X10728889Y-12180064D02*
X10719365Y-12189588D01*
X10719365Y-12189588D02*
X10728889Y-12199111D01*
X10728889Y-12199111D02*
X10738412Y-12189588D01*
X10738412Y-12189588D02*
X10728889Y-12180064D01*
X10728889Y-12180064D02*
X10728889Y-12199111D01*
X10852698Y-12380064D02*
X10833650Y-12370540D01*
X10833650Y-12370540D02*
X10824127Y-12351492D01*
X10824127Y-12351492D02*
X10824127Y-12180064D01*
X10957460Y-12380064D02*
X10938412Y-12370540D01*
X10938412Y-12370540D02*
X10928889Y-12351492D01*
X10928889Y-12351492D02*
X10928889Y-12180064D01*
X11186031Y-12380064D02*
X11186031Y-12180064D01*
X11186031Y-12180064D02*
X11252698Y-12322921D01*
X11252698Y-12322921D02*
X11319365Y-12180064D01*
X11319365Y-12180064D02*
X11319365Y-12380064D01*
X11500317Y-12380064D02*
X11500317Y-12275302D01*
X11500317Y-12275302D02*
X11490793Y-12256254D01*
X11490793Y-12256254D02*
X11471746Y-12246730D01*
X11471746Y-12246730D02*
X11433650Y-12246730D01*
X11433650Y-12246730D02*
X11414603Y-12256254D01*
X11500317Y-12370540D02*
X11481269Y-12380064D01*
X11481269Y-12380064D02*
X11433650Y-12380064D01*
X11433650Y-12380064D02*
X11414603Y-12370540D01*
X11414603Y-12370540D02*
X11405079Y-12351492D01*
X11405079Y-12351492D02*
X11405079Y-12332445D01*
X11405079Y-12332445D02*
X11414603Y-12313397D01*
X11414603Y-12313397D02*
X11433650Y-12303873D01*
X11433650Y-12303873D02*
X11481269Y-12303873D01*
X11481269Y-12303873D02*
X11500317Y-12294349D01*
X11595555Y-12246730D02*
X11595555Y-12446730D01*
X11595555Y-12256254D02*
X11614603Y-12246730D01*
X11614603Y-12246730D02*
X11652698Y-12246730D01*
X11652698Y-12246730D02*
X11671746Y-12256254D01*
X11671746Y-12256254D02*
X11681269Y-12265778D01*
X11681269Y-12265778D02*
X11690793Y-12284826D01*
X11690793Y-12284826D02*
X11690793Y-12341968D01*
X11690793Y-12341968D02*
X11681269Y-12361016D01*
X11681269Y-12361016D02*
X11671746Y-12370540D01*
X11671746Y-12370540D02*
X11652698Y-12380064D01*
X11652698Y-12380064D02*
X11614603Y-12380064D01*
X11614603Y-12380064D02*
X11595555Y-12370540D01*
X11776508Y-12361016D02*
X11786031Y-12370540D01*
X11786031Y-12370540D02*
X11776508Y-12380064D01*
X11776508Y-12380064D02*
X11766984Y-12370540D01*
X11766984Y-12370540D02*
X11776508Y-12361016D01*
X11776508Y-12361016D02*
X11776508Y-12380064D01*
X11776508Y-12256254D02*
X11786031Y-12265778D01*
X11786031Y-12265778D02*
X11776508Y-12275302D01*
X11776508Y-12275302D02*
X11766984Y-12265778D01*
X11766984Y-12265778D02*
X11776508Y-12256254D01*
X11776508Y-12256254D02*
X11776508Y-12275302D01*
D12*
X10119360Y-12688490D02*
X10157460Y-12726590D01*
X10157460Y-12688490D02*
X10119360Y-12726590D01*
D11*
X10443174Y-12600064D02*
X10462222Y-12600064D01*
X10462222Y-12600064D02*
X10481270Y-12609588D01*
X10481270Y-12609588D02*
X10490793Y-12619111D01*
X10490793Y-12619111D02*
X10500317Y-12638159D01*
X10500317Y-12638159D02*
X10509841Y-12676254D01*
X10509841Y-12676254D02*
X10509841Y-12723873D01*
X10509841Y-12723873D02*
X10500317Y-12761968D01*
X10500317Y-12761968D02*
X10490793Y-12781016D01*
X10490793Y-12781016D02*
X10481270Y-12790540D01*
X10481270Y-12790540D02*
X10462222Y-12800064D01*
X10462222Y-12800064D02*
X10443174Y-12800064D01*
X10443174Y-12800064D02*
X10424127Y-12790540D01*
X10424127Y-12790540D02*
X10414603Y-12781016D01*
X10414603Y-12781016D02*
X10405079Y-12761968D01*
X10405079Y-12761968D02*
X10395555Y-12723873D01*
X10395555Y-12723873D02*
X10395555Y-12676254D01*
X10395555Y-12676254D02*
X10405079Y-12638159D01*
X10405079Y-12638159D02*
X10414603Y-12619111D01*
X10414603Y-12619111D02*
X10424127Y-12609588D01*
X10424127Y-12609588D02*
X10443174Y-12600064D01*
X10595555Y-12781016D02*
X10605079Y-12790540D01*
X10605079Y-12790540D02*
X10595555Y-12800064D01*
X10595555Y-12800064D02*
X10586031Y-12790540D01*
X10586031Y-12790540D02*
X10595555Y-12781016D01*
X10595555Y-12781016D02*
X10595555Y-12800064D01*
X10671746Y-12600064D02*
X10795555Y-12600064D01*
X10795555Y-12600064D02*
X10728889Y-12676254D01*
X10728889Y-12676254D02*
X10757460Y-12676254D01*
X10757460Y-12676254D02*
X10776508Y-12685778D01*
X10776508Y-12685778D02*
X10786031Y-12695302D01*
X10786031Y-12695302D02*
X10795555Y-12714349D01*
X10795555Y-12714349D02*
X10795555Y-12761968D01*
X10795555Y-12761968D02*
X10786031Y-12781016D01*
X10786031Y-12781016D02*
X10776508Y-12790540D01*
X10776508Y-12790540D02*
X10757460Y-12800064D01*
X10757460Y-12800064D02*
X10700317Y-12800064D01*
X10700317Y-12800064D02*
X10681270Y-12790540D01*
X10681270Y-12790540D02*
X10671746Y-12781016D01*
X10909841Y-12685778D02*
X10890793Y-12676254D01*
X10890793Y-12676254D02*
X10881270Y-12666730D01*
X10881270Y-12666730D02*
X10871746Y-12647683D01*
X10871746Y-12647683D02*
X10871746Y-12638159D01*
X10871746Y-12638159D02*
X10881270Y-12619111D01*
X10881270Y-12619111D02*
X10890793Y-12609588D01*
X10890793Y-12609588D02*
X10909841Y-12600064D01*
X10909841Y-12600064D02*
X10947936Y-12600064D01*
X10947936Y-12600064D02*
X10966984Y-12609588D01*
X10966984Y-12609588D02*
X10976508Y-12619111D01*
X10976508Y-12619111D02*
X10986031Y-12638159D01*
X10986031Y-12638159D02*
X10986031Y-12647683D01*
X10986031Y-12647683D02*
X10976508Y-12666730D01*
X10976508Y-12666730D02*
X10966984Y-12676254D01*
X10966984Y-12676254D02*
X10947936Y-12685778D01*
X10947936Y-12685778D02*
X10909841Y-12685778D01*
X10909841Y-12685778D02*
X10890793Y-12695302D01*
X10890793Y-12695302D02*
X10881270Y-12704826D01*
X10881270Y-12704826D02*
X10871746Y-12723873D01*
X10871746Y-12723873D02*
X10871746Y-12761968D01*
X10871746Y-12761968D02*
X10881270Y-12781016D01*
X10881270Y-12781016D02*
X10890793Y-12790540D01*
X10890793Y-12790540D02*
X10909841Y-12800064D01*
X10909841Y-12800064D02*
X10947936Y-12800064D01*
X10947936Y-12800064D02*
X10966984Y-12790540D01*
X10966984Y-12790540D02*
X10976508Y-12781016D01*
X10976508Y-12781016D02*
X10986031Y-12761968D01*
X10986031Y-12761968D02*
X10986031Y-12723873D01*
X10986031Y-12723873D02*
X10976508Y-12704826D01*
X10976508Y-12704826D02*
X10966984Y-12695302D01*
X10966984Y-12695302D02*
X10947936Y-12685778D01*
X11176508Y-12800064D02*
X11062222Y-12800064D01*
X11119365Y-12800064D02*
X11119365Y-12600064D01*
X11119365Y-12600064D02*
X11100317Y-12628635D01*
X11100317Y-12628635D02*
X11081270Y-12647683D01*
X11081270Y-12647683D02*
X11062222Y-12657207D01*
X11262222Y-12800064D02*
X11262222Y-12666730D01*
X11262222Y-12685778D02*
X11271746Y-12676254D01*
X11271746Y-12676254D02*
X11290793Y-12666730D01*
X11290793Y-12666730D02*
X11319365Y-12666730D01*
X11319365Y-12666730D02*
X11338412Y-12676254D01*
X11338412Y-12676254D02*
X11347936Y-12695302D01*
X11347936Y-12695302D02*
X11347936Y-12800064D01*
X11347936Y-12695302D02*
X11357460Y-12676254D01*
X11357460Y-12676254D02*
X11376508Y-12666730D01*
X11376508Y-12666730D02*
X11405079Y-12666730D01*
X11405079Y-12666730D02*
X11424127Y-12676254D01*
X11424127Y-12676254D02*
X11433650Y-12695302D01*
X11433650Y-12695302D02*
X11433650Y-12800064D01*
X11528889Y-12800064D02*
X11528889Y-12666730D01*
X11528889Y-12685778D02*
X11538412Y-12676254D01*
X11538412Y-12676254D02*
X11557460Y-12666730D01*
X11557460Y-12666730D02*
X11586031Y-12666730D01*
X11586031Y-12666730D02*
X11605079Y-12676254D01*
X11605079Y-12676254D02*
X11614603Y-12695302D01*
X11614603Y-12695302D02*
X11614603Y-12800064D01*
X11614603Y-12695302D02*
X11624127Y-12676254D01*
X11624127Y-12676254D02*
X11643174Y-12666730D01*
X11643174Y-12666730D02*
X11671746Y-12666730D01*
X11671746Y-12666730D02*
X11690793Y-12676254D01*
X11690793Y-12676254D02*
X11700317Y-12695302D01*
X11700317Y-12695302D02*
X11700317Y-12800064D01*
X12090793Y-12590540D02*
X11919365Y-12847683D01*
X12347936Y-12600064D02*
X12366984Y-12600064D01*
X12366984Y-12600064D02*
X12386032Y-12609588D01*
X12386032Y-12609588D02*
X12395555Y-12619111D01*
X12395555Y-12619111D02*
X12405079Y-12638159D01*
X12405079Y-12638159D02*
X12414603Y-12676254D01*
X12414603Y-12676254D02*
X12414603Y-12723873D01*
X12414603Y-12723873D02*
X12405079Y-12761968D01*
X12405079Y-12761968D02*
X12395555Y-12781016D01*
X12395555Y-12781016D02*
X12386032Y-12790540D01*
X12386032Y-12790540D02*
X12366984Y-12800064D01*
X12366984Y-12800064D02*
X12347936Y-12800064D01*
X12347936Y-12800064D02*
X12328889Y-12790540D01*
X12328889Y-12790540D02*
X12319365Y-12781016D01*
X12319365Y-12781016D02*
X12309841Y-12761968D01*
X12309841Y-12761968D02*
X12300317Y-12723873D01*
X12300317Y-12723873D02*
X12300317Y-12676254D01*
X12300317Y-12676254D02*
X12309841Y-12638159D01*
X12309841Y-12638159D02*
X12319365Y-12619111D01*
X12319365Y-12619111D02*
X12328889Y-12609588D01*
X12328889Y-12609588D02*
X12347936Y-12600064D01*
X12500317Y-12781016D02*
X12509841Y-12790540D01*
X12509841Y-12790540D02*
X12500317Y-12800064D01*
X12500317Y-12800064D02*
X12490793Y-12790540D01*
X12490793Y-12790540D02*
X12500317Y-12781016D01*
X12500317Y-12781016D02*
X12500317Y-12800064D01*
X12633651Y-12600064D02*
X12652698Y-12600064D01*
X12652698Y-12600064D02*
X12671746Y-12609588D01*
X12671746Y-12609588D02*
X12681270Y-12619111D01*
X12681270Y-12619111D02*
X12690793Y-12638159D01*
X12690793Y-12638159D02*
X12700317Y-12676254D01*
X12700317Y-12676254D02*
X12700317Y-12723873D01*
X12700317Y-12723873D02*
X12690793Y-12761968D01*
X12690793Y-12761968D02*
X12681270Y-12781016D01*
X12681270Y-12781016D02*
X12671746Y-12790540D01*
X12671746Y-12790540D02*
X12652698Y-12800064D01*
X12652698Y-12800064D02*
X12633651Y-12800064D01*
X12633651Y-12800064D02*
X12614603Y-12790540D01*
X12614603Y-12790540D02*
X12605079Y-12781016D01*
X12605079Y-12781016D02*
X12595555Y-12761968D01*
X12595555Y-12761968D02*
X12586032Y-12723873D01*
X12586032Y-12723873D02*
X12586032Y-12676254D01*
X12586032Y-12676254D02*
X12595555Y-12638159D01*
X12595555Y-12638159D02*
X12605079Y-12619111D01*
X12605079Y-12619111D02*
X12614603Y-12609588D01*
X12614603Y-12609588D02*
X12633651Y-12600064D01*
X12890793Y-12800064D02*
X12776508Y-12800064D01*
X12833651Y-12800064D02*
X12833651Y-12600064D01*
X12833651Y-12600064D02*
X12814603Y-12628635D01*
X12814603Y-12628635D02*
X12795555Y-12647683D01*
X12795555Y-12647683D02*
X12776508Y-12657207D01*
X13071746Y-12600064D02*
X12976508Y-12600064D01*
X12976508Y-12600064D02*
X12966984Y-12695302D01*
X12966984Y-12695302D02*
X12976508Y-12685778D01*
X12976508Y-12685778D02*
X12995555Y-12676254D01*
X12995555Y-12676254D02*
X13043174Y-12676254D01*
X13043174Y-12676254D02*
X13062222Y-12685778D01*
X13062222Y-12685778D02*
X13071746Y-12695302D01*
X13071746Y-12695302D02*
X13081270Y-12714349D01*
X13081270Y-12714349D02*
X13081270Y-12761968D01*
X13081270Y-12761968D02*
X13071746Y-12781016D01*
X13071746Y-12781016D02*
X13062222Y-12790540D01*
X13062222Y-12790540D02*
X13043174Y-12800064D01*
X13043174Y-12800064D02*
X12995555Y-12800064D01*
X12995555Y-12800064D02*
X12976508Y-12790540D01*
X12976508Y-12790540D02*
X12966984Y-12781016D01*
X13205079Y-12600064D02*
X13224127Y-12600064D01*
X13224127Y-12600064D02*
X13243174Y-12609588D01*
X13243174Y-12609588D02*
X13252698Y-12619111D01*
X13252698Y-12619111D02*
X13262222Y-12638159D01*
X13262222Y-12638159D02*
X13271746Y-12676254D01*
X13271746Y-12676254D02*
X13271746Y-12723873D01*
X13271746Y-12723873D02*
X13262222Y-12761968D01*
X13262222Y-12761968D02*
X13252698Y-12781016D01*
X13252698Y-12781016D02*
X13243174Y-12790540D01*
X13243174Y-12790540D02*
X13224127Y-12800064D01*
X13224127Y-12800064D02*
X13205079Y-12800064D01*
X13205079Y-12800064D02*
X13186032Y-12790540D01*
X13186032Y-12790540D02*
X13176508Y-12781016D01*
X13176508Y-12781016D02*
X13166984Y-12761968D01*
X13166984Y-12761968D02*
X13157460Y-12723873D01*
X13157460Y-12723873D02*
X13157460Y-12676254D01*
X13157460Y-12676254D02*
X13166984Y-12638159D01*
X13166984Y-12638159D02*
X13176508Y-12619111D01*
X13176508Y-12619111D02*
X13186032Y-12609588D01*
X13186032Y-12609588D02*
X13205079Y-12600064D01*
X13347936Y-12600064D02*
X13347936Y-12638159D01*
X13424127Y-12600064D02*
X13424127Y-12638159D01*
X13719365Y-12876254D02*
X13709841Y-12866730D01*
X13709841Y-12866730D02*
X13690794Y-12838159D01*
X13690794Y-12838159D02*
X13681270Y-12819111D01*
X13681270Y-12819111D02*
X13671746Y-12790540D01*
X13671746Y-12790540D02*
X13662222Y-12742921D01*
X13662222Y-12742921D02*
X13662222Y-12704826D01*
X13662222Y-12704826D02*
X13671746Y-12657207D01*
X13671746Y-12657207D02*
X13681270Y-12628635D01*
X13681270Y-12628635D02*
X13690794Y-12609588D01*
X13690794Y-12609588D02*
X13709841Y-12581016D01*
X13709841Y-12581016D02*
X13719365Y-12571492D01*
X13900317Y-12800064D02*
X13786032Y-12800064D01*
X13843174Y-12800064D02*
X13843174Y-12600064D01*
X13843174Y-12600064D02*
X13824127Y-12628635D01*
X13824127Y-12628635D02*
X13805079Y-12647683D01*
X13805079Y-12647683D02*
X13786032Y-12657207D01*
X14090794Y-12800064D02*
X13976508Y-12800064D01*
X14033651Y-12800064D02*
X14033651Y-12600064D01*
X14033651Y-12600064D02*
X14014603Y-12628635D01*
X14014603Y-12628635D02*
X13995555Y-12647683D01*
X13995555Y-12647683D02*
X13976508Y-12657207D01*
X14328889Y-12800064D02*
X14328889Y-12600064D01*
X14414603Y-12800064D02*
X14414603Y-12695302D01*
X14414603Y-12695302D02*
X14405079Y-12676254D01*
X14405079Y-12676254D02*
X14386032Y-12666730D01*
X14386032Y-12666730D02*
X14357460Y-12666730D01*
X14357460Y-12666730D02*
X14338413Y-12676254D01*
X14338413Y-12676254D02*
X14328889Y-12685778D01*
X14538413Y-12800064D02*
X14519365Y-12790540D01*
X14519365Y-12790540D02*
X14509841Y-12781016D01*
X14509841Y-12781016D02*
X14500317Y-12761968D01*
X14500317Y-12761968D02*
X14500317Y-12704826D01*
X14500317Y-12704826D02*
X14509841Y-12685778D01*
X14509841Y-12685778D02*
X14519365Y-12676254D01*
X14519365Y-12676254D02*
X14538413Y-12666730D01*
X14538413Y-12666730D02*
X14566984Y-12666730D01*
X14566984Y-12666730D02*
X14586032Y-12676254D01*
X14586032Y-12676254D02*
X14595556Y-12685778D01*
X14595556Y-12685778D02*
X14605079Y-12704826D01*
X14605079Y-12704826D02*
X14605079Y-12761968D01*
X14605079Y-12761968D02*
X14595556Y-12781016D01*
X14595556Y-12781016D02*
X14586032Y-12790540D01*
X14586032Y-12790540D02*
X14566984Y-12800064D01*
X14566984Y-12800064D02*
X14538413Y-12800064D01*
X14719365Y-12800064D02*
X14700317Y-12790540D01*
X14700317Y-12790540D02*
X14690794Y-12771492D01*
X14690794Y-12771492D02*
X14690794Y-12600064D01*
X14871746Y-12790540D02*
X14852698Y-12800064D01*
X14852698Y-12800064D02*
X14814603Y-12800064D01*
X14814603Y-12800064D02*
X14795556Y-12790540D01*
X14795556Y-12790540D02*
X14786032Y-12771492D01*
X14786032Y-12771492D02*
X14786032Y-12695302D01*
X14786032Y-12695302D02*
X14795556Y-12676254D01*
X14795556Y-12676254D02*
X14814603Y-12666730D01*
X14814603Y-12666730D02*
X14852698Y-12666730D01*
X14852698Y-12666730D02*
X14871746Y-12676254D01*
X14871746Y-12676254D02*
X14881270Y-12695302D01*
X14881270Y-12695302D02*
X14881270Y-12714349D01*
X14881270Y-12714349D02*
X14786032Y-12733397D01*
X14957460Y-12790540D02*
X14976508Y-12800064D01*
X14976508Y-12800064D02*
X15014603Y-12800064D01*
X15014603Y-12800064D02*
X15033651Y-12790540D01*
X15033651Y-12790540D02*
X15043175Y-12771492D01*
X15043175Y-12771492D02*
X15043175Y-12761968D01*
X15043175Y-12761968D02*
X15033651Y-12742921D01*
X15033651Y-12742921D02*
X15014603Y-12733397D01*
X15014603Y-12733397D02*
X14986032Y-12733397D01*
X14986032Y-12733397D02*
X14966984Y-12723873D01*
X14966984Y-12723873D02*
X14957460Y-12704826D01*
X14957460Y-12704826D02*
X14957460Y-12695302D01*
X14957460Y-12695302D02*
X14966984Y-12676254D01*
X14966984Y-12676254D02*
X14986032Y-12666730D01*
X14986032Y-12666730D02*
X15014603Y-12666730D01*
X15014603Y-12666730D02*
X15033651Y-12676254D01*
X15109841Y-12876254D02*
X15119365Y-12866730D01*
X15119365Y-12866730D02*
X15138413Y-12838159D01*
X15138413Y-12838159D02*
X15147937Y-12819111D01*
X15147937Y-12819111D02*
X15157460Y-12790540D01*
X15157460Y-12790540D02*
X15166984Y-12742921D01*
X15166984Y-12742921D02*
X15166984Y-12704826D01*
X15166984Y-12704826D02*
X15157460Y-12657207D01*
X15157460Y-12657207D02*
X15147937Y-12628635D01*
X15147937Y-12628635D02*
X15138413Y-12609588D01*
X15138413Y-12609588D02*
X15119365Y-12581016D01*
X15119365Y-12581016D02*
X15109841Y-12571492D01*
D13*
X10157460Y-12971540D02*
G75*
G03*
X10157460Y-12971540I-20000J0D01*
G01*
D11*
X10443174Y-12864064D02*
X10462222Y-12864064D01*
X10462222Y-12864064D02*
X10481270Y-12873588D01*
X10481270Y-12873588D02*
X10490793Y-12883111D01*
X10490793Y-12883111D02*
X10500317Y-12902159D01*
X10500317Y-12902159D02*
X10509841Y-12940254D01*
X10509841Y-12940254D02*
X10509841Y-12987873D01*
X10509841Y-12987873D02*
X10500317Y-13025968D01*
X10500317Y-13025968D02*
X10490793Y-13045016D01*
X10490793Y-13045016D02*
X10481270Y-13054540D01*
X10481270Y-13054540D02*
X10462222Y-13064064D01*
X10462222Y-13064064D02*
X10443174Y-13064064D01*
X10443174Y-13064064D02*
X10424127Y-13054540D01*
X10424127Y-13054540D02*
X10414603Y-13045016D01*
X10414603Y-13045016D02*
X10405079Y-13025968D01*
X10405079Y-13025968D02*
X10395555Y-12987873D01*
X10395555Y-12987873D02*
X10395555Y-12940254D01*
X10395555Y-12940254D02*
X10405079Y-12902159D01*
X10405079Y-12902159D02*
X10414603Y-12883111D01*
X10414603Y-12883111D02*
X10424127Y-12873588D01*
X10424127Y-12873588D02*
X10443174Y-12864064D01*
X10595555Y-13045016D02*
X10605079Y-13054540D01*
X10605079Y-13054540D02*
X10595555Y-13064064D01*
X10595555Y-13064064D02*
X10586031Y-13054540D01*
X10586031Y-13054540D02*
X10595555Y-13045016D01*
X10595555Y-13045016D02*
X10595555Y-13064064D01*
X10776508Y-12930730D02*
X10776508Y-13064064D01*
X10728889Y-12854540D02*
X10681270Y-12997397D01*
X10681270Y-12997397D02*
X10805079Y-12997397D01*
X10919365Y-12864064D02*
X10938412Y-12864064D01*
X10938412Y-12864064D02*
X10957460Y-12873588D01*
X10957460Y-12873588D02*
X10966984Y-12883111D01*
X10966984Y-12883111D02*
X10976508Y-12902159D01*
X10976508Y-12902159D02*
X10986031Y-12940254D01*
X10986031Y-12940254D02*
X10986031Y-12987873D01*
X10986031Y-12987873D02*
X10976508Y-13025968D01*
X10976508Y-13025968D02*
X10966984Y-13045016D01*
X10966984Y-13045016D02*
X10957460Y-13054540D01*
X10957460Y-13054540D02*
X10938412Y-13064064D01*
X10938412Y-13064064D02*
X10919365Y-13064064D01*
X10919365Y-13064064D02*
X10900317Y-13054540D01*
X10900317Y-13054540D02*
X10890793Y-13045016D01*
X10890793Y-13045016D02*
X10881270Y-13025968D01*
X10881270Y-13025968D02*
X10871746Y-12987873D01*
X10871746Y-12987873D02*
X10871746Y-12940254D01*
X10871746Y-12940254D02*
X10881270Y-12902159D01*
X10881270Y-12902159D02*
X10890793Y-12883111D01*
X10890793Y-12883111D02*
X10900317Y-12873588D01*
X10900317Y-12873588D02*
X10919365Y-12864064D01*
X11109841Y-12864064D02*
X11128889Y-12864064D01*
X11128889Y-12864064D02*
X11147936Y-12873588D01*
X11147936Y-12873588D02*
X11157460Y-12883111D01*
X11157460Y-12883111D02*
X11166984Y-12902159D01*
X11166984Y-12902159D02*
X11176508Y-12940254D01*
X11176508Y-12940254D02*
X11176508Y-12987873D01*
X11176508Y-12987873D02*
X11166984Y-13025968D01*
X11166984Y-13025968D02*
X11157460Y-13045016D01*
X11157460Y-13045016D02*
X11147936Y-13054540D01*
X11147936Y-13054540D02*
X11128889Y-13064064D01*
X11128889Y-13064064D02*
X11109841Y-13064064D01*
X11109841Y-13064064D02*
X11090793Y-13054540D01*
X11090793Y-13054540D02*
X11081270Y-13045016D01*
X11081270Y-13045016D02*
X11071746Y-13025968D01*
X11071746Y-13025968D02*
X11062222Y-12987873D01*
X11062222Y-12987873D02*
X11062222Y-12940254D01*
X11062222Y-12940254D02*
X11071746Y-12902159D01*
X11071746Y-12902159D02*
X11081270Y-12883111D01*
X11081270Y-12883111D02*
X11090793Y-12873588D01*
X11090793Y-12873588D02*
X11109841Y-12864064D01*
X11262222Y-13064064D02*
X11262222Y-12930730D01*
X11262222Y-12949778D02*
X11271746Y-12940254D01*
X11271746Y-12940254D02*
X11290793Y-12930730D01*
X11290793Y-12930730D02*
X11319365Y-12930730D01*
X11319365Y-12930730D02*
X11338412Y-12940254D01*
X11338412Y-12940254D02*
X11347936Y-12959302D01*
X11347936Y-12959302D02*
X11347936Y-13064064D01*
X11347936Y-12959302D02*
X11357460Y-12940254D01*
X11357460Y-12940254D02*
X11376508Y-12930730D01*
X11376508Y-12930730D02*
X11405079Y-12930730D01*
X11405079Y-12930730D02*
X11424127Y-12940254D01*
X11424127Y-12940254D02*
X11433650Y-12959302D01*
X11433650Y-12959302D02*
X11433650Y-13064064D01*
X11528889Y-13064064D02*
X11528889Y-12930730D01*
X11528889Y-12949778D02*
X11538412Y-12940254D01*
X11538412Y-12940254D02*
X11557460Y-12930730D01*
X11557460Y-12930730D02*
X11586031Y-12930730D01*
X11586031Y-12930730D02*
X11605079Y-12940254D01*
X11605079Y-12940254D02*
X11614603Y-12959302D01*
X11614603Y-12959302D02*
X11614603Y-13064064D01*
X11614603Y-12959302D02*
X11624127Y-12940254D01*
X11624127Y-12940254D02*
X11643174Y-12930730D01*
X11643174Y-12930730D02*
X11671746Y-12930730D01*
X11671746Y-12930730D02*
X11690793Y-12940254D01*
X11690793Y-12940254D02*
X11700317Y-12959302D01*
X11700317Y-12959302D02*
X11700317Y-13064064D01*
X12090793Y-12854540D02*
X11919365Y-13111683D01*
X12347936Y-12864064D02*
X12366984Y-12864064D01*
X12366984Y-12864064D02*
X12386032Y-12873588D01*
X12386032Y-12873588D02*
X12395555Y-12883111D01*
X12395555Y-12883111D02*
X12405079Y-12902159D01*
X12405079Y-12902159D02*
X12414603Y-12940254D01*
X12414603Y-12940254D02*
X12414603Y-12987873D01*
X12414603Y-12987873D02*
X12405079Y-13025968D01*
X12405079Y-13025968D02*
X12395555Y-13045016D01*
X12395555Y-13045016D02*
X12386032Y-13054540D01*
X12386032Y-13054540D02*
X12366984Y-13064064D01*
X12366984Y-13064064D02*
X12347936Y-13064064D01*
X12347936Y-13064064D02*
X12328889Y-13054540D01*
X12328889Y-13054540D02*
X12319365Y-13045016D01*
X12319365Y-13045016D02*
X12309841Y-13025968D01*
X12309841Y-13025968D02*
X12300317Y-12987873D01*
X12300317Y-12987873D02*
X12300317Y-12940254D01*
X12300317Y-12940254D02*
X12309841Y-12902159D01*
X12309841Y-12902159D02*
X12319365Y-12883111D01*
X12319365Y-12883111D02*
X12328889Y-12873588D01*
X12328889Y-12873588D02*
X12347936Y-12864064D01*
X12500317Y-13045016D02*
X12509841Y-13054540D01*
X12509841Y-13054540D02*
X12500317Y-13064064D01*
X12500317Y-13064064D02*
X12490793Y-13054540D01*
X12490793Y-13054540D02*
X12500317Y-13045016D01*
X12500317Y-13045016D02*
X12500317Y-13064064D01*
X12633651Y-12864064D02*
X12652698Y-12864064D01*
X12652698Y-12864064D02*
X12671746Y-12873588D01*
X12671746Y-12873588D02*
X12681270Y-12883111D01*
X12681270Y-12883111D02*
X12690793Y-12902159D01*
X12690793Y-12902159D02*
X12700317Y-12940254D01*
X12700317Y-12940254D02*
X12700317Y-12987873D01*
X12700317Y-12987873D02*
X12690793Y-13025968D01*
X12690793Y-13025968D02*
X12681270Y-13045016D01*
X12681270Y-13045016D02*
X12671746Y-13054540D01*
X12671746Y-13054540D02*
X12652698Y-13064064D01*
X12652698Y-13064064D02*
X12633651Y-13064064D01*
X12633651Y-13064064D02*
X12614603Y-13054540D01*
X12614603Y-13054540D02*
X12605079Y-13045016D01*
X12605079Y-13045016D02*
X12595555Y-13025968D01*
X12595555Y-13025968D02*
X12586032Y-12987873D01*
X12586032Y-12987873D02*
X12586032Y-12940254D01*
X12586032Y-12940254D02*
X12595555Y-12902159D01*
X12595555Y-12902159D02*
X12605079Y-12883111D01*
X12605079Y-12883111D02*
X12614603Y-12873588D01*
X12614603Y-12873588D02*
X12633651Y-12864064D01*
X12890793Y-13064064D02*
X12776508Y-13064064D01*
X12833651Y-13064064D02*
X12833651Y-12864064D01*
X12833651Y-12864064D02*
X12814603Y-12892635D01*
X12814603Y-12892635D02*
X12795555Y-12911683D01*
X12795555Y-12911683D02*
X12776508Y-12921207D01*
X13071746Y-12864064D02*
X12976508Y-12864064D01*
X12976508Y-12864064D02*
X12966984Y-12959302D01*
X12966984Y-12959302D02*
X12976508Y-12949778D01*
X12976508Y-12949778D02*
X12995555Y-12940254D01*
X12995555Y-12940254D02*
X13043174Y-12940254D01*
X13043174Y-12940254D02*
X13062222Y-12949778D01*
X13062222Y-12949778D02*
X13071746Y-12959302D01*
X13071746Y-12959302D02*
X13081270Y-12978349D01*
X13081270Y-12978349D02*
X13081270Y-13025968D01*
X13081270Y-13025968D02*
X13071746Y-13045016D01*
X13071746Y-13045016D02*
X13062222Y-13054540D01*
X13062222Y-13054540D02*
X13043174Y-13064064D01*
X13043174Y-13064064D02*
X12995555Y-13064064D01*
X12995555Y-13064064D02*
X12976508Y-13054540D01*
X12976508Y-13054540D02*
X12966984Y-13045016D01*
X13147936Y-12864064D02*
X13281270Y-12864064D01*
X13281270Y-12864064D02*
X13195555Y-13064064D01*
X13347936Y-12864064D02*
X13347936Y-12902159D01*
X13424127Y-12864064D02*
X13424127Y-12902159D01*
X13719365Y-13140254D02*
X13709841Y-13130730D01*
X13709841Y-13130730D02*
X13690794Y-13102159D01*
X13690794Y-13102159D02*
X13681270Y-13083111D01*
X13681270Y-13083111D02*
X13671746Y-13054540D01*
X13671746Y-13054540D02*
X13662222Y-13006921D01*
X13662222Y-13006921D02*
X13662222Y-12968826D01*
X13662222Y-12968826D02*
X13671746Y-12921207D01*
X13671746Y-12921207D02*
X13681270Y-12892635D01*
X13681270Y-12892635D02*
X13690794Y-12873588D01*
X13690794Y-12873588D02*
X13709841Y-12845016D01*
X13709841Y-12845016D02*
X13719365Y-12835492D01*
X13900317Y-13064064D02*
X13786032Y-13064064D01*
X13843174Y-13064064D02*
X13843174Y-12864064D01*
X13843174Y-12864064D02*
X13824127Y-12892635D01*
X13824127Y-12892635D02*
X13805079Y-12911683D01*
X13805079Y-12911683D02*
X13786032Y-12921207D01*
X14071746Y-12864064D02*
X14033651Y-12864064D01*
X14033651Y-12864064D02*
X14014603Y-12873588D01*
X14014603Y-12873588D02*
X14005079Y-12883111D01*
X14005079Y-12883111D02*
X13986032Y-12911683D01*
X13986032Y-12911683D02*
X13976508Y-12949778D01*
X13976508Y-12949778D02*
X13976508Y-13025968D01*
X13976508Y-13025968D02*
X13986032Y-13045016D01*
X13986032Y-13045016D02*
X13995555Y-13054540D01*
X13995555Y-13054540D02*
X14014603Y-13064064D01*
X14014603Y-13064064D02*
X14052698Y-13064064D01*
X14052698Y-13064064D02*
X14071746Y-13054540D01*
X14071746Y-13054540D02*
X14081270Y-13045016D01*
X14081270Y-13045016D02*
X14090794Y-13025968D01*
X14090794Y-13025968D02*
X14090794Y-12978349D01*
X14090794Y-12978349D02*
X14081270Y-12959302D01*
X14081270Y-12959302D02*
X14071746Y-12949778D01*
X14071746Y-12949778D02*
X14052698Y-12940254D01*
X14052698Y-12940254D02*
X14014603Y-12940254D01*
X14014603Y-12940254D02*
X13995555Y-12949778D01*
X13995555Y-12949778D02*
X13986032Y-12959302D01*
X13986032Y-12959302D02*
X13976508Y-12978349D01*
X14328889Y-13064064D02*
X14328889Y-12864064D01*
X14414603Y-13064064D02*
X14414603Y-12959302D01*
X14414603Y-12959302D02*
X14405079Y-12940254D01*
X14405079Y-12940254D02*
X14386032Y-12930730D01*
X14386032Y-12930730D02*
X14357460Y-12930730D01*
X14357460Y-12930730D02*
X14338413Y-12940254D01*
X14338413Y-12940254D02*
X14328889Y-12949778D01*
X14538413Y-13064064D02*
X14519365Y-13054540D01*
X14519365Y-13054540D02*
X14509841Y-13045016D01*
X14509841Y-13045016D02*
X14500317Y-13025968D01*
X14500317Y-13025968D02*
X14500317Y-12968826D01*
X14500317Y-12968826D02*
X14509841Y-12949778D01*
X14509841Y-12949778D02*
X14519365Y-12940254D01*
X14519365Y-12940254D02*
X14538413Y-12930730D01*
X14538413Y-12930730D02*
X14566984Y-12930730D01*
X14566984Y-12930730D02*
X14586032Y-12940254D01*
X14586032Y-12940254D02*
X14595556Y-12949778D01*
X14595556Y-12949778D02*
X14605079Y-12968826D01*
X14605079Y-12968826D02*
X14605079Y-13025968D01*
X14605079Y-13025968D02*
X14595556Y-13045016D01*
X14595556Y-13045016D02*
X14586032Y-13054540D01*
X14586032Y-13054540D02*
X14566984Y-13064064D01*
X14566984Y-13064064D02*
X14538413Y-13064064D01*
X14719365Y-13064064D02*
X14700317Y-13054540D01*
X14700317Y-13054540D02*
X14690794Y-13035492D01*
X14690794Y-13035492D02*
X14690794Y-12864064D01*
X14871746Y-13054540D02*
X14852698Y-13064064D01*
X14852698Y-13064064D02*
X14814603Y-13064064D01*
X14814603Y-13064064D02*
X14795556Y-13054540D01*
X14795556Y-13054540D02*
X14786032Y-13035492D01*
X14786032Y-13035492D02*
X14786032Y-12959302D01*
X14786032Y-12959302D02*
X14795556Y-12940254D01*
X14795556Y-12940254D02*
X14814603Y-12930730D01*
X14814603Y-12930730D02*
X14852698Y-12930730D01*
X14852698Y-12930730D02*
X14871746Y-12940254D01*
X14871746Y-12940254D02*
X14881270Y-12959302D01*
X14881270Y-12959302D02*
X14881270Y-12978349D01*
X14881270Y-12978349D02*
X14786032Y-12997397D01*
X14957460Y-13054540D02*
X14976508Y-13064064D01*
X14976508Y-13064064D02*
X15014603Y-13064064D01*
X15014603Y-13064064D02*
X15033651Y-13054540D01*
X15033651Y-13054540D02*
X15043175Y-13035492D01*
X15043175Y-13035492D02*
X15043175Y-13025968D01*
X15043175Y-13025968D02*
X15033651Y-13006921D01*
X15033651Y-13006921D02*
X15014603Y-12997397D01*
X15014603Y-12997397D02*
X14986032Y-12997397D01*
X14986032Y-12997397D02*
X14966984Y-12987873D01*
X14966984Y-12987873D02*
X14957460Y-12968826D01*
X14957460Y-12968826D02*
X14957460Y-12959302D01*
X14957460Y-12959302D02*
X14966984Y-12940254D01*
X14966984Y-12940254D02*
X14986032Y-12930730D01*
X14986032Y-12930730D02*
X15014603Y-12930730D01*
X15014603Y-12930730D02*
X15033651Y-12940254D01*
X15109841Y-13140254D02*
X15119365Y-13130730D01*
X15119365Y-13130730D02*
X15138413Y-13102159D01*
X15138413Y-13102159D02*
X15147937Y-13083111D01*
X15147937Y-13083111D02*
X15157460Y-13054540D01*
X15157460Y-13054540D02*
X15166984Y-13006921D01*
X15166984Y-13006921D02*
X15166984Y-12968826D01*
X15166984Y-12968826D02*
X15157460Y-12921207D01*
X15157460Y-12921207D02*
X15147937Y-12892635D01*
X15147937Y-12892635D02*
X15138413Y-12873588D01*
X15138413Y-12873588D02*
X15119365Y-12845016D01*
X15119365Y-12845016D02*
X15109841Y-12835492D01*
D14*
X10127460Y-13205540D02*
X10127460Y-13265540D01*
X10097460Y-13235540D02*
X10157460Y-13235540D01*
D11*
X10443174Y-13128064D02*
X10462222Y-13128064D01*
X10462222Y-13128064D02*
X10481270Y-13137588D01*
X10481270Y-13137588D02*
X10490793Y-13147111D01*
X10490793Y-13147111D02*
X10500317Y-13166159D01*
X10500317Y-13166159D02*
X10509841Y-13204254D01*
X10509841Y-13204254D02*
X10509841Y-13251873D01*
X10509841Y-13251873D02*
X10500317Y-13289968D01*
X10500317Y-13289968D02*
X10490793Y-13309016D01*
X10490793Y-13309016D02*
X10481270Y-13318540D01*
X10481270Y-13318540D02*
X10462222Y-13328064D01*
X10462222Y-13328064D02*
X10443174Y-13328064D01*
X10443174Y-13328064D02*
X10424127Y-13318540D01*
X10424127Y-13318540D02*
X10414603Y-13309016D01*
X10414603Y-13309016D02*
X10405079Y-13289968D01*
X10405079Y-13289968D02*
X10395555Y-13251873D01*
X10395555Y-13251873D02*
X10395555Y-13204254D01*
X10395555Y-13204254D02*
X10405079Y-13166159D01*
X10405079Y-13166159D02*
X10414603Y-13147111D01*
X10414603Y-13147111D02*
X10424127Y-13137588D01*
X10424127Y-13137588D02*
X10443174Y-13128064D01*
X10595555Y-13309016D02*
X10605079Y-13318540D01*
X10605079Y-13318540D02*
X10595555Y-13328064D01*
X10595555Y-13328064D02*
X10586031Y-13318540D01*
X10586031Y-13318540D02*
X10595555Y-13309016D01*
X10595555Y-13309016D02*
X10595555Y-13328064D01*
X10776508Y-13128064D02*
X10738412Y-13128064D01*
X10738412Y-13128064D02*
X10719365Y-13137588D01*
X10719365Y-13137588D02*
X10709841Y-13147111D01*
X10709841Y-13147111D02*
X10690793Y-13175683D01*
X10690793Y-13175683D02*
X10681270Y-13213778D01*
X10681270Y-13213778D02*
X10681270Y-13289968D01*
X10681270Y-13289968D02*
X10690793Y-13309016D01*
X10690793Y-13309016D02*
X10700317Y-13318540D01*
X10700317Y-13318540D02*
X10719365Y-13328064D01*
X10719365Y-13328064D02*
X10757460Y-13328064D01*
X10757460Y-13328064D02*
X10776508Y-13318540D01*
X10776508Y-13318540D02*
X10786031Y-13309016D01*
X10786031Y-13309016D02*
X10795555Y-13289968D01*
X10795555Y-13289968D02*
X10795555Y-13242349D01*
X10795555Y-13242349D02*
X10786031Y-13223302D01*
X10786031Y-13223302D02*
X10776508Y-13213778D01*
X10776508Y-13213778D02*
X10757460Y-13204254D01*
X10757460Y-13204254D02*
X10719365Y-13204254D01*
X10719365Y-13204254D02*
X10700317Y-13213778D01*
X10700317Y-13213778D02*
X10690793Y-13223302D01*
X10690793Y-13223302D02*
X10681270Y-13242349D01*
X10919365Y-13128064D02*
X10938412Y-13128064D01*
X10938412Y-13128064D02*
X10957460Y-13137588D01*
X10957460Y-13137588D02*
X10966984Y-13147111D01*
X10966984Y-13147111D02*
X10976508Y-13166159D01*
X10976508Y-13166159D02*
X10986031Y-13204254D01*
X10986031Y-13204254D02*
X10986031Y-13251873D01*
X10986031Y-13251873D02*
X10976508Y-13289968D01*
X10976508Y-13289968D02*
X10966984Y-13309016D01*
X10966984Y-13309016D02*
X10957460Y-13318540D01*
X10957460Y-13318540D02*
X10938412Y-13328064D01*
X10938412Y-13328064D02*
X10919365Y-13328064D01*
X10919365Y-13328064D02*
X10900317Y-13318540D01*
X10900317Y-13318540D02*
X10890793Y-13309016D01*
X10890793Y-13309016D02*
X10881270Y-13289968D01*
X10881270Y-13289968D02*
X10871746Y-13251873D01*
X10871746Y-13251873D02*
X10871746Y-13204254D01*
X10871746Y-13204254D02*
X10881270Y-13166159D01*
X10881270Y-13166159D02*
X10890793Y-13147111D01*
X10890793Y-13147111D02*
X10900317Y-13137588D01*
X10900317Y-13137588D02*
X10919365Y-13128064D01*
X11109841Y-13128064D02*
X11128889Y-13128064D01*
X11128889Y-13128064D02*
X11147936Y-13137588D01*
X11147936Y-13137588D02*
X11157460Y-13147111D01*
X11157460Y-13147111D02*
X11166984Y-13166159D01*
X11166984Y-13166159D02*
X11176508Y-13204254D01*
X11176508Y-13204254D02*
X11176508Y-13251873D01*
X11176508Y-13251873D02*
X11166984Y-13289968D01*
X11166984Y-13289968D02*
X11157460Y-13309016D01*
X11157460Y-13309016D02*
X11147936Y-13318540D01*
X11147936Y-13318540D02*
X11128889Y-13328064D01*
X11128889Y-13328064D02*
X11109841Y-13328064D01*
X11109841Y-13328064D02*
X11090793Y-13318540D01*
X11090793Y-13318540D02*
X11081270Y-13309016D01*
X11081270Y-13309016D02*
X11071746Y-13289968D01*
X11071746Y-13289968D02*
X11062222Y-13251873D01*
X11062222Y-13251873D02*
X11062222Y-13204254D01*
X11062222Y-13204254D02*
X11071746Y-13166159D01*
X11071746Y-13166159D02*
X11081270Y-13147111D01*
X11081270Y-13147111D02*
X11090793Y-13137588D01*
X11090793Y-13137588D02*
X11109841Y-13128064D01*
X11262222Y-13328064D02*
X11262222Y-13194730D01*
X11262222Y-13213778D02*
X11271746Y-13204254D01*
X11271746Y-13204254D02*
X11290793Y-13194730D01*
X11290793Y-13194730D02*
X11319365Y-13194730D01*
X11319365Y-13194730D02*
X11338412Y-13204254D01*
X11338412Y-13204254D02*
X11347936Y-13223302D01*
X11347936Y-13223302D02*
X11347936Y-13328064D01*
X11347936Y-13223302D02*
X11357460Y-13204254D01*
X11357460Y-13204254D02*
X11376508Y-13194730D01*
X11376508Y-13194730D02*
X11405079Y-13194730D01*
X11405079Y-13194730D02*
X11424127Y-13204254D01*
X11424127Y-13204254D02*
X11433650Y-13223302D01*
X11433650Y-13223302D02*
X11433650Y-13328064D01*
X11528889Y-13328064D02*
X11528889Y-13194730D01*
X11528889Y-13213778D02*
X11538412Y-13204254D01*
X11538412Y-13204254D02*
X11557460Y-13194730D01*
X11557460Y-13194730D02*
X11586031Y-13194730D01*
X11586031Y-13194730D02*
X11605079Y-13204254D01*
X11605079Y-13204254D02*
X11614603Y-13223302D01*
X11614603Y-13223302D02*
X11614603Y-13328064D01*
X11614603Y-13223302D02*
X11624127Y-13204254D01*
X11624127Y-13204254D02*
X11643174Y-13194730D01*
X11643174Y-13194730D02*
X11671746Y-13194730D01*
X11671746Y-13194730D02*
X11690793Y-13204254D01*
X11690793Y-13204254D02*
X11700317Y-13223302D01*
X11700317Y-13223302D02*
X11700317Y-13328064D01*
X12090793Y-13118540D02*
X11919365Y-13375683D01*
X12347936Y-13128064D02*
X12366984Y-13128064D01*
X12366984Y-13128064D02*
X12386032Y-13137588D01*
X12386032Y-13137588D02*
X12395555Y-13147111D01*
X12395555Y-13147111D02*
X12405079Y-13166159D01*
X12405079Y-13166159D02*
X12414603Y-13204254D01*
X12414603Y-13204254D02*
X12414603Y-13251873D01*
X12414603Y-13251873D02*
X12405079Y-13289968D01*
X12405079Y-13289968D02*
X12395555Y-13309016D01*
X12395555Y-13309016D02*
X12386032Y-13318540D01*
X12386032Y-13318540D02*
X12366984Y-13328064D01*
X12366984Y-13328064D02*
X12347936Y-13328064D01*
X12347936Y-13328064D02*
X12328889Y-13318540D01*
X12328889Y-13318540D02*
X12319365Y-13309016D01*
X12319365Y-13309016D02*
X12309841Y-13289968D01*
X12309841Y-13289968D02*
X12300317Y-13251873D01*
X12300317Y-13251873D02*
X12300317Y-13204254D01*
X12300317Y-13204254D02*
X12309841Y-13166159D01*
X12309841Y-13166159D02*
X12319365Y-13147111D01*
X12319365Y-13147111D02*
X12328889Y-13137588D01*
X12328889Y-13137588D02*
X12347936Y-13128064D01*
X12500317Y-13309016D02*
X12509841Y-13318540D01*
X12509841Y-13318540D02*
X12500317Y-13328064D01*
X12500317Y-13328064D02*
X12490793Y-13318540D01*
X12490793Y-13318540D02*
X12500317Y-13309016D01*
X12500317Y-13309016D02*
X12500317Y-13328064D01*
X12633651Y-13128064D02*
X12652698Y-13128064D01*
X12652698Y-13128064D02*
X12671746Y-13137588D01*
X12671746Y-13137588D02*
X12681270Y-13147111D01*
X12681270Y-13147111D02*
X12690793Y-13166159D01*
X12690793Y-13166159D02*
X12700317Y-13204254D01*
X12700317Y-13204254D02*
X12700317Y-13251873D01*
X12700317Y-13251873D02*
X12690793Y-13289968D01*
X12690793Y-13289968D02*
X12681270Y-13309016D01*
X12681270Y-13309016D02*
X12671746Y-13318540D01*
X12671746Y-13318540D02*
X12652698Y-13328064D01*
X12652698Y-13328064D02*
X12633651Y-13328064D01*
X12633651Y-13328064D02*
X12614603Y-13318540D01*
X12614603Y-13318540D02*
X12605079Y-13309016D01*
X12605079Y-13309016D02*
X12595555Y-13289968D01*
X12595555Y-13289968D02*
X12586032Y-13251873D01*
X12586032Y-13251873D02*
X12586032Y-13204254D01*
X12586032Y-13204254D02*
X12595555Y-13166159D01*
X12595555Y-13166159D02*
X12605079Y-13147111D01*
X12605079Y-13147111D02*
X12614603Y-13137588D01*
X12614603Y-13137588D02*
X12633651Y-13128064D01*
X12776508Y-13147111D02*
X12786032Y-13137588D01*
X12786032Y-13137588D02*
X12805079Y-13128064D01*
X12805079Y-13128064D02*
X12852698Y-13128064D01*
X12852698Y-13128064D02*
X12871746Y-13137588D01*
X12871746Y-13137588D02*
X12881270Y-13147111D01*
X12881270Y-13147111D02*
X12890793Y-13166159D01*
X12890793Y-13166159D02*
X12890793Y-13185207D01*
X12890793Y-13185207D02*
X12881270Y-13213778D01*
X12881270Y-13213778D02*
X12766984Y-13328064D01*
X12766984Y-13328064D02*
X12890793Y-13328064D01*
X12957460Y-13128064D02*
X13081270Y-13128064D01*
X13081270Y-13128064D02*
X13014603Y-13204254D01*
X13014603Y-13204254D02*
X13043174Y-13204254D01*
X13043174Y-13204254D02*
X13062222Y-13213778D01*
X13062222Y-13213778D02*
X13071746Y-13223302D01*
X13071746Y-13223302D02*
X13081270Y-13242349D01*
X13081270Y-13242349D02*
X13081270Y-13289968D01*
X13081270Y-13289968D02*
X13071746Y-13309016D01*
X13071746Y-13309016D02*
X13062222Y-13318540D01*
X13062222Y-13318540D02*
X13043174Y-13328064D01*
X13043174Y-13328064D02*
X12986032Y-13328064D01*
X12986032Y-13328064D02*
X12966984Y-13318540D01*
X12966984Y-13318540D02*
X12957460Y-13309016D01*
X13252698Y-13128064D02*
X13214603Y-13128064D01*
X13214603Y-13128064D02*
X13195555Y-13137588D01*
X13195555Y-13137588D02*
X13186032Y-13147111D01*
X13186032Y-13147111D02*
X13166984Y-13175683D01*
X13166984Y-13175683D02*
X13157460Y-13213778D01*
X13157460Y-13213778D02*
X13157460Y-13289968D01*
X13157460Y-13289968D02*
X13166984Y-13309016D01*
X13166984Y-13309016D02*
X13176508Y-13318540D01*
X13176508Y-13318540D02*
X13195555Y-13328064D01*
X13195555Y-13328064D02*
X13233651Y-13328064D01*
X13233651Y-13328064D02*
X13252698Y-13318540D01*
X13252698Y-13318540D02*
X13262222Y-13309016D01*
X13262222Y-13309016D02*
X13271746Y-13289968D01*
X13271746Y-13289968D02*
X13271746Y-13242349D01*
X13271746Y-13242349D02*
X13262222Y-13223302D01*
X13262222Y-13223302D02*
X13252698Y-13213778D01*
X13252698Y-13213778D02*
X13233651Y-13204254D01*
X13233651Y-13204254D02*
X13195555Y-13204254D01*
X13195555Y-13204254D02*
X13176508Y-13213778D01*
X13176508Y-13213778D02*
X13166984Y-13223302D01*
X13166984Y-13223302D02*
X13157460Y-13242349D01*
X13347936Y-13128064D02*
X13347936Y-13166159D01*
X13424127Y-13128064D02*
X13424127Y-13166159D01*
X13719365Y-13404254D02*
X13709841Y-13394730D01*
X13709841Y-13394730D02*
X13690794Y-13366159D01*
X13690794Y-13366159D02*
X13681270Y-13347111D01*
X13681270Y-13347111D02*
X13671746Y-13318540D01*
X13671746Y-13318540D02*
X13662222Y-13270921D01*
X13662222Y-13270921D02*
X13662222Y-13232826D01*
X13662222Y-13232826D02*
X13671746Y-13185207D01*
X13671746Y-13185207D02*
X13681270Y-13156635D01*
X13681270Y-13156635D02*
X13690794Y-13137588D01*
X13690794Y-13137588D02*
X13709841Y-13109016D01*
X13709841Y-13109016D02*
X13719365Y-13099492D01*
X13833651Y-13128064D02*
X13852698Y-13128064D01*
X13852698Y-13128064D02*
X13871746Y-13137588D01*
X13871746Y-13137588D02*
X13881270Y-13147111D01*
X13881270Y-13147111D02*
X13890794Y-13166159D01*
X13890794Y-13166159D02*
X13900317Y-13204254D01*
X13900317Y-13204254D02*
X13900317Y-13251873D01*
X13900317Y-13251873D02*
X13890794Y-13289968D01*
X13890794Y-13289968D02*
X13881270Y-13309016D01*
X13881270Y-13309016D02*
X13871746Y-13318540D01*
X13871746Y-13318540D02*
X13852698Y-13328064D01*
X13852698Y-13328064D02*
X13833651Y-13328064D01*
X13833651Y-13328064D02*
X13814603Y-13318540D01*
X13814603Y-13318540D02*
X13805079Y-13309016D01*
X13805079Y-13309016D02*
X13795555Y-13289968D01*
X13795555Y-13289968D02*
X13786032Y-13251873D01*
X13786032Y-13251873D02*
X13786032Y-13204254D01*
X13786032Y-13204254D02*
X13795555Y-13166159D01*
X13795555Y-13166159D02*
X13805079Y-13147111D01*
X13805079Y-13147111D02*
X13814603Y-13137588D01*
X13814603Y-13137588D02*
X13833651Y-13128064D01*
X14138413Y-13328064D02*
X14138413Y-13128064D01*
X14224127Y-13328064D02*
X14224127Y-13223302D01*
X14224127Y-13223302D02*
X14214603Y-13204254D01*
X14214603Y-13204254D02*
X14195556Y-13194730D01*
X14195556Y-13194730D02*
X14166984Y-13194730D01*
X14166984Y-13194730D02*
X14147936Y-13204254D01*
X14147936Y-13204254D02*
X14138413Y-13213778D01*
X14347936Y-13328064D02*
X14328889Y-13318540D01*
X14328889Y-13318540D02*
X14319365Y-13309016D01*
X14319365Y-13309016D02*
X14309841Y-13289968D01*
X14309841Y-13289968D02*
X14309841Y-13232826D01*
X14309841Y-13232826D02*
X14319365Y-13213778D01*
X14319365Y-13213778D02*
X14328889Y-13204254D01*
X14328889Y-13204254D02*
X14347936Y-13194730D01*
X14347936Y-13194730D02*
X14376508Y-13194730D01*
X14376508Y-13194730D02*
X14395556Y-13204254D01*
X14395556Y-13204254D02*
X14405079Y-13213778D01*
X14405079Y-13213778D02*
X14414603Y-13232826D01*
X14414603Y-13232826D02*
X14414603Y-13289968D01*
X14414603Y-13289968D02*
X14405079Y-13309016D01*
X14405079Y-13309016D02*
X14395556Y-13318540D01*
X14395556Y-13318540D02*
X14376508Y-13328064D01*
X14376508Y-13328064D02*
X14347936Y-13328064D01*
X14528889Y-13328064D02*
X14509841Y-13318540D01*
X14509841Y-13318540D02*
X14500317Y-13299492D01*
X14500317Y-13299492D02*
X14500317Y-13128064D01*
X14681270Y-13318540D02*
X14662222Y-13328064D01*
X14662222Y-13328064D02*
X14624127Y-13328064D01*
X14624127Y-13328064D02*
X14605079Y-13318540D01*
X14605079Y-13318540D02*
X14595556Y-13299492D01*
X14595556Y-13299492D02*
X14595556Y-13223302D01*
X14595556Y-13223302D02*
X14605079Y-13204254D01*
X14605079Y-13204254D02*
X14624127Y-13194730D01*
X14624127Y-13194730D02*
X14662222Y-13194730D01*
X14662222Y-13194730D02*
X14681270Y-13204254D01*
X14681270Y-13204254D02*
X14690794Y-13223302D01*
X14690794Y-13223302D02*
X14690794Y-13242349D01*
X14690794Y-13242349D02*
X14595556Y-13261397D01*
X14766984Y-13318540D02*
X14786032Y-13328064D01*
X14786032Y-13328064D02*
X14824127Y-13328064D01*
X14824127Y-13328064D02*
X14843175Y-13318540D01*
X14843175Y-13318540D02*
X14852698Y-13299492D01*
X14852698Y-13299492D02*
X14852698Y-13289968D01*
X14852698Y-13289968D02*
X14843175Y-13270921D01*
X14843175Y-13270921D02*
X14824127Y-13261397D01*
X14824127Y-13261397D02*
X14795556Y-13261397D01*
X14795556Y-13261397D02*
X14776508Y-13251873D01*
X14776508Y-13251873D02*
X14766984Y-13232826D01*
X14766984Y-13232826D02*
X14766984Y-13223302D01*
X14766984Y-13223302D02*
X14776508Y-13204254D01*
X14776508Y-13204254D02*
X14795556Y-13194730D01*
X14795556Y-13194730D02*
X14824127Y-13194730D01*
X14824127Y-13194730D02*
X14843175Y-13204254D01*
X15090794Y-13251873D02*
X15243175Y-13251873D01*
X15166984Y-13328064D02*
X15166984Y-13175683D01*
X15576508Y-13194730D02*
X15576508Y-13328064D01*
X15528889Y-13118540D02*
X15481270Y-13261397D01*
X15481270Y-13261397D02*
X15605079Y-13261397D01*
X15824127Y-13318540D02*
X15843175Y-13328064D01*
X15843175Y-13328064D02*
X15881270Y-13328064D01*
X15881270Y-13328064D02*
X15900318Y-13318540D01*
X15900318Y-13318540D02*
X15909841Y-13299492D01*
X15909841Y-13299492D02*
X15909841Y-13289968D01*
X15909841Y-13289968D02*
X15900318Y-13270921D01*
X15900318Y-13270921D02*
X15881270Y-13261397D01*
X15881270Y-13261397D02*
X15852699Y-13261397D01*
X15852699Y-13261397D02*
X15833651Y-13251873D01*
X15833651Y-13251873D02*
X15824127Y-13232826D01*
X15824127Y-13232826D02*
X15824127Y-13223302D01*
X15824127Y-13223302D02*
X15833651Y-13204254D01*
X15833651Y-13204254D02*
X15852699Y-13194730D01*
X15852699Y-13194730D02*
X15881270Y-13194730D01*
X15881270Y-13194730D02*
X15900318Y-13204254D01*
X16024127Y-13328064D02*
X16005080Y-13318540D01*
X16005080Y-13318540D02*
X15995556Y-13299492D01*
X15995556Y-13299492D02*
X15995556Y-13128064D01*
X16128889Y-13328064D02*
X16109841Y-13318540D01*
X16109841Y-13318540D02*
X16100318Y-13309016D01*
X16100318Y-13309016D02*
X16090794Y-13289968D01*
X16090794Y-13289968D02*
X16090794Y-13232826D01*
X16090794Y-13232826D02*
X16100318Y-13213778D01*
X16100318Y-13213778D02*
X16109841Y-13204254D01*
X16109841Y-13204254D02*
X16128889Y-13194730D01*
X16128889Y-13194730D02*
X16157461Y-13194730D01*
X16157461Y-13194730D02*
X16176508Y-13204254D01*
X16176508Y-13204254D02*
X16186032Y-13213778D01*
X16186032Y-13213778D02*
X16195556Y-13232826D01*
X16195556Y-13232826D02*
X16195556Y-13289968D01*
X16195556Y-13289968D02*
X16186032Y-13309016D01*
X16186032Y-13309016D02*
X16176508Y-13318540D01*
X16176508Y-13318540D02*
X16157461Y-13328064D01*
X16157461Y-13328064D02*
X16128889Y-13328064D01*
X16252699Y-13194730D02*
X16328889Y-13194730D01*
X16281270Y-13128064D02*
X16281270Y-13299492D01*
X16281270Y-13299492D02*
X16290794Y-13318540D01*
X16290794Y-13318540D02*
X16309841Y-13328064D01*
X16309841Y-13328064D02*
X16328889Y-13328064D01*
X16386032Y-13318540D02*
X16405080Y-13328064D01*
X16405080Y-13328064D02*
X16443175Y-13328064D01*
X16443175Y-13328064D02*
X16462222Y-13318540D01*
X16462222Y-13318540D02*
X16471746Y-13299492D01*
X16471746Y-13299492D02*
X16471746Y-13289968D01*
X16471746Y-13289968D02*
X16462222Y-13270921D01*
X16462222Y-13270921D02*
X16443175Y-13261397D01*
X16443175Y-13261397D02*
X16414603Y-13261397D01*
X16414603Y-13261397D02*
X16395556Y-13251873D01*
X16395556Y-13251873D02*
X16386032Y-13232826D01*
X16386032Y-13232826D02*
X16386032Y-13223302D01*
X16386032Y-13223302D02*
X16395556Y-13204254D01*
X16395556Y-13204254D02*
X16414603Y-13194730D01*
X16414603Y-13194730D02*
X16443175Y-13194730D01*
X16443175Y-13194730D02*
X16462222Y-13204254D01*
X16538413Y-13404254D02*
X16547937Y-13394730D01*
X16547937Y-13394730D02*
X16566984Y-13366159D01*
X16566984Y-13366159D02*
X16576508Y-13347111D01*
X16576508Y-13347111D02*
X16586032Y-13318540D01*
X16586032Y-13318540D02*
X16595556Y-13270921D01*
X16595556Y-13270921D02*
X16595556Y-13232826D01*
X16595556Y-13232826D02*
X16586032Y-13185207D01*
X16586032Y-13185207D02*
X16576508Y-13156635D01*
X16576508Y-13156635D02*
X16566984Y-13137588D01*
X16566984Y-13137588D02*
X16547937Y-13109016D01*
X16547937Y-13109016D02*
X16538413Y-13099492D01*
D15*
X10145745Y-13527824D02*
X10145745Y-13471255D01*
X10089176Y-13471255D01*
X10089176Y-13527824D01*
X10145745Y-13527824D01*
D11*
X10443174Y-13392064D02*
X10462222Y-13392064D01*
X10462222Y-13392064D02*
X10481270Y-13401588D01*
X10481270Y-13401588D02*
X10490793Y-13411111D01*
X10490793Y-13411111D02*
X10500317Y-13430159D01*
X10500317Y-13430159D02*
X10509841Y-13468254D01*
X10509841Y-13468254D02*
X10509841Y-13515873D01*
X10509841Y-13515873D02*
X10500317Y-13553968D01*
X10500317Y-13553968D02*
X10490793Y-13573016D01*
X10490793Y-13573016D02*
X10481270Y-13582540D01*
X10481270Y-13582540D02*
X10462222Y-13592064D01*
X10462222Y-13592064D02*
X10443174Y-13592064D01*
X10443174Y-13592064D02*
X10424127Y-13582540D01*
X10424127Y-13582540D02*
X10414603Y-13573016D01*
X10414603Y-13573016D02*
X10405079Y-13553968D01*
X10405079Y-13553968D02*
X10395555Y-13515873D01*
X10395555Y-13515873D02*
X10395555Y-13468254D01*
X10395555Y-13468254D02*
X10405079Y-13430159D01*
X10405079Y-13430159D02*
X10414603Y-13411111D01*
X10414603Y-13411111D02*
X10424127Y-13401588D01*
X10424127Y-13401588D02*
X10443174Y-13392064D01*
X10595555Y-13573016D02*
X10605079Y-13582540D01*
X10605079Y-13582540D02*
X10595555Y-13592064D01*
X10595555Y-13592064D02*
X10586031Y-13582540D01*
X10586031Y-13582540D02*
X10595555Y-13573016D01*
X10595555Y-13573016D02*
X10595555Y-13592064D01*
X10719365Y-13477778D02*
X10700317Y-13468254D01*
X10700317Y-13468254D02*
X10690793Y-13458730D01*
X10690793Y-13458730D02*
X10681270Y-13439683D01*
X10681270Y-13439683D02*
X10681270Y-13430159D01*
X10681270Y-13430159D02*
X10690793Y-13411111D01*
X10690793Y-13411111D02*
X10700317Y-13401588D01*
X10700317Y-13401588D02*
X10719365Y-13392064D01*
X10719365Y-13392064D02*
X10757460Y-13392064D01*
X10757460Y-13392064D02*
X10776508Y-13401588D01*
X10776508Y-13401588D02*
X10786031Y-13411111D01*
X10786031Y-13411111D02*
X10795555Y-13430159D01*
X10795555Y-13430159D02*
X10795555Y-13439683D01*
X10795555Y-13439683D02*
X10786031Y-13458730D01*
X10786031Y-13458730D02*
X10776508Y-13468254D01*
X10776508Y-13468254D02*
X10757460Y-13477778D01*
X10757460Y-13477778D02*
X10719365Y-13477778D01*
X10719365Y-13477778D02*
X10700317Y-13487302D01*
X10700317Y-13487302D02*
X10690793Y-13496826D01*
X10690793Y-13496826D02*
X10681270Y-13515873D01*
X10681270Y-13515873D02*
X10681270Y-13553968D01*
X10681270Y-13553968D02*
X10690793Y-13573016D01*
X10690793Y-13573016D02*
X10700317Y-13582540D01*
X10700317Y-13582540D02*
X10719365Y-13592064D01*
X10719365Y-13592064D02*
X10757460Y-13592064D01*
X10757460Y-13592064D02*
X10776508Y-13582540D01*
X10776508Y-13582540D02*
X10786031Y-13573016D01*
X10786031Y-13573016D02*
X10795555Y-13553968D01*
X10795555Y-13553968D02*
X10795555Y-13515873D01*
X10795555Y-13515873D02*
X10786031Y-13496826D01*
X10786031Y-13496826D02*
X10776508Y-13487302D01*
X10776508Y-13487302D02*
X10757460Y-13477778D01*
X10919365Y-13392064D02*
X10938412Y-13392064D01*
X10938412Y-13392064D02*
X10957460Y-13401588D01*
X10957460Y-13401588D02*
X10966984Y-13411111D01*
X10966984Y-13411111D02*
X10976508Y-13430159D01*
X10976508Y-13430159D02*
X10986031Y-13468254D01*
X10986031Y-13468254D02*
X10986031Y-13515873D01*
X10986031Y-13515873D02*
X10976508Y-13553968D01*
X10976508Y-13553968D02*
X10966984Y-13573016D01*
X10966984Y-13573016D02*
X10957460Y-13582540D01*
X10957460Y-13582540D02*
X10938412Y-13592064D01*
X10938412Y-13592064D02*
X10919365Y-13592064D01*
X10919365Y-13592064D02*
X10900317Y-13582540D01*
X10900317Y-13582540D02*
X10890793Y-13573016D01*
X10890793Y-13573016D02*
X10881270Y-13553968D01*
X10881270Y-13553968D02*
X10871746Y-13515873D01*
X10871746Y-13515873D02*
X10871746Y-13468254D01*
X10871746Y-13468254D02*
X10881270Y-13430159D01*
X10881270Y-13430159D02*
X10890793Y-13411111D01*
X10890793Y-13411111D02*
X10900317Y-13401588D01*
X10900317Y-13401588D02*
X10919365Y-13392064D01*
X11109841Y-13392064D02*
X11128889Y-13392064D01*
X11128889Y-13392064D02*
X11147936Y-13401588D01*
X11147936Y-13401588D02*
X11157460Y-13411111D01*
X11157460Y-13411111D02*
X11166984Y-13430159D01*
X11166984Y-13430159D02*
X11176508Y-13468254D01*
X11176508Y-13468254D02*
X11176508Y-13515873D01*
X11176508Y-13515873D02*
X11166984Y-13553968D01*
X11166984Y-13553968D02*
X11157460Y-13573016D01*
X11157460Y-13573016D02*
X11147936Y-13582540D01*
X11147936Y-13582540D02*
X11128889Y-13592064D01*
X11128889Y-13592064D02*
X11109841Y-13592064D01*
X11109841Y-13592064D02*
X11090793Y-13582540D01*
X11090793Y-13582540D02*
X11081270Y-13573016D01*
X11081270Y-13573016D02*
X11071746Y-13553968D01*
X11071746Y-13553968D02*
X11062222Y-13515873D01*
X11062222Y-13515873D02*
X11062222Y-13468254D01*
X11062222Y-13468254D02*
X11071746Y-13430159D01*
X11071746Y-13430159D02*
X11081270Y-13411111D01*
X11081270Y-13411111D02*
X11090793Y-13401588D01*
X11090793Y-13401588D02*
X11109841Y-13392064D01*
X11262222Y-13592064D02*
X11262222Y-13458730D01*
X11262222Y-13477778D02*
X11271746Y-13468254D01*
X11271746Y-13468254D02*
X11290793Y-13458730D01*
X11290793Y-13458730D02*
X11319365Y-13458730D01*
X11319365Y-13458730D02*
X11338412Y-13468254D01*
X11338412Y-13468254D02*
X11347936Y-13487302D01*
X11347936Y-13487302D02*
X11347936Y-13592064D01*
X11347936Y-13487302D02*
X11357460Y-13468254D01*
X11357460Y-13468254D02*
X11376508Y-13458730D01*
X11376508Y-13458730D02*
X11405079Y-13458730D01*
X11405079Y-13458730D02*
X11424127Y-13468254D01*
X11424127Y-13468254D02*
X11433650Y-13487302D01*
X11433650Y-13487302D02*
X11433650Y-13592064D01*
X11528889Y-13592064D02*
X11528889Y-13458730D01*
X11528889Y-13477778D02*
X11538412Y-13468254D01*
X11538412Y-13468254D02*
X11557460Y-13458730D01*
X11557460Y-13458730D02*
X11586031Y-13458730D01*
X11586031Y-13458730D02*
X11605079Y-13468254D01*
X11605079Y-13468254D02*
X11614603Y-13487302D01*
X11614603Y-13487302D02*
X11614603Y-13592064D01*
X11614603Y-13487302D02*
X11624127Y-13468254D01*
X11624127Y-13468254D02*
X11643174Y-13458730D01*
X11643174Y-13458730D02*
X11671746Y-13458730D01*
X11671746Y-13458730D02*
X11690793Y-13468254D01*
X11690793Y-13468254D02*
X11700317Y-13487302D01*
X11700317Y-13487302D02*
X11700317Y-13592064D01*
X12090793Y-13382540D02*
X11919365Y-13639683D01*
X12347936Y-13392064D02*
X12366984Y-13392064D01*
X12366984Y-13392064D02*
X12386032Y-13401588D01*
X12386032Y-13401588D02*
X12395555Y-13411111D01*
X12395555Y-13411111D02*
X12405079Y-13430159D01*
X12405079Y-13430159D02*
X12414603Y-13468254D01*
X12414603Y-13468254D02*
X12414603Y-13515873D01*
X12414603Y-13515873D02*
X12405079Y-13553968D01*
X12405079Y-13553968D02*
X12395555Y-13573016D01*
X12395555Y-13573016D02*
X12386032Y-13582540D01*
X12386032Y-13582540D02*
X12366984Y-13592064D01*
X12366984Y-13592064D02*
X12347936Y-13592064D01*
X12347936Y-13592064D02*
X12328889Y-13582540D01*
X12328889Y-13582540D02*
X12319365Y-13573016D01*
X12319365Y-13573016D02*
X12309841Y-13553968D01*
X12309841Y-13553968D02*
X12300317Y-13515873D01*
X12300317Y-13515873D02*
X12300317Y-13468254D01*
X12300317Y-13468254D02*
X12309841Y-13430159D01*
X12309841Y-13430159D02*
X12319365Y-13411111D01*
X12319365Y-13411111D02*
X12328889Y-13401588D01*
X12328889Y-13401588D02*
X12347936Y-13392064D01*
X12500317Y-13573016D02*
X12509841Y-13582540D01*
X12509841Y-13582540D02*
X12500317Y-13592064D01*
X12500317Y-13592064D02*
X12490793Y-13582540D01*
X12490793Y-13582540D02*
X12500317Y-13573016D01*
X12500317Y-13573016D02*
X12500317Y-13592064D01*
X12633651Y-13392064D02*
X12652698Y-13392064D01*
X12652698Y-13392064D02*
X12671746Y-13401588D01*
X12671746Y-13401588D02*
X12681270Y-13411111D01*
X12681270Y-13411111D02*
X12690793Y-13430159D01*
X12690793Y-13430159D02*
X12700317Y-13468254D01*
X12700317Y-13468254D02*
X12700317Y-13515873D01*
X12700317Y-13515873D02*
X12690793Y-13553968D01*
X12690793Y-13553968D02*
X12681270Y-13573016D01*
X12681270Y-13573016D02*
X12671746Y-13582540D01*
X12671746Y-13582540D02*
X12652698Y-13592064D01*
X12652698Y-13592064D02*
X12633651Y-13592064D01*
X12633651Y-13592064D02*
X12614603Y-13582540D01*
X12614603Y-13582540D02*
X12605079Y-13573016D01*
X12605079Y-13573016D02*
X12595555Y-13553968D01*
X12595555Y-13553968D02*
X12586032Y-13515873D01*
X12586032Y-13515873D02*
X12586032Y-13468254D01*
X12586032Y-13468254D02*
X12595555Y-13430159D01*
X12595555Y-13430159D02*
X12605079Y-13411111D01*
X12605079Y-13411111D02*
X12614603Y-13401588D01*
X12614603Y-13401588D02*
X12633651Y-13392064D01*
X12766984Y-13392064D02*
X12890793Y-13392064D01*
X12890793Y-13392064D02*
X12824127Y-13468254D01*
X12824127Y-13468254D02*
X12852698Y-13468254D01*
X12852698Y-13468254D02*
X12871746Y-13477778D01*
X12871746Y-13477778D02*
X12881270Y-13487302D01*
X12881270Y-13487302D02*
X12890793Y-13506349D01*
X12890793Y-13506349D02*
X12890793Y-13553968D01*
X12890793Y-13553968D02*
X12881270Y-13573016D01*
X12881270Y-13573016D02*
X12871746Y-13582540D01*
X12871746Y-13582540D02*
X12852698Y-13592064D01*
X12852698Y-13592064D02*
X12795555Y-13592064D01*
X12795555Y-13592064D02*
X12776508Y-13582540D01*
X12776508Y-13582540D02*
X12766984Y-13573016D01*
X13081270Y-13592064D02*
X12966984Y-13592064D01*
X13024127Y-13592064D02*
X13024127Y-13392064D01*
X13024127Y-13392064D02*
X13005079Y-13420635D01*
X13005079Y-13420635D02*
X12986032Y-13439683D01*
X12986032Y-13439683D02*
X12966984Y-13449207D01*
X13262222Y-13392064D02*
X13166984Y-13392064D01*
X13166984Y-13392064D02*
X13157460Y-13487302D01*
X13157460Y-13487302D02*
X13166984Y-13477778D01*
X13166984Y-13477778D02*
X13186032Y-13468254D01*
X13186032Y-13468254D02*
X13233651Y-13468254D01*
X13233651Y-13468254D02*
X13252698Y-13477778D01*
X13252698Y-13477778D02*
X13262222Y-13487302D01*
X13262222Y-13487302D02*
X13271746Y-13506349D01*
X13271746Y-13506349D02*
X13271746Y-13553968D01*
X13271746Y-13553968D02*
X13262222Y-13573016D01*
X13262222Y-13573016D02*
X13252698Y-13582540D01*
X13252698Y-13582540D02*
X13233651Y-13592064D01*
X13233651Y-13592064D02*
X13186032Y-13592064D01*
X13186032Y-13592064D02*
X13166984Y-13582540D01*
X13166984Y-13582540D02*
X13157460Y-13573016D01*
X13347936Y-13392064D02*
X13347936Y-13430159D01*
X13424127Y-13392064D02*
X13424127Y-13430159D01*
X13719365Y-13668254D02*
X13709841Y-13658730D01*
X13709841Y-13658730D02*
X13690794Y-13630159D01*
X13690794Y-13630159D02*
X13681270Y-13611111D01*
X13681270Y-13611111D02*
X13671746Y-13582540D01*
X13671746Y-13582540D02*
X13662222Y-13534921D01*
X13662222Y-13534921D02*
X13662222Y-13496826D01*
X13662222Y-13496826D02*
X13671746Y-13449207D01*
X13671746Y-13449207D02*
X13681270Y-13420635D01*
X13681270Y-13420635D02*
X13690794Y-13401588D01*
X13690794Y-13401588D02*
X13709841Y-13373016D01*
X13709841Y-13373016D02*
X13719365Y-13363492D01*
X13900317Y-13592064D02*
X13786032Y-13592064D01*
X13843174Y-13592064D02*
X13843174Y-13392064D01*
X13843174Y-13392064D02*
X13824127Y-13420635D01*
X13824127Y-13420635D02*
X13805079Y-13439683D01*
X13805079Y-13439683D02*
X13786032Y-13449207D01*
X14024127Y-13392064D02*
X14043175Y-13392064D01*
X14043175Y-13392064D02*
X14062222Y-13401588D01*
X14062222Y-13401588D02*
X14071746Y-13411111D01*
X14071746Y-13411111D02*
X14081270Y-13430159D01*
X14081270Y-13430159D02*
X14090794Y-13468254D01*
X14090794Y-13468254D02*
X14090794Y-13515873D01*
X14090794Y-13515873D02*
X14081270Y-13553968D01*
X14081270Y-13553968D02*
X14071746Y-13573016D01*
X14071746Y-13573016D02*
X14062222Y-13582540D01*
X14062222Y-13582540D02*
X14043175Y-13592064D01*
X14043175Y-13592064D02*
X14024127Y-13592064D01*
X14024127Y-13592064D02*
X14005079Y-13582540D01*
X14005079Y-13582540D02*
X13995555Y-13573016D01*
X13995555Y-13573016D02*
X13986032Y-13553968D01*
X13986032Y-13553968D02*
X13976508Y-13515873D01*
X13976508Y-13515873D02*
X13976508Y-13468254D01*
X13976508Y-13468254D02*
X13986032Y-13430159D01*
X13986032Y-13430159D02*
X13995555Y-13411111D01*
X13995555Y-13411111D02*
X14005079Y-13401588D01*
X14005079Y-13401588D02*
X14024127Y-13392064D01*
X14262222Y-13392064D02*
X14224127Y-13392064D01*
X14224127Y-13392064D02*
X14205079Y-13401588D01*
X14205079Y-13401588D02*
X14195555Y-13411111D01*
X14195555Y-13411111D02*
X14176508Y-13439683D01*
X14176508Y-13439683D02*
X14166984Y-13477778D01*
X14166984Y-13477778D02*
X14166984Y-13553968D01*
X14166984Y-13553968D02*
X14176508Y-13573016D01*
X14176508Y-13573016D02*
X14186032Y-13582540D01*
X14186032Y-13582540D02*
X14205079Y-13592064D01*
X14205079Y-13592064D02*
X14243175Y-13592064D01*
X14243175Y-13592064D02*
X14262222Y-13582540D01*
X14262222Y-13582540D02*
X14271746Y-13573016D01*
X14271746Y-13573016D02*
X14281270Y-13553968D01*
X14281270Y-13553968D02*
X14281270Y-13506349D01*
X14281270Y-13506349D02*
X14271746Y-13487302D01*
X14271746Y-13487302D02*
X14262222Y-13477778D01*
X14262222Y-13477778D02*
X14243175Y-13468254D01*
X14243175Y-13468254D02*
X14205079Y-13468254D01*
X14205079Y-13468254D02*
X14186032Y-13477778D01*
X14186032Y-13477778D02*
X14176508Y-13487302D01*
X14176508Y-13487302D02*
X14166984Y-13506349D01*
X14519365Y-13592064D02*
X14519365Y-13392064D01*
X14605079Y-13592064D02*
X14605079Y-13487302D01*
X14605079Y-13487302D02*
X14595556Y-13468254D01*
X14595556Y-13468254D02*
X14576508Y-13458730D01*
X14576508Y-13458730D02*
X14547936Y-13458730D01*
X14547936Y-13458730D02*
X14528889Y-13468254D01*
X14528889Y-13468254D02*
X14519365Y-13477778D01*
X14728889Y-13592064D02*
X14709841Y-13582540D01*
X14709841Y-13582540D02*
X14700317Y-13573016D01*
X14700317Y-13573016D02*
X14690794Y-13553968D01*
X14690794Y-13553968D02*
X14690794Y-13496826D01*
X14690794Y-13496826D02*
X14700317Y-13477778D01*
X14700317Y-13477778D02*
X14709841Y-13468254D01*
X14709841Y-13468254D02*
X14728889Y-13458730D01*
X14728889Y-13458730D02*
X14757460Y-13458730D01*
X14757460Y-13458730D02*
X14776508Y-13468254D01*
X14776508Y-13468254D02*
X14786032Y-13477778D01*
X14786032Y-13477778D02*
X14795556Y-13496826D01*
X14795556Y-13496826D02*
X14795556Y-13553968D01*
X14795556Y-13553968D02*
X14786032Y-13573016D01*
X14786032Y-13573016D02*
X14776508Y-13582540D01*
X14776508Y-13582540D02*
X14757460Y-13592064D01*
X14757460Y-13592064D02*
X14728889Y-13592064D01*
X14909841Y-13592064D02*
X14890794Y-13582540D01*
X14890794Y-13582540D02*
X14881270Y-13563492D01*
X14881270Y-13563492D02*
X14881270Y-13392064D01*
X15062222Y-13582540D02*
X15043175Y-13592064D01*
X15043175Y-13592064D02*
X15005079Y-13592064D01*
X15005079Y-13592064D02*
X14986032Y-13582540D01*
X14986032Y-13582540D02*
X14976508Y-13563492D01*
X14976508Y-13563492D02*
X14976508Y-13487302D01*
X14976508Y-13487302D02*
X14986032Y-13468254D01*
X14986032Y-13468254D02*
X15005079Y-13458730D01*
X15005079Y-13458730D02*
X15043175Y-13458730D01*
X15043175Y-13458730D02*
X15062222Y-13468254D01*
X15062222Y-13468254D02*
X15071746Y-13487302D01*
X15071746Y-13487302D02*
X15071746Y-13506349D01*
X15071746Y-13506349D02*
X14976508Y-13525397D01*
X15147937Y-13582540D02*
X15166984Y-13592064D01*
X15166984Y-13592064D02*
X15205079Y-13592064D01*
X15205079Y-13592064D02*
X15224127Y-13582540D01*
X15224127Y-13582540D02*
X15233651Y-13563492D01*
X15233651Y-13563492D02*
X15233651Y-13553968D01*
X15233651Y-13553968D02*
X15224127Y-13534921D01*
X15224127Y-13534921D02*
X15205079Y-13525397D01*
X15205079Y-13525397D02*
X15176508Y-13525397D01*
X15176508Y-13525397D02*
X15157460Y-13515873D01*
X15157460Y-13515873D02*
X15147937Y-13496826D01*
X15147937Y-13496826D02*
X15147937Y-13487302D01*
X15147937Y-13487302D02*
X15157460Y-13468254D01*
X15157460Y-13468254D02*
X15176508Y-13458730D01*
X15176508Y-13458730D02*
X15205079Y-13458730D01*
X15205079Y-13458730D02*
X15224127Y-13468254D01*
X15300318Y-13668254D02*
X15309841Y-13658730D01*
X15309841Y-13658730D02*
X15328889Y-13630159D01*
X15328889Y-13630159D02*
X15338413Y-13611111D01*
X15338413Y-13611111D02*
X15347937Y-13582540D01*
X15347937Y-13582540D02*
X15357460Y-13534921D01*
X15357460Y-13534921D02*
X15357460Y-13496826D01*
X15357460Y-13496826D02*
X15347937Y-13449207D01*
X15347937Y-13449207D02*
X15338413Y-13420635D01*
X15338413Y-13420635D02*
X15328889Y-13401588D01*
X15328889Y-13401588D02*
X15309841Y-13373016D01*
X15309841Y-13373016D02*
X15300318Y-13363492D01*
D16*
X10112460Y-13808540D02*
X10157460Y-13763540D01*
X10112460Y-13718540D01*
X10067460Y-13763540D01*
X10112460Y-13808540D01*
D11*
X10443174Y-13656064D02*
X10462222Y-13656064D01*
X10462222Y-13656064D02*
X10481270Y-13665588D01*
X10481270Y-13665588D02*
X10490793Y-13675111D01*
X10490793Y-13675111D02*
X10500317Y-13694159D01*
X10500317Y-13694159D02*
X10509841Y-13732254D01*
X10509841Y-13732254D02*
X10509841Y-13779873D01*
X10509841Y-13779873D02*
X10500317Y-13817968D01*
X10500317Y-13817968D02*
X10490793Y-13837016D01*
X10490793Y-13837016D02*
X10481270Y-13846540D01*
X10481270Y-13846540D02*
X10462222Y-13856064D01*
X10462222Y-13856064D02*
X10443174Y-13856064D01*
X10443174Y-13856064D02*
X10424127Y-13846540D01*
X10424127Y-13846540D02*
X10414603Y-13837016D01*
X10414603Y-13837016D02*
X10405079Y-13817968D01*
X10405079Y-13817968D02*
X10395555Y-13779873D01*
X10395555Y-13779873D02*
X10395555Y-13732254D01*
X10395555Y-13732254D02*
X10405079Y-13694159D01*
X10405079Y-13694159D02*
X10414603Y-13675111D01*
X10414603Y-13675111D02*
X10424127Y-13665588D01*
X10424127Y-13665588D02*
X10443174Y-13656064D01*
X10595555Y-13837016D02*
X10605079Y-13846540D01*
X10605079Y-13846540D02*
X10595555Y-13856064D01*
X10595555Y-13856064D02*
X10586031Y-13846540D01*
X10586031Y-13846540D02*
X10595555Y-13837016D01*
X10595555Y-13837016D02*
X10595555Y-13856064D01*
X10700317Y-13856064D02*
X10738412Y-13856064D01*
X10738412Y-13856064D02*
X10757460Y-13846540D01*
X10757460Y-13846540D02*
X10766984Y-13837016D01*
X10766984Y-13837016D02*
X10786031Y-13808445D01*
X10786031Y-13808445D02*
X10795555Y-13770349D01*
X10795555Y-13770349D02*
X10795555Y-13694159D01*
X10795555Y-13694159D02*
X10786031Y-13675111D01*
X10786031Y-13675111D02*
X10776508Y-13665588D01*
X10776508Y-13665588D02*
X10757460Y-13656064D01*
X10757460Y-13656064D02*
X10719365Y-13656064D01*
X10719365Y-13656064D02*
X10700317Y-13665588D01*
X10700317Y-13665588D02*
X10690793Y-13675111D01*
X10690793Y-13675111D02*
X10681270Y-13694159D01*
X10681270Y-13694159D02*
X10681270Y-13741778D01*
X10681270Y-13741778D02*
X10690793Y-13760826D01*
X10690793Y-13760826D02*
X10700317Y-13770349D01*
X10700317Y-13770349D02*
X10719365Y-13779873D01*
X10719365Y-13779873D02*
X10757460Y-13779873D01*
X10757460Y-13779873D02*
X10776508Y-13770349D01*
X10776508Y-13770349D02*
X10786031Y-13760826D01*
X10786031Y-13760826D02*
X10795555Y-13741778D01*
X10919365Y-13656064D02*
X10938412Y-13656064D01*
X10938412Y-13656064D02*
X10957460Y-13665588D01*
X10957460Y-13665588D02*
X10966984Y-13675111D01*
X10966984Y-13675111D02*
X10976508Y-13694159D01*
X10976508Y-13694159D02*
X10986031Y-13732254D01*
X10986031Y-13732254D02*
X10986031Y-13779873D01*
X10986031Y-13779873D02*
X10976508Y-13817968D01*
X10976508Y-13817968D02*
X10966984Y-13837016D01*
X10966984Y-13837016D02*
X10957460Y-13846540D01*
X10957460Y-13846540D02*
X10938412Y-13856064D01*
X10938412Y-13856064D02*
X10919365Y-13856064D01*
X10919365Y-13856064D02*
X10900317Y-13846540D01*
X10900317Y-13846540D02*
X10890793Y-13837016D01*
X10890793Y-13837016D02*
X10881270Y-13817968D01*
X10881270Y-13817968D02*
X10871746Y-13779873D01*
X10871746Y-13779873D02*
X10871746Y-13732254D01*
X10871746Y-13732254D02*
X10881270Y-13694159D01*
X10881270Y-13694159D02*
X10890793Y-13675111D01*
X10890793Y-13675111D02*
X10900317Y-13665588D01*
X10900317Y-13665588D02*
X10919365Y-13656064D01*
X11109841Y-13656064D02*
X11128889Y-13656064D01*
X11128889Y-13656064D02*
X11147936Y-13665588D01*
X11147936Y-13665588D02*
X11157460Y-13675111D01*
X11157460Y-13675111D02*
X11166984Y-13694159D01*
X11166984Y-13694159D02*
X11176508Y-13732254D01*
X11176508Y-13732254D02*
X11176508Y-13779873D01*
X11176508Y-13779873D02*
X11166984Y-13817968D01*
X11166984Y-13817968D02*
X11157460Y-13837016D01*
X11157460Y-13837016D02*
X11147936Y-13846540D01*
X11147936Y-13846540D02*
X11128889Y-13856064D01*
X11128889Y-13856064D02*
X11109841Y-13856064D01*
X11109841Y-13856064D02*
X11090793Y-13846540D01*
X11090793Y-13846540D02*
X11081270Y-13837016D01*
X11081270Y-13837016D02*
X11071746Y-13817968D01*
X11071746Y-13817968D02*
X11062222Y-13779873D01*
X11062222Y-13779873D02*
X11062222Y-13732254D01*
X11062222Y-13732254D02*
X11071746Y-13694159D01*
X11071746Y-13694159D02*
X11081270Y-13675111D01*
X11081270Y-13675111D02*
X11090793Y-13665588D01*
X11090793Y-13665588D02*
X11109841Y-13656064D01*
X11262222Y-13856064D02*
X11262222Y-13722730D01*
X11262222Y-13741778D02*
X11271746Y-13732254D01*
X11271746Y-13732254D02*
X11290793Y-13722730D01*
X11290793Y-13722730D02*
X11319365Y-13722730D01*
X11319365Y-13722730D02*
X11338412Y-13732254D01*
X11338412Y-13732254D02*
X11347936Y-13751302D01*
X11347936Y-13751302D02*
X11347936Y-13856064D01*
X11347936Y-13751302D02*
X11357460Y-13732254D01*
X11357460Y-13732254D02*
X11376508Y-13722730D01*
X11376508Y-13722730D02*
X11405079Y-13722730D01*
X11405079Y-13722730D02*
X11424127Y-13732254D01*
X11424127Y-13732254D02*
X11433650Y-13751302D01*
X11433650Y-13751302D02*
X11433650Y-13856064D01*
X11528889Y-13856064D02*
X11528889Y-13722730D01*
X11528889Y-13741778D02*
X11538412Y-13732254D01*
X11538412Y-13732254D02*
X11557460Y-13722730D01*
X11557460Y-13722730D02*
X11586031Y-13722730D01*
X11586031Y-13722730D02*
X11605079Y-13732254D01*
X11605079Y-13732254D02*
X11614603Y-13751302D01*
X11614603Y-13751302D02*
X11614603Y-13856064D01*
X11614603Y-13751302D02*
X11624127Y-13732254D01*
X11624127Y-13732254D02*
X11643174Y-13722730D01*
X11643174Y-13722730D02*
X11671746Y-13722730D01*
X11671746Y-13722730D02*
X11690793Y-13732254D01*
X11690793Y-13732254D02*
X11700317Y-13751302D01*
X11700317Y-13751302D02*
X11700317Y-13856064D01*
X12090793Y-13646540D02*
X11919365Y-13903683D01*
X12347936Y-13656064D02*
X12366984Y-13656064D01*
X12366984Y-13656064D02*
X12386032Y-13665588D01*
X12386032Y-13665588D02*
X12395555Y-13675111D01*
X12395555Y-13675111D02*
X12405079Y-13694159D01*
X12405079Y-13694159D02*
X12414603Y-13732254D01*
X12414603Y-13732254D02*
X12414603Y-13779873D01*
X12414603Y-13779873D02*
X12405079Y-13817968D01*
X12405079Y-13817968D02*
X12395555Y-13837016D01*
X12395555Y-13837016D02*
X12386032Y-13846540D01*
X12386032Y-13846540D02*
X12366984Y-13856064D01*
X12366984Y-13856064D02*
X12347936Y-13856064D01*
X12347936Y-13856064D02*
X12328889Y-13846540D01*
X12328889Y-13846540D02*
X12319365Y-13837016D01*
X12319365Y-13837016D02*
X12309841Y-13817968D01*
X12309841Y-13817968D02*
X12300317Y-13779873D01*
X12300317Y-13779873D02*
X12300317Y-13732254D01*
X12300317Y-13732254D02*
X12309841Y-13694159D01*
X12309841Y-13694159D02*
X12319365Y-13675111D01*
X12319365Y-13675111D02*
X12328889Y-13665588D01*
X12328889Y-13665588D02*
X12347936Y-13656064D01*
X12500317Y-13837016D02*
X12509841Y-13846540D01*
X12509841Y-13846540D02*
X12500317Y-13856064D01*
X12500317Y-13856064D02*
X12490793Y-13846540D01*
X12490793Y-13846540D02*
X12500317Y-13837016D01*
X12500317Y-13837016D02*
X12500317Y-13856064D01*
X12633651Y-13656064D02*
X12652698Y-13656064D01*
X12652698Y-13656064D02*
X12671746Y-13665588D01*
X12671746Y-13665588D02*
X12681270Y-13675111D01*
X12681270Y-13675111D02*
X12690793Y-13694159D01*
X12690793Y-13694159D02*
X12700317Y-13732254D01*
X12700317Y-13732254D02*
X12700317Y-13779873D01*
X12700317Y-13779873D02*
X12690793Y-13817968D01*
X12690793Y-13817968D02*
X12681270Y-13837016D01*
X12681270Y-13837016D02*
X12671746Y-13846540D01*
X12671746Y-13846540D02*
X12652698Y-13856064D01*
X12652698Y-13856064D02*
X12633651Y-13856064D01*
X12633651Y-13856064D02*
X12614603Y-13846540D01*
X12614603Y-13846540D02*
X12605079Y-13837016D01*
X12605079Y-13837016D02*
X12595555Y-13817968D01*
X12595555Y-13817968D02*
X12586032Y-13779873D01*
X12586032Y-13779873D02*
X12586032Y-13732254D01*
X12586032Y-13732254D02*
X12595555Y-13694159D01*
X12595555Y-13694159D02*
X12605079Y-13675111D01*
X12605079Y-13675111D02*
X12614603Y-13665588D01*
X12614603Y-13665588D02*
X12633651Y-13656064D01*
X12766984Y-13656064D02*
X12890793Y-13656064D01*
X12890793Y-13656064D02*
X12824127Y-13732254D01*
X12824127Y-13732254D02*
X12852698Y-13732254D01*
X12852698Y-13732254D02*
X12871746Y-13741778D01*
X12871746Y-13741778D02*
X12881270Y-13751302D01*
X12881270Y-13751302D02*
X12890793Y-13770349D01*
X12890793Y-13770349D02*
X12890793Y-13817968D01*
X12890793Y-13817968D02*
X12881270Y-13837016D01*
X12881270Y-13837016D02*
X12871746Y-13846540D01*
X12871746Y-13846540D02*
X12852698Y-13856064D01*
X12852698Y-13856064D02*
X12795555Y-13856064D01*
X12795555Y-13856064D02*
X12776508Y-13846540D01*
X12776508Y-13846540D02*
X12766984Y-13837016D01*
X13071746Y-13656064D02*
X12976508Y-13656064D01*
X12976508Y-13656064D02*
X12966984Y-13751302D01*
X12966984Y-13751302D02*
X12976508Y-13741778D01*
X12976508Y-13741778D02*
X12995555Y-13732254D01*
X12995555Y-13732254D02*
X13043174Y-13732254D01*
X13043174Y-13732254D02*
X13062222Y-13741778D01*
X13062222Y-13741778D02*
X13071746Y-13751302D01*
X13071746Y-13751302D02*
X13081270Y-13770349D01*
X13081270Y-13770349D02*
X13081270Y-13817968D01*
X13081270Y-13817968D02*
X13071746Y-13837016D01*
X13071746Y-13837016D02*
X13062222Y-13846540D01*
X13062222Y-13846540D02*
X13043174Y-13856064D01*
X13043174Y-13856064D02*
X12995555Y-13856064D01*
X12995555Y-13856064D02*
X12976508Y-13846540D01*
X12976508Y-13846540D02*
X12966984Y-13837016D01*
X13252698Y-13722730D02*
X13252698Y-13856064D01*
X13205079Y-13646540D02*
X13157460Y-13789397D01*
X13157460Y-13789397D02*
X13281270Y-13789397D01*
X13347936Y-13656064D02*
X13347936Y-13694159D01*
X13424127Y-13656064D02*
X13424127Y-13694159D01*
X13719365Y-13932254D02*
X13709841Y-13922730D01*
X13709841Y-13922730D02*
X13690794Y-13894159D01*
X13690794Y-13894159D02*
X13681270Y-13875111D01*
X13681270Y-13875111D02*
X13671746Y-13846540D01*
X13671746Y-13846540D02*
X13662222Y-13798921D01*
X13662222Y-13798921D02*
X13662222Y-13760826D01*
X13662222Y-13760826D02*
X13671746Y-13713207D01*
X13671746Y-13713207D02*
X13681270Y-13684635D01*
X13681270Y-13684635D02*
X13690794Y-13665588D01*
X13690794Y-13665588D02*
X13709841Y-13637016D01*
X13709841Y-13637016D02*
X13719365Y-13627492D01*
X13786032Y-13675111D02*
X13795555Y-13665588D01*
X13795555Y-13665588D02*
X13814603Y-13656064D01*
X13814603Y-13656064D02*
X13862222Y-13656064D01*
X13862222Y-13656064D02*
X13881270Y-13665588D01*
X13881270Y-13665588D02*
X13890794Y-13675111D01*
X13890794Y-13675111D02*
X13900317Y-13694159D01*
X13900317Y-13694159D02*
X13900317Y-13713207D01*
X13900317Y-13713207D02*
X13890794Y-13741778D01*
X13890794Y-13741778D02*
X13776508Y-13856064D01*
X13776508Y-13856064D02*
X13900317Y-13856064D01*
X13966984Y-13656064D02*
X14100317Y-13656064D01*
X14100317Y-13656064D02*
X14014603Y-13856064D01*
X14328889Y-13856064D02*
X14328889Y-13656064D01*
X14414603Y-13856064D02*
X14414603Y-13751302D01*
X14414603Y-13751302D02*
X14405079Y-13732254D01*
X14405079Y-13732254D02*
X14386032Y-13722730D01*
X14386032Y-13722730D02*
X14357460Y-13722730D01*
X14357460Y-13722730D02*
X14338413Y-13732254D01*
X14338413Y-13732254D02*
X14328889Y-13741778D01*
X14538413Y-13856064D02*
X14519365Y-13846540D01*
X14519365Y-13846540D02*
X14509841Y-13837016D01*
X14509841Y-13837016D02*
X14500317Y-13817968D01*
X14500317Y-13817968D02*
X14500317Y-13760826D01*
X14500317Y-13760826D02*
X14509841Y-13741778D01*
X14509841Y-13741778D02*
X14519365Y-13732254D01*
X14519365Y-13732254D02*
X14538413Y-13722730D01*
X14538413Y-13722730D02*
X14566984Y-13722730D01*
X14566984Y-13722730D02*
X14586032Y-13732254D01*
X14586032Y-13732254D02*
X14595556Y-13741778D01*
X14595556Y-13741778D02*
X14605079Y-13760826D01*
X14605079Y-13760826D02*
X14605079Y-13817968D01*
X14605079Y-13817968D02*
X14595556Y-13837016D01*
X14595556Y-13837016D02*
X14586032Y-13846540D01*
X14586032Y-13846540D02*
X14566984Y-13856064D01*
X14566984Y-13856064D02*
X14538413Y-13856064D01*
X14719365Y-13856064D02*
X14700317Y-13846540D01*
X14700317Y-13846540D02*
X14690794Y-13827492D01*
X14690794Y-13827492D02*
X14690794Y-13656064D01*
X14871746Y-13846540D02*
X14852698Y-13856064D01*
X14852698Y-13856064D02*
X14814603Y-13856064D01*
X14814603Y-13856064D02*
X14795556Y-13846540D01*
X14795556Y-13846540D02*
X14786032Y-13827492D01*
X14786032Y-13827492D02*
X14786032Y-13751302D01*
X14786032Y-13751302D02*
X14795556Y-13732254D01*
X14795556Y-13732254D02*
X14814603Y-13722730D01*
X14814603Y-13722730D02*
X14852698Y-13722730D01*
X14852698Y-13722730D02*
X14871746Y-13732254D01*
X14871746Y-13732254D02*
X14881270Y-13751302D01*
X14881270Y-13751302D02*
X14881270Y-13770349D01*
X14881270Y-13770349D02*
X14786032Y-13789397D01*
X14957460Y-13846540D02*
X14976508Y-13856064D01*
X14976508Y-13856064D02*
X15014603Y-13856064D01*
X15014603Y-13856064D02*
X15033651Y-13846540D01*
X15033651Y-13846540D02*
X15043175Y-13827492D01*
X15043175Y-13827492D02*
X15043175Y-13817968D01*
X15043175Y-13817968D02*
X15033651Y-13798921D01*
X15033651Y-13798921D02*
X15014603Y-13789397D01*
X15014603Y-13789397D02*
X14986032Y-13789397D01*
X14986032Y-13789397D02*
X14966984Y-13779873D01*
X14966984Y-13779873D02*
X14957460Y-13760826D01*
X14957460Y-13760826D02*
X14957460Y-13751302D01*
X14957460Y-13751302D02*
X14966984Y-13732254D01*
X14966984Y-13732254D02*
X14986032Y-13722730D01*
X14986032Y-13722730D02*
X15014603Y-13722730D01*
X15014603Y-13722730D02*
X15033651Y-13732254D01*
X15109841Y-13932254D02*
X15119365Y-13922730D01*
X15119365Y-13922730D02*
X15138413Y-13894159D01*
X15138413Y-13894159D02*
X15147937Y-13875111D01*
X15147937Y-13875111D02*
X15157460Y-13846540D01*
X15157460Y-13846540D02*
X15166984Y-13798921D01*
X15166984Y-13798921D02*
X15166984Y-13760826D01*
X15166984Y-13760826D02*
X15157460Y-13713207D01*
X15157460Y-13713207D02*
X15147937Y-13684635D01*
X15147937Y-13684635D02*
X15138413Y-13665588D01*
X15138413Y-13665588D02*
X15119365Y-13637016D01*
X15119365Y-13637016D02*
X15109841Y-13627492D01*
D17*
X10057460Y-13977540D02*
X10157460Y-14077540D01*
X10157460Y-13977540D02*
X10057460Y-14077540D01*
X10157460Y-14027540D02*
G75*
G03*
X10157460Y-14027540I-50000J0D01*
G01*
D11*
X10509841Y-14120064D02*
X10395555Y-14120064D01*
X10452698Y-14120064D02*
X10452698Y-13920064D01*
X10452698Y-13920064D02*
X10433650Y-13948635D01*
X10433650Y-13948635D02*
X10414603Y-13967683D01*
X10414603Y-13967683D02*
X10395555Y-13977207D01*
X10595555Y-14101016D02*
X10605079Y-14110540D01*
X10605079Y-14110540D02*
X10595555Y-14120064D01*
X10595555Y-14120064D02*
X10586031Y-14110540D01*
X10586031Y-14110540D02*
X10595555Y-14101016D01*
X10595555Y-14101016D02*
X10595555Y-14120064D01*
X10728889Y-13920064D02*
X10747936Y-13920064D01*
X10747936Y-13920064D02*
X10766984Y-13929588D01*
X10766984Y-13929588D02*
X10776508Y-13939111D01*
X10776508Y-13939111D02*
X10786031Y-13958159D01*
X10786031Y-13958159D02*
X10795555Y-13996254D01*
X10795555Y-13996254D02*
X10795555Y-14043873D01*
X10795555Y-14043873D02*
X10786031Y-14081968D01*
X10786031Y-14081968D02*
X10776508Y-14101016D01*
X10776508Y-14101016D02*
X10766984Y-14110540D01*
X10766984Y-14110540D02*
X10747936Y-14120064D01*
X10747936Y-14120064D02*
X10728889Y-14120064D01*
X10728889Y-14120064D02*
X10709841Y-14110540D01*
X10709841Y-14110540D02*
X10700317Y-14101016D01*
X10700317Y-14101016D02*
X10690793Y-14081968D01*
X10690793Y-14081968D02*
X10681270Y-14043873D01*
X10681270Y-14043873D02*
X10681270Y-13996254D01*
X10681270Y-13996254D02*
X10690793Y-13958159D01*
X10690793Y-13958159D02*
X10700317Y-13939111D01*
X10700317Y-13939111D02*
X10709841Y-13929588D01*
X10709841Y-13929588D02*
X10728889Y-13920064D01*
X10919365Y-13920064D02*
X10938412Y-13920064D01*
X10938412Y-13920064D02*
X10957460Y-13929588D01*
X10957460Y-13929588D02*
X10966984Y-13939111D01*
X10966984Y-13939111D02*
X10976508Y-13958159D01*
X10976508Y-13958159D02*
X10986031Y-13996254D01*
X10986031Y-13996254D02*
X10986031Y-14043873D01*
X10986031Y-14043873D02*
X10976508Y-14081968D01*
X10976508Y-14081968D02*
X10966984Y-14101016D01*
X10966984Y-14101016D02*
X10957460Y-14110540D01*
X10957460Y-14110540D02*
X10938412Y-14120064D01*
X10938412Y-14120064D02*
X10919365Y-14120064D01*
X10919365Y-14120064D02*
X10900317Y-14110540D01*
X10900317Y-14110540D02*
X10890793Y-14101016D01*
X10890793Y-14101016D02*
X10881270Y-14081968D01*
X10881270Y-14081968D02*
X10871746Y-14043873D01*
X10871746Y-14043873D02*
X10871746Y-13996254D01*
X10871746Y-13996254D02*
X10881270Y-13958159D01*
X10881270Y-13958159D02*
X10890793Y-13939111D01*
X10890793Y-13939111D02*
X10900317Y-13929588D01*
X10900317Y-13929588D02*
X10919365Y-13920064D01*
X11109841Y-13920064D02*
X11128889Y-13920064D01*
X11128889Y-13920064D02*
X11147936Y-13929588D01*
X11147936Y-13929588D02*
X11157460Y-13939111D01*
X11157460Y-13939111D02*
X11166984Y-13958159D01*
X11166984Y-13958159D02*
X11176508Y-13996254D01*
X11176508Y-13996254D02*
X11176508Y-14043873D01*
X11176508Y-14043873D02*
X11166984Y-14081968D01*
X11166984Y-14081968D02*
X11157460Y-14101016D01*
X11157460Y-14101016D02*
X11147936Y-14110540D01*
X11147936Y-14110540D02*
X11128889Y-14120064D01*
X11128889Y-14120064D02*
X11109841Y-14120064D01*
X11109841Y-14120064D02*
X11090793Y-14110540D01*
X11090793Y-14110540D02*
X11081270Y-14101016D01*
X11081270Y-14101016D02*
X11071746Y-14081968D01*
X11071746Y-14081968D02*
X11062222Y-14043873D01*
X11062222Y-14043873D02*
X11062222Y-13996254D01*
X11062222Y-13996254D02*
X11071746Y-13958159D01*
X11071746Y-13958159D02*
X11081270Y-13939111D01*
X11081270Y-13939111D02*
X11090793Y-13929588D01*
X11090793Y-13929588D02*
X11109841Y-13920064D01*
X11262222Y-14120064D02*
X11262222Y-13986730D01*
X11262222Y-14005778D02*
X11271746Y-13996254D01*
X11271746Y-13996254D02*
X11290793Y-13986730D01*
X11290793Y-13986730D02*
X11319365Y-13986730D01*
X11319365Y-13986730D02*
X11338412Y-13996254D01*
X11338412Y-13996254D02*
X11347936Y-14015302D01*
X11347936Y-14015302D02*
X11347936Y-14120064D01*
X11347936Y-14015302D02*
X11357460Y-13996254D01*
X11357460Y-13996254D02*
X11376508Y-13986730D01*
X11376508Y-13986730D02*
X11405079Y-13986730D01*
X11405079Y-13986730D02*
X11424127Y-13996254D01*
X11424127Y-13996254D02*
X11433650Y-14015302D01*
X11433650Y-14015302D02*
X11433650Y-14120064D01*
X11528889Y-14120064D02*
X11528889Y-13986730D01*
X11528889Y-14005778D02*
X11538412Y-13996254D01*
X11538412Y-13996254D02*
X11557460Y-13986730D01*
X11557460Y-13986730D02*
X11586031Y-13986730D01*
X11586031Y-13986730D02*
X11605079Y-13996254D01*
X11605079Y-13996254D02*
X11614603Y-14015302D01*
X11614603Y-14015302D02*
X11614603Y-14120064D01*
X11614603Y-14015302D02*
X11624127Y-13996254D01*
X11624127Y-13996254D02*
X11643174Y-13986730D01*
X11643174Y-13986730D02*
X11671746Y-13986730D01*
X11671746Y-13986730D02*
X11690793Y-13996254D01*
X11690793Y-13996254D02*
X11700317Y-14015302D01*
X11700317Y-14015302D02*
X11700317Y-14120064D01*
X12090793Y-13910540D02*
X11919365Y-14167683D01*
X12347936Y-13920064D02*
X12366984Y-13920064D01*
X12366984Y-13920064D02*
X12386032Y-13929588D01*
X12386032Y-13929588D02*
X12395555Y-13939111D01*
X12395555Y-13939111D02*
X12405079Y-13958159D01*
X12405079Y-13958159D02*
X12414603Y-13996254D01*
X12414603Y-13996254D02*
X12414603Y-14043873D01*
X12414603Y-14043873D02*
X12405079Y-14081968D01*
X12405079Y-14081968D02*
X12395555Y-14101016D01*
X12395555Y-14101016D02*
X12386032Y-14110540D01*
X12386032Y-14110540D02*
X12366984Y-14120064D01*
X12366984Y-14120064D02*
X12347936Y-14120064D01*
X12347936Y-14120064D02*
X12328889Y-14110540D01*
X12328889Y-14110540D02*
X12319365Y-14101016D01*
X12319365Y-14101016D02*
X12309841Y-14081968D01*
X12309841Y-14081968D02*
X12300317Y-14043873D01*
X12300317Y-14043873D02*
X12300317Y-13996254D01*
X12300317Y-13996254D02*
X12309841Y-13958159D01*
X12309841Y-13958159D02*
X12319365Y-13939111D01*
X12319365Y-13939111D02*
X12328889Y-13929588D01*
X12328889Y-13929588D02*
X12347936Y-13920064D01*
X12500317Y-14101016D02*
X12509841Y-14110540D01*
X12509841Y-14110540D02*
X12500317Y-14120064D01*
X12500317Y-14120064D02*
X12490793Y-14110540D01*
X12490793Y-14110540D02*
X12500317Y-14101016D01*
X12500317Y-14101016D02*
X12500317Y-14120064D01*
X12633651Y-13920064D02*
X12652698Y-13920064D01*
X12652698Y-13920064D02*
X12671746Y-13929588D01*
X12671746Y-13929588D02*
X12681270Y-13939111D01*
X12681270Y-13939111D02*
X12690793Y-13958159D01*
X12690793Y-13958159D02*
X12700317Y-13996254D01*
X12700317Y-13996254D02*
X12700317Y-14043873D01*
X12700317Y-14043873D02*
X12690793Y-14081968D01*
X12690793Y-14081968D02*
X12681270Y-14101016D01*
X12681270Y-14101016D02*
X12671746Y-14110540D01*
X12671746Y-14110540D02*
X12652698Y-14120064D01*
X12652698Y-14120064D02*
X12633651Y-14120064D01*
X12633651Y-14120064D02*
X12614603Y-14110540D01*
X12614603Y-14110540D02*
X12605079Y-14101016D01*
X12605079Y-14101016D02*
X12595555Y-14081968D01*
X12595555Y-14081968D02*
X12586032Y-14043873D01*
X12586032Y-14043873D02*
X12586032Y-13996254D01*
X12586032Y-13996254D02*
X12595555Y-13958159D01*
X12595555Y-13958159D02*
X12605079Y-13939111D01*
X12605079Y-13939111D02*
X12614603Y-13929588D01*
X12614603Y-13929588D02*
X12633651Y-13920064D01*
X12766984Y-13920064D02*
X12890793Y-13920064D01*
X12890793Y-13920064D02*
X12824127Y-13996254D01*
X12824127Y-13996254D02*
X12852698Y-13996254D01*
X12852698Y-13996254D02*
X12871746Y-14005778D01*
X12871746Y-14005778D02*
X12881270Y-14015302D01*
X12881270Y-14015302D02*
X12890793Y-14034349D01*
X12890793Y-14034349D02*
X12890793Y-14081968D01*
X12890793Y-14081968D02*
X12881270Y-14101016D01*
X12881270Y-14101016D02*
X12871746Y-14110540D01*
X12871746Y-14110540D02*
X12852698Y-14120064D01*
X12852698Y-14120064D02*
X12795555Y-14120064D01*
X12795555Y-14120064D02*
X12776508Y-14110540D01*
X12776508Y-14110540D02*
X12766984Y-14101016D01*
X12986032Y-14120064D02*
X13024127Y-14120064D01*
X13024127Y-14120064D02*
X13043174Y-14110540D01*
X13043174Y-14110540D02*
X13052698Y-14101016D01*
X13052698Y-14101016D02*
X13071746Y-14072445D01*
X13071746Y-14072445D02*
X13081270Y-14034349D01*
X13081270Y-14034349D02*
X13081270Y-13958159D01*
X13081270Y-13958159D02*
X13071746Y-13939111D01*
X13071746Y-13939111D02*
X13062222Y-13929588D01*
X13062222Y-13929588D02*
X13043174Y-13920064D01*
X13043174Y-13920064D02*
X13005079Y-13920064D01*
X13005079Y-13920064D02*
X12986032Y-13929588D01*
X12986032Y-13929588D02*
X12976508Y-13939111D01*
X12976508Y-13939111D02*
X12966984Y-13958159D01*
X12966984Y-13958159D02*
X12966984Y-14005778D01*
X12966984Y-14005778D02*
X12976508Y-14024826D01*
X12976508Y-14024826D02*
X12986032Y-14034349D01*
X12986032Y-14034349D02*
X13005079Y-14043873D01*
X13005079Y-14043873D02*
X13043174Y-14043873D01*
X13043174Y-14043873D02*
X13062222Y-14034349D01*
X13062222Y-14034349D02*
X13071746Y-14024826D01*
X13071746Y-14024826D02*
X13081270Y-14005778D01*
X13252698Y-13986730D02*
X13252698Y-14120064D01*
X13205079Y-13910540D02*
X13157460Y-14053397D01*
X13157460Y-14053397D02*
X13281270Y-14053397D01*
X13347936Y-13920064D02*
X13347936Y-13958159D01*
X13424127Y-13920064D02*
X13424127Y-13958159D01*
X13719365Y-14196254D02*
X13709841Y-14186730D01*
X13709841Y-14186730D02*
X13690794Y-14158159D01*
X13690794Y-14158159D02*
X13681270Y-14139111D01*
X13681270Y-14139111D02*
X13671746Y-14110540D01*
X13671746Y-14110540D02*
X13662222Y-14062921D01*
X13662222Y-14062921D02*
X13662222Y-14024826D01*
X13662222Y-14024826D02*
X13671746Y-13977207D01*
X13671746Y-13977207D02*
X13681270Y-13948635D01*
X13681270Y-13948635D02*
X13690794Y-13929588D01*
X13690794Y-13929588D02*
X13709841Y-13901016D01*
X13709841Y-13901016D02*
X13719365Y-13891492D01*
X13776508Y-13920064D02*
X13900317Y-13920064D01*
X13900317Y-13920064D02*
X13833651Y-13996254D01*
X13833651Y-13996254D02*
X13862222Y-13996254D01*
X13862222Y-13996254D02*
X13881270Y-14005778D01*
X13881270Y-14005778D02*
X13890794Y-14015302D01*
X13890794Y-14015302D02*
X13900317Y-14034349D01*
X13900317Y-14034349D02*
X13900317Y-14081968D01*
X13900317Y-14081968D02*
X13890794Y-14101016D01*
X13890794Y-14101016D02*
X13881270Y-14110540D01*
X13881270Y-14110540D02*
X13862222Y-14120064D01*
X13862222Y-14120064D02*
X13805079Y-14120064D01*
X13805079Y-14120064D02*
X13786032Y-14110540D01*
X13786032Y-14110540D02*
X13776508Y-14101016D01*
X14071746Y-13986730D02*
X14071746Y-14120064D01*
X14024127Y-13910540D02*
X13976508Y-14053397D01*
X13976508Y-14053397D02*
X14100317Y-14053397D01*
X14328889Y-14120064D02*
X14328889Y-13920064D01*
X14414603Y-14120064D02*
X14414603Y-14015302D01*
X14414603Y-14015302D02*
X14405079Y-13996254D01*
X14405079Y-13996254D02*
X14386032Y-13986730D01*
X14386032Y-13986730D02*
X14357460Y-13986730D01*
X14357460Y-13986730D02*
X14338413Y-13996254D01*
X14338413Y-13996254D02*
X14328889Y-14005778D01*
X14538413Y-14120064D02*
X14519365Y-14110540D01*
X14519365Y-14110540D02*
X14509841Y-14101016D01*
X14509841Y-14101016D02*
X14500317Y-14081968D01*
X14500317Y-14081968D02*
X14500317Y-14024826D01*
X14500317Y-14024826D02*
X14509841Y-14005778D01*
X14509841Y-14005778D02*
X14519365Y-13996254D01*
X14519365Y-13996254D02*
X14538413Y-13986730D01*
X14538413Y-13986730D02*
X14566984Y-13986730D01*
X14566984Y-13986730D02*
X14586032Y-13996254D01*
X14586032Y-13996254D02*
X14595556Y-14005778D01*
X14595556Y-14005778D02*
X14605079Y-14024826D01*
X14605079Y-14024826D02*
X14605079Y-14081968D01*
X14605079Y-14081968D02*
X14595556Y-14101016D01*
X14595556Y-14101016D02*
X14586032Y-14110540D01*
X14586032Y-14110540D02*
X14566984Y-14120064D01*
X14566984Y-14120064D02*
X14538413Y-14120064D01*
X14719365Y-14120064D02*
X14700317Y-14110540D01*
X14700317Y-14110540D02*
X14690794Y-14091492D01*
X14690794Y-14091492D02*
X14690794Y-13920064D01*
X14871746Y-14110540D02*
X14852698Y-14120064D01*
X14852698Y-14120064D02*
X14814603Y-14120064D01*
X14814603Y-14120064D02*
X14795556Y-14110540D01*
X14795556Y-14110540D02*
X14786032Y-14091492D01*
X14786032Y-14091492D02*
X14786032Y-14015302D01*
X14786032Y-14015302D02*
X14795556Y-13996254D01*
X14795556Y-13996254D02*
X14814603Y-13986730D01*
X14814603Y-13986730D02*
X14852698Y-13986730D01*
X14852698Y-13986730D02*
X14871746Y-13996254D01*
X14871746Y-13996254D02*
X14881270Y-14015302D01*
X14881270Y-14015302D02*
X14881270Y-14034349D01*
X14881270Y-14034349D02*
X14786032Y-14053397D01*
X14957460Y-14110540D02*
X14976508Y-14120064D01*
X14976508Y-14120064D02*
X15014603Y-14120064D01*
X15014603Y-14120064D02*
X15033651Y-14110540D01*
X15033651Y-14110540D02*
X15043175Y-14091492D01*
X15043175Y-14091492D02*
X15043175Y-14081968D01*
X15043175Y-14081968D02*
X15033651Y-14062921D01*
X15033651Y-14062921D02*
X15014603Y-14053397D01*
X15014603Y-14053397D02*
X14986032Y-14053397D01*
X14986032Y-14053397D02*
X14966984Y-14043873D01*
X14966984Y-14043873D02*
X14957460Y-14024826D01*
X14957460Y-14024826D02*
X14957460Y-14015302D01*
X14957460Y-14015302D02*
X14966984Y-13996254D01*
X14966984Y-13996254D02*
X14986032Y-13986730D01*
X14986032Y-13986730D02*
X15014603Y-13986730D01*
X15014603Y-13986730D02*
X15033651Y-13996254D01*
X15109841Y-14196254D02*
X15119365Y-14186730D01*
X15119365Y-14186730D02*
X15138413Y-14158159D01*
X15138413Y-14158159D02*
X15147937Y-14139111D01*
X15147937Y-14139111D02*
X15157460Y-14110540D01*
X15157460Y-14110540D02*
X15166984Y-14062921D01*
X15166984Y-14062921D02*
X15166984Y-14024826D01*
X15166984Y-14024826D02*
X15157460Y-13977207D01*
X15157460Y-13977207D02*
X15147937Y-13948635D01*
X15147937Y-13948635D02*
X15138413Y-13929588D01*
X15138413Y-13929588D02*
X15119365Y-13901016D01*
X15119365Y-13901016D02*
X15109841Y-13891492D01*
D18*
X10047460Y-14236540D02*
X10157460Y-14346540D01*
X10157460Y-14236540D02*
X10047460Y-14346540D01*
X10102460Y-14236540D02*
X10102460Y-14346540D01*
X10047460Y-14291540D02*
X10157460Y-14291540D01*
D11*
X10509841Y-14384064D02*
X10395555Y-14384064D01*
X10452698Y-14384064D02*
X10452698Y-14184064D01*
X10452698Y-14184064D02*
X10433650Y-14212635D01*
X10433650Y-14212635D02*
X10414603Y-14231683D01*
X10414603Y-14231683D02*
X10395555Y-14241207D01*
X10595555Y-14365016D02*
X10605079Y-14374540D01*
X10605079Y-14374540D02*
X10595555Y-14384064D01*
X10595555Y-14384064D02*
X10586031Y-14374540D01*
X10586031Y-14374540D02*
X10595555Y-14365016D01*
X10595555Y-14365016D02*
X10595555Y-14384064D01*
X10795555Y-14384064D02*
X10681270Y-14384064D01*
X10738412Y-14384064D02*
X10738412Y-14184064D01*
X10738412Y-14184064D02*
X10719365Y-14212635D01*
X10719365Y-14212635D02*
X10700317Y-14231683D01*
X10700317Y-14231683D02*
X10681270Y-14241207D01*
X10919365Y-14184064D02*
X10938412Y-14184064D01*
X10938412Y-14184064D02*
X10957460Y-14193588D01*
X10957460Y-14193588D02*
X10966984Y-14203111D01*
X10966984Y-14203111D02*
X10976508Y-14222159D01*
X10976508Y-14222159D02*
X10986031Y-14260254D01*
X10986031Y-14260254D02*
X10986031Y-14307873D01*
X10986031Y-14307873D02*
X10976508Y-14345968D01*
X10976508Y-14345968D02*
X10966984Y-14365016D01*
X10966984Y-14365016D02*
X10957460Y-14374540D01*
X10957460Y-14374540D02*
X10938412Y-14384064D01*
X10938412Y-14384064D02*
X10919365Y-14384064D01*
X10919365Y-14384064D02*
X10900317Y-14374540D01*
X10900317Y-14374540D02*
X10890793Y-14365016D01*
X10890793Y-14365016D02*
X10881270Y-14345968D01*
X10881270Y-14345968D02*
X10871746Y-14307873D01*
X10871746Y-14307873D02*
X10871746Y-14260254D01*
X10871746Y-14260254D02*
X10881270Y-14222159D01*
X10881270Y-14222159D02*
X10890793Y-14203111D01*
X10890793Y-14203111D02*
X10900317Y-14193588D01*
X10900317Y-14193588D02*
X10919365Y-14184064D01*
X11109841Y-14184064D02*
X11128889Y-14184064D01*
X11128889Y-14184064D02*
X11147936Y-14193588D01*
X11147936Y-14193588D02*
X11157460Y-14203111D01*
X11157460Y-14203111D02*
X11166984Y-14222159D01*
X11166984Y-14222159D02*
X11176508Y-14260254D01*
X11176508Y-14260254D02*
X11176508Y-14307873D01*
X11176508Y-14307873D02*
X11166984Y-14345968D01*
X11166984Y-14345968D02*
X11157460Y-14365016D01*
X11157460Y-14365016D02*
X11147936Y-14374540D01*
X11147936Y-14374540D02*
X11128889Y-14384064D01*
X11128889Y-14384064D02*
X11109841Y-14384064D01*
X11109841Y-14384064D02*
X11090793Y-14374540D01*
X11090793Y-14374540D02*
X11081270Y-14365016D01*
X11081270Y-14365016D02*
X11071746Y-14345968D01*
X11071746Y-14345968D02*
X11062222Y-14307873D01*
X11062222Y-14307873D02*
X11062222Y-14260254D01*
X11062222Y-14260254D02*
X11071746Y-14222159D01*
X11071746Y-14222159D02*
X11081270Y-14203111D01*
X11081270Y-14203111D02*
X11090793Y-14193588D01*
X11090793Y-14193588D02*
X11109841Y-14184064D01*
X11262222Y-14384064D02*
X11262222Y-14250730D01*
X11262222Y-14269778D02*
X11271746Y-14260254D01*
X11271746Y-14260254D02*
X11290793Y-14250730D01*
X11290793Y-14250730D02*
X11319365Y-14250730D01*
X11319365Y-14250730D02*
X11338412Y-14260254D01*
X11338412Y-14260254D02*
X11347936Y-14279302D01*
X11347936Y-14279302D02*
X11347936Y-14384064D01*
X11347936Y-14279302D02*
X11357460Y-14260254D01*
X11357460Y-14260254D02*
X11376508Y-14250730D01*
X11376508Y-14250730D02*
X11405079Y-14250730D01*
X11405079Y-14250730D02*
X11424127Y-14260254D01*
X11424127Y-14260254D02*
X11433650Y-14279302D01*
X11433650Y-14279302D02*
X11433650Y-14384064D01*
X11528889Y-14384064D02*
X11528889Y-14250730D01*
X11528889Y-14269778D02*
X11538412Y-14260254D01*
X11538412Y-14260254D02*
X11557460Y-14250730D01*
X11557460Y-14250730D02*
X11586031Y-14250730D01*
X11586031Y-14250730D02*
X11605079Y-14260254D01*
X11605079Y-14260254D02*
X11614603Y-14279302D01*
X11614603Y-14279302D02*
X11614603Y-14384064D01*
X11614603Y-14279302D02*
X11624127Y-14260254D01*
X11624127Y-14260254D02*
X11643174Y-14250730D01*
X11643174Y-14250730D02*
X11671746Y-14250730D01*
X11671746Y-14250730D02*
X11690793Y-14260254D01*
X11690793Y-14260254D02*
X11700317Y-14279302D01*
X11700317Y-14279302D02*
X11700317Y-14384064D01*
X12090793Y-14174540D02*
X11919365Y-14431683D01*
X12347936Y-14184064D02*
X12366984Y-14184064D01*
X12366984Y-14184064D02*
X12386032Y-14193588D01*
X12386032Y-14193588D02*
X12395555Y-14203111D01*
X12395555Y-14203111D02*
X12405079Y-14222159D01*
X12405079Y-14222159D02*
X12414603Y-14260254D01*
X12414603Y-14260254D02*
X12414603Y-14307873D01*
X12414603Y-14307873D02*
X12405079Y-14345968D01*
X12405079Y-14345968D02*
X12395555Y-14365016D01*
X12395555Y-14365016D02*
X12386032Y-14374540D01*
X12386032Y-14374540D02*
X12366984Y-14384064D01*
X12366984Y-14384064D02*
X12347936Y-14384064D01*
X12347936Y-14384064D02*
X12328889Y-14374540D01*
X12328889Y-14374540D02*
X12319365Y-14365016D01*
X12319365Y-14365016D02*
X12309841Y-14345968D01*
X12309841Y-14345968D02*
X12300317Y-14307873D01*
X12300317Y-14307873D02*
X12300317Y-14260254D01*
X12300317Y-14260254D02*
X12309841Y-14222159D01*
X12309841Y-14222159D02*
X12319365Y-14203111D01*
X12319365Y-14203111D02*
X12328889Y-14193588D01*
X12328889Y-14193588D02*
X12347936Y-14184064D01*
X12500317Y-14365016D02*
X12509841Y-14374540D01*
X12509841Y-14374540D02*
X12500317Y-14384064D01*
X12500317Y-14384064D02*
X12490793Y-14374540D01*
X12490793Y-14374540D02*
X12500317Y-14365016D01*
X12500317Y-14365016D02*
X12500317Y-14384064D01*
X12633651Y-14184064D02*
X12652698Y-14184064D01*
X12652698Y-14184064D02*
X12671746Y-14193588D01*
X12671746Y-14193588D02*
X12681270Y-14203111D01*
X12681270Y-14203111D02*
X12690793Y-14222159D01*
X12690793Y-14222159D02*
X12700317Y-14260254D01*
X12700317Y-14260254D02*
X12700317Y-14307873D01*
X12700317Y-14307873D02*
X12690793Y-14345968D01*
X12690793Y-14345968D02*
X12681270Y-14365016D01*
X12681270Y-14365016D02*
X12671746Y-14374540D01*
X12671746Y-14374540D02*
X12652698Y-14384064D01*
X12652698Y-14384064D02*
X12633651Y-14384064D01*
X12633651Y-14384064D02*
X12614603Y-14374540D01*
X12614603Y-14374540D02*
X12605079Y-14365016D01*
X12605079Y-14365016D02*
X12595555Y-14345968D01*
X12595555Y-14345968D02*
X12586032Y-14307873D01*
X12586032Y-14307873D02*
X12586032Y-14260254D01*
X12586032Y-14260254D02*
X12595555Y-14222159D01*
X12595555Y-14222159D02*
X12605079Y-14203111D01*
X12605079Y-14203111D02*
X12614603Y-14193588D01*
X12614603Y-14193588D02*
X12633651Y-14184064D01*
X12871746Y-14250730D02*
X12871746Y-14384064D01*
X12824127Y-14174540D02*
X12776508Y-14317397D01*
X12776508Y-14317397D02*
X12900317Y-14317397D01*
X12957460Y-14184064D02*
X13081270Y-14184064D01*
X13081270Y-14184064D02*
X13014603Y-14260254D01*
X13014603Y-14260254D02*
X13043174Y-14260254D01*
X13043174Y-14260254D02*
X13062222Y-14269778D01*
X13062222Y-14269778D02*
X13071746Y-14279302D01*
X13071746Y-14279302D02*
X13081270Y-14298349D01*
X13081270Y-14298349D02*
X13081270Y-14345968D01*
X13081270Y-14345968D02*
X13071746Y-14365016D01*
X13071746Y-14365016D02*
X13062222Y-14374540D01*
X13062222Y-14374540D02*
X13043174Y-14384064D01*
X13043174Y-14384064D02*
X12986032Y-14384064D01*
X12986032Y-14384064D02*
X12966984Y-14374540D01*
X12966984Y-14374540D02*
X12957460Y-14365016D01*
X13147936Y-14184064D02*
X13271746Y-14184064D01*
X13271746Y-14184064D02*
X13205079Y-14260254D01*
X13205079Y-14260254D02*
X13233651Y-14260254D01*
X13233651Y-14260254D02*
X13252698Y-14269778D01*
X13252698Y-14269778D02*
X13262222Y-14279302D01*
X13262222Y-14279302D02*
X13271746Y-14298349D01*
X13271746Y-14298349D02*
X13271746Y-14345968D01*
X13271746Y-14345968D02*
X13262222Y-14365016D01*
X13262222Y-14365016D02*
X13252698Y-14374540D01*
X13252698Y-14374540D02*
X13233651Y-14384064D01*
X13233651Y-14384064D02*
X13176508Y-14384064D01*
X13176508Y-14384064D02*
X13157460Y-14374540D01*
X13157460Y-14374540D02*
X13147936Y-14365016D01*
X13347936Y-14184064D02*
X13347936Y-14222159D01*
X13424127Y-14184064D02*
X13424127Y-14222159D01*
X13719365Y-14460254D02*
X13709841Y-14450730D01*
X13709841Y-14450730D02*
X13690794Y-14422159D01*
X13690794Y-14422159D02*
X13681270Y-14403111D01*
X13681270Y-14403111D02*
X13671746Y-14374540D01*
X13671746Y-14374540D02*
X13662222Y-14326921D01*
X13662222Y-14326921D02*
X13662222Y-14288826D01*
X13662222Y-14288826D02*
X13671746Y-14241207D01*
X13671746Y-14241207D02*
X13681270Y-14212635D01*
X13681270Y-14212635D02*
X13690794Y-14193588D01*
X13690794Y-14193588D02*
X13709841Y-14165016D01*
X13709841Y-14165016D02*
X13719365Y-14155492D01*
X13786032Y-14203111D02*
X13795555Y-14193588D01*
X13795555Y-14193588D02*
X13814603Y-14184064D01*
X13814603Y-14184064D02*
X13862222Y-14184064D01*
X13862222Y-14184064D02*
X13881270Y-14193588D01*
X13881270Y-14193588D02*
X13890794Y-14203111D01*
X13890794Y-14203111D02*
X13900317Y-14222159D01*
X13900317Y-14222159D02*
X13900317Y-14241207D01*
X13900317Y-14241207D02*
X13890794Y-14269778D01*
X13890794Y-14269778D02*
X13776508Y-14384064D01*
X13776508Y-14384064D02*
X13900317Y-14384064D01*
X13966984Y-14184064D02*
X14090794Y-14184064D01*
X14090794Y-14184064D02*
X14024127Y-14260254D01*
X14024127Y-14260254D02*
X14052698Y-14260254D01*
X14052698Y-14260254D02*
X14071746Y-14269778D01*
X14071746Y-14269778D02*
X14081270Y-14279302D01*
X14081270Y-14279302D02*
X14090794Y-14298349D01*
X14090794Y-14298349D02*
X14090794Y-14345968D01*
X14090794Y-14345968D02*
X14081270Y-14365016D01*
X14081270Y-14365016D02*
X14071746Y-14374540D01*
X14071746Y-14374540D02*
X14052698Y-14384064D01*
X14052698Y-14384064D02*
X13995555Y-14384064D01*
X13995555Y-14384064D02*
X13976508Y-14374540D01*
X13976508Y-14374540D02*
X13966984Y-14365016D01*
X14328889Y-14384064D02*
X14328889Y-14184064D01*
X14414603Y-14384064D02*
X14414603Y-14279302D01*
X14414603Y-14279302D02*
X14405079Y-14260254D01*
X14405079Y-14260254D02*
X14386032Y-14250730D01*
X14386032Y-14250730D02*
X14357460Y-14250730D01*
X14357460Y-14250730D02*
X14338413Y-14260254D01*
X14338413Y-14260254D02*
X14328889Y-14269778D01*
X14538413Y-14384064D02*
X14519365Y-14374540D01*
X14519365Y-14374540D02*
X14509841Y-14365016D01*
X14509841Y-14365016D02*
X14500317Y-14345968D01*
X14500317Y-14345968D02*
X14500317Y-14288826D01*
X14500317Y-14288826D02*
X14509841Y-14269778D01*
X14509841Y-14269778D02*
X14519365Y-14260254D01*
X14519365Y-14260254D02*
X14538413Y-14250730D01*
X14538413Y-14250730D02*
X14566984Y-14250730D01*
X14566984Y-14250730D02*
X14586032Y-14260254D01*
X14586032Y-14260254D02*
X14595556Y-14269778D01*
X14595556Y-14269778D02*
X14605079Y-14288826D01*
X14605079Y-14288826D02*
X14605079Y-14345968D01*
X14605079Y-14345968D02*
X14595556Y-14365016D01*
X14595556Y-14365016D02*
X14586032Y-14374540D01*
X14586032Y-14374540D02*
X14566984Y-14384064D01*
X14566984Y-14384064D02*
X14538413Y-14384064D01*
X14719365Y-14384064D02*
X14700317Y-14374540D01*
X14700317Y-14374540D02*
X14690794Y-14355492D01*
X14690794Y-14355492D02*
X14690794Y-14184064D01*
X14871746Y-14374540D02*
X14852698Y-14384064D01*
X14852698Y-14384064D02*
X14814603Y-14384064D01*
X14814603Y-14384064D02*
X14795556Y-14374540D01*
X14795556Y-14374540D02*
X14786032Y-14355492D01*
X14786032Y-14355492D02*
X14786032Y-14279302D01*
X14786032Y-14279302D02*
X14795556Y-14260254D01*
X14795556Y-14260254D02*
X14814603Y-14250730D01*
X14814603Y-14250730D02*
X14852698Y-14250730D01*
X14852698Y-14250730D02*
X14871746Y-14260254D01*
X14871746Y-14260254D02*
X14881270Y-14279302D01*
X14881270Y-14279302D02*
X14881270Y-14298349D01*
X14881270Y-14298349D02*
X14786032Y-14317397D01*
X14957460Y-14374540D02*
X14976508Y-14384064D01*
X14976508Y-14384064D02*
X15014603Y-14384064D01*
X15014603Y-14384064D02*
X15033651Y-14374540D01*
X15033651Y-14374540D02*
X15043175Y-14355492D01*
X15043175Y-14355492D02*
X15043175Y-14345968D01*
X15043175Y-14345968D02*
X15033651Y-14326921D01*
X15033651Y-14326921D02*
X15014603Y-14317397D01*
X15014603Y-14317397D02*
X14986032Y-14317397D01*
X14986032Y-14317397D02*
X14966984Y-14307873D01*
X14966984Y-14307873D02*
X14957460Y-14288826D01*
X14957460Y-14288826D02*
X14957460Y-14279302D01*
X14957460Y-14279302D02*
X14966984Y-14260254D01*
X14966984Y-14260254D02*
X14986032Y-14250730D01*
X14986032Y-14250730D02*
X15014603Y-14250730D01*
X15014603Y-14250730D02*
X15033651Y-14260254D01*
X15109841Y-14460254D02*
X15119365Y-14450730D01*
X15119365Y-14450730D02*
X15138413Y-14422159D01*
X15138413Y-14422159D02*
X15147937Y-14403111D01*
X15147937Y-14403111D02*
X15157460Y-14374540D01*
X15157460Y-14374540D02*
X15166984Y-14326921D01*
X15166984Y-14326921D02*
X15166984Y-14288826D01*
X15166984Y-14288826D02*
X15157460Y-14241207D01*
X15157460Y-14241207D02*
X15147937Y-14212635D01*
X15147937Y-14212635D02*
X15138413Y-14193588D01*
X15138413Y-14193588D02*
X15119365Y-14165016D01*
X15119365Y-14165016D02*
X15109841Y-14155492D01*
D19*
X10037460Y-14495540D02*
X10157460Y-14615540D01*
X10157460Y-14495540D02*
X10037460Y-14615540D01*
X10139887Y-14597967D02*
X10139887Y-14513113D01*
X10055033Y-14513113D01*
X10055033Y-14597967D01*
X10139887Y-14597967D01*
D11*
X10509841Y-14648064D02*
X10395555Y-14648064D01*
X10452698Y-14648064D02*
X10452698Y-14448064D01*
X10452698Y-14448064D02*
X10433650Y-14476635D01*
X10433650Y-14476635D02*
X10414603Y-14495683D01*
X10414603Y-14495683D02*
X10395555Y-14505207D01*
X10595555Y-14629016D02*
X10605079Y-14638540D01*
X10605079Y-14638540D02*
X10595555Y-14648064D01*
X10595555Y-14648064D02*
X10586031Y-14638540D01*
X10586031Y-14638540D02*
X10595555Y-14629016D01*
X10595555Y-14629016D02*
X10595555Y-14648064D01*
X10681270Y-14467111D02*
X10690793Y-14457588D01*
X10690793Y-14457588D02*
X10709841Y-14448064D01*
X10709841Y-14448064D02*
X10757460Y-14448064D01*
X10757460Y-14448064D02*
X10776508Y-14457588D01*
X10776508Y-14457588D02*
X10786031Y-14467111D01*
X10786031Y-14467111D02*
X10795555Y-14486159D01*
X10795555Y-14486159D02*
X10795555Y-14505207D01*
X10795555Y-14505207D02*
X10786031Y-14533778D01*
X10786031Y-14533778D02*
X10671746Y-14648064D01*
X10671746Y-14648064D02*
X10795555Y-14648064D01*
X10919365Y-14448064D02*
X10938412Y-14448064D01*
X10938412Y-14448064D02*
X10957460Y-14457588D01*
X10957460Y-14457588D02*
X10966984Y-14467111D01*
X10966984Y-14467111D02*
X10976508Y-14486159D01*
X10976508Y-14486159D02*
X10986031Y-14524254D01*
X10986031Y-14524254D02*
X10986031Y-14571873D01*
X10986031Y-14571873D02*
X10976508Y-14609968D01*
X10976508Y-14609968D02*
X10966984Y-14629016D01*
X10966984Y-14629016D02*
X10957460Y-14638540D01*
X10957460Y-14638540D02*
X10938412Y-14648064D01*
X10938412Y-14648064D02*
X10919365Y-14648064D01*
X10919365Y-14648064D02*
X10900317Y-14638540D01*
X10900317Y-14638540D02*
X10890793Y-14629016D01*
X10890793Y-14629016D02*
X10881270Y-14609968D01*
X10881270Y-14609968D02*
X10871746Y-14571873D01*
X10871746Y-14571873D02*
X10871746Y-14524254D01*
X10871746Y-14524254D02*
X10881270Y-14486159D01*
X10881270Y-14486159D02*
X10890793Y-14467111D01*
X10890793Y-14467111D02*
X10900317Y-14457588D01*
X10900317Y-14457588D02*
X10919365Y-14448064D01*
X11109841Y-14448064D02*
X11128889Y-14448064D01*
X11128889Y-14448064D02*
X11147936Y-14457588D01*
X11147936Y-14457588D02*
X11157460Y-14467111D01*
X11157460Y-14467111D02*
X11166984Y-14486159D01*
X11166984Y-14486159D02*
X11176508Y-14524254D01*
X11176508Y-14524254D02*
X11176508Y-14571873D01*
X11176508Y-14571873D02*
X11166984Y-14609968D01*
X11166984Y-14609968D02*
X11157460Y-14629016D01*
X11157460Y-14629016D02*
X11147936Y-14638540D01*
X11147936Y-14638540D02*
X11128889Y-14648064D01*
X11128889Y-14648064D02*
X11109841Y-14648064D01*
X11109841Y-14648064D02*
X11090793Y-14638540D01*
X11090793Y-14638540D02*
X11081270Y-14629016D01*
X11081270Y-14629016D02*
X11071746Y-14609968D01*
X11071746Y-14609968D02*
X11062222Y-14571873D01*
X11062222Y-14571873D02*
X11062222Y-14524254D01*
X11062222Y-14524254D02*
X11071746Y-14486159D01*
X11071746Y-14486159D02*
X11081270Y-14467111D01*
X11081270Y-14467111D02*
X11090793Y-14457588D01*
X11090793Y-14457588D02*
X11109841Y-14448064D01*
X11262222Y-14648064D02*
X11262222Y-14514730D01*
X11262222Y-14533778D02*
X11271746Y-14524254D01*
X11271746Y-14524254D02*
X11290793Y-14514730D01*
X11290793Y-14514730D02*
X11319365Y-14514730D01*
X11319365Y-14514730D02*
X11338412Y-14524254D01*
X11338412Y-14524254D02*
X11347936Y-14543302D01*
X11347936Y-14543302D02*
X11347936Y-14648064D01*
X11347936Y-14543302D02*
X11357460Y-14524254D01*
X11357460Y-14524254D02*
X11376508Y-14514730D01*
X11376508Y-14514730D02*
X11405079Y-14514730D01*
X11405079Y-14514730D02*
X11424127Y-14524254D01*
X11424127Y-14524254D02*
X11433650Y-14543302D01*
X11433650Y-14543302D02*
X11433650Y-14648064D01*
X11528889Y-14648064D02*
X11528889Y-14514730D01*
X11528889Y-14533778D02*
X11538412Y-14524254D01*
X11538412Y-14524254D02*
X11557460Y-14514730D01*
X11557460Y-14514730D02*
X11586031Y-14514730D01*
X11586031Y-14514730D02*
X11605079Y-14524254D01*
X11605079Y-14524254D02*
X11614603Y-14543302D01*
X11614603Y-14543302D02*
X11614603Y-14648064D01*
X11614603Y-14543302D02*
X11624127Y-14524254D01*
X11624127Y-14524254D02*
X11643174Y-14514730D01*
X11643174Y-14514730D02*
X11671746Y-14514730D01*
X11671746Y-14514730D02*
X11690793Y-14524254D01*
X11690793Y-14524254D02*
X11700317Y-14543302D01*
X11700317Y-14543302D02*
X11700317Y-14648064D01*
X12090793Y-14438540D02*
X11919365Y-14695683D01*
X12347936Y-14448064D02*
X12366984Y-14448064D01*
X12366984Y-14448064D02*
X12386032Y-14457588D01*
X12386032Y-14457588D02*
X12395555Y-14467111D01*
X12395555Y-14467111D02*
X12405079Y-14486159D01*
X12405079Y-14486159D02*
X12414603Y-14524254D01*
X12414603Y-14524254D02*
X12414603Y-14571873D01*
X12414603Y-14571873D02*
X12405079Y-14609968D01*
X12405079Y-14609968D02*
X12395555Y-14629016D01*
X12395555Y-14629016D02*
X12386032Y-14638540D01*
X12386032Y-14638540D02*
X12366984Y-14648064D01*
X12366984Y-14648064D02*
X12347936Y-14648064D01*
X12347936Y-14648064D02*
X12328889Y-14638540D01*
X12328889Y-14638540D02*
X12319365Y-14629016D01*
X12319365Y-14629016D02*
X12309841Y-14609968D01*
X12309841Y-14609968D02*
X12300317Y-14571873D01*
X12300317Y-14571873D02*
X12300317Y-14524254D01*
X12300317Y-14524254D02*
X12309841Y-14486159D01*
X12309841Y-14486159D02*
X12319365Y-14467111D01*
X12319365Y-14467111D02*
X12328889Y-14457588D01*
X12328889Y-14457588D02*
X12347936Y-14448064D01*
X12500317Y-14629016D02*
X12509841Y-14638540D01*
X12509841Y-14638540D02*
X12500317Y-14648064D01*
X12500317Y-14648064D02*
X12490793Y-14638540D01*
X12490793Y-14638540D02*
X12500317Y-14629016D01*
X12500317Y-14629016D02*
X12500317Y-14648064D01*
X12633651Y-14448064D02*
X12652698Y-14448064D01*
X12652698Y-14448064D02*
X12671746Y-14457588D01*
X12671746Y-14457588D02*
X12681270Y-14467111D01*
X12681270Y-14467111D02*
X12690793Y-14486159D01*
X12690793Y-14486159D02*
X12700317Y-14524254D01*
X12700317Y-14524254D02*
X12700317Y-14571873D01*
X12700317Y-14571873D02*
X12690793Y-14609968D01*
X12690793Y-14609968D02*
X12681270Y-14629016D01*
X12681270Y-14629016D02*
X12671746Y-14638540D01*
X12671746Y-14638540D02*
X12652698Y-14648064D01*
X12652698Y-14648064D02*
X12633651Y-14648064D01*
X12633651Y-14648064D02*
X12614603Y-14638540D01*
X12614603Y-14638540D02*
X12605079Y-14629016D01*
X12605079Y-14629016D02*
X12595555Y-14609968D01*
X12595555Y-14609968D02*
X12586032Y-14571873D01*
X12586032Y-14571873D02*
X12586032Y-14524254D01*
X12586032Y-14524254D02*
X12595555Y-14486159D01*
X12595555Y-14486159D02*
X12605079Y-14467111D01*
X12605079Y-14467111D02*
X12614603Y-14457588D01*
X12614603Y-14457588D02*
X12633651Y-14448064D01*
X12871746Y-14514730D02*
X12871746Y-14648064D01*
X12824127Y-14438540D02*
X12776508Y-14581397D01*
X12776508Y-14581397D02*
X12900317Y-14581397D01*
X12957460Y-14448064D02*
X13090793Y-14448064D01*
X13090793Y-14448064D02*
X13005079Y-14648064D01*
X13157460Y-14467111D02*
X13166984Y-14457588D01*
X13166984Y-14457588D02*
X13186032Y-14448064D01*
X13186032Y-14448064D02*
X13233651Y-14448064D01*
X13233651Y-14448064D02*
X13252698Y-14457588D01*
X13252698Y-14457588D02*
X13262222Y-14467111D01*
X13262222Y-14467111D02*
X13271746Y-14486159D01*
X13271746Y-14486159D02*
X13271746Y-14505207D01*
X13271746Y-14505207D02*
X13262222Y-14533778D01*
X13262222Y-14533778D02*
X13147936Y-14648064D01*
X13147936Y-14648064D02*
X13271746Y-14648064D01*
X13347936Y-14448064D02*
X13347936Y-14486159D01*
X13424127Y-14448064D02*
X13424127Y-14486159D01*
X13719365Y-14724254D02*
X13709841Y-14714730D01*
X13709841Y-14714730D02*
X13690794Y-14686159D01*
X13690794Y-14686159D02*
X13681270Y-14667111D01*
X13681270Y-14667111D02*
X13671746Y-14638540D01*
X13671746Y-14638540D02*
X13662222Y-14590921D01*
X13662222Y-14590921D02*
X13662222Y-14552826D01*
X13662222Y-14552826D02*
X13671746Y-14505207D01*
X13671746Y-14505207D02*
X13681270Y-14476635D01*
X13681270Y-14476635D02*
X13690794Y-14457588D01*
X13690794Y-14457588D02*
X13709841Y-14429016D01*
X13709841Y-14429016D02*
X13719365Y-14419492D01*
X13786032Y-14467111D02*
X13795555Y-14457588D01*
X13795555Y-14457588D02*
X13814603Y-14448064D01*
X13814603Y-14448064D02*
X13862222Y-14448064D01*
X13862222Y-14448064D02*
X13881270Y-14457588D01*
X13881270Y-14457588D02*
X13890794Y-14467111D01*
X13890794Y-14467111D02*
X13900317Y-14486159D01*
X13900317Y-14486159D02*
X13900317Y-14505207D01*
X13900317Y-14505207D02*
X13890794Y-14533778D01*
X13890794Y-14533778D02*
X13776508Y-14648064D01*
X13776508Y-14648064D02*
X13900317Y-14648064D01*
X14138413Y-14648064D02*
X14138413Y-14448064D01*
X14224127Y-14648064D02*
X14224127Y-14543302D01*
X14224127Y-14543302D02*
X14214603Y-14524254D01*
X14214603Y-14524254D02*
X14195556Y-14514730D01*
X14195556Y-14514730D02*
X14166984Y-14514730D01*
X14166984Y-14514730D02*
X14147936Y-14524254D01*
X14147936Y-14524254D02*
X14138413Y-14533778D01*
X14347936Y-14648064D02*
X14328889Y-14638540D01*
X14328889Y-14638540D02*
X14319365Y-14629016D01*
X14319365Y-14629016D02*
X14309841Y-14609968D01*
X14309841Y-14609968D02*
X14309841Y-14552826D01*
X14309841Y-14552826D02*
X14319365Y-14533778D01*
X14319365Y-14533778D02*
X14328889Y-14524254D01*
X14328889Y-14524254D02*
X14347936Y-14514730D01*
X14347936Y-14514730D02*
X14376508Y-14514730D01*
X14376508Y-14514730D02*
X14395556Y-14524254D01*
X14395556Y-14524254D02*
X14405079Y-14533778D01*
X14405079Y-14533778D02*
X14414603Y-14552826D01*
X14414603Y-14552826D02*
X14414603Y-14609968D01*
X14414603Y-14609968D02*
X14405079Y-14629016D01*
X14405079Y-14629016D02*
X14395556Y-14638540D01*
X14395556Y-14638540D02*
X14376508Y-14648064D01*
X14376508Y-14648064D02*
X14347936Y-14648064D01*
X14528889Y-14648064D02*
X14509841Y-14638540D01*
X14509841Y-14638540D02*
X14500317Y-14619492D01*
X14500317Y-14619492D02*
X14500317Y-14448064D01*
X14681270Y-14638540D02*
X14662222Y-14648064D01*
X14662222Y-14648064D02*
X14624127Y-14648064D01*
X14624127Y-14648064D02*
X14605079Y-14638540D01*
X14605079Y-14638540D02*
X14595556Y-14619492D01*
X14595556Y-14619492D02*
X14595556Y-14543302D01*
X14595556Y-14543302D02*
X14605079Y-14524254D01*
X14605079Y-14524254D02*
X14624127Y-14514730D01*
X14624127Y-14514730D02*
X14662222Y-14514730D01*
X14662222Y-14514730D02*
X14681270Y-14524254D01*
X14681270Y-14524254D02*
X14690794Y-14543302D01*
X14690794Y-14543302D02*
X14690794Y-14562349D01*
X14690794Y-14562349D02*
X14595556Y-14581397D01*
X14766984Y-14638540D02*
X14786032Y-14648064D01*
X14786032Y-14648064D02*
X14824127Y-14648064D01*
X14824127Y-14648064D02*
X14843175Y-14638540D01*
X14843175Y-14638540D02*
X14852698Y-14619492D01*
X14852698Y-14619492D02*
X14852698Y-14609968D01*
X14852698Y-14609968D02*
X14843175Y-14590921D01*
X14843175Y-14590921D02*
X14824127Y-14581397D01*
X14824127Y-14581397D02*
X14795556Y-14581397D01*
X14795556Y-14581397D02*
X14776508Y-14571873D01*
X14776508Y-14571873D02*
X14766984Y-14552826D01*
X14766984Y-14552826D02*
X14766984Y-14543302D01*
X14766984Y-14543302D02*
X14776508Y-14524254D01*
X14776508Y-14524254D02*
X14795556Y-14514730D01*
X14795556Y-14514730D02*
X14824127Y-14514730D01*
X14824127Y-14514730D02*
X14843175Y-14524254D01*
X14919365Y-14724254D02*
X14928889Y-14714730D01*
X14928889Y-14714730D02*
X14947937Y-14686159D01*
X14947937Y-14686159D02*
X14957460Y-14667111D01*
X14957460Y-14667111D02*
X14966984Y-14638540D01*
X14966984Y-14638540D02*
X14976508Y-14590921D01*
X14976508Y-14590921D02*
X14976508Y-14552826D01*
X14976508Y-14552826D02*
X14966984Y-14505207D01*
X14966984Y-14505207D02*
X14957460Y-14476635D01*
X14957460Y-14476635D02*
X14947937Y-14457588D01*
X14947937Y-14457588D02*
X14928889Y-14429016D01*
X14928889Y-14429016D02*
X14919365Y-14419492D01*
D20*
X10027460Y-14754540D02*
X10157460Y-14884540D01*
X10157460Y-14754540D02*
X10027460Y-14884540D01*
X10092460Y-14884540D02*
X10157460Y-14819540D01*
X10092460Y-14754540D01*
X10027460Y-14819540D01*
X10092460Y-14884540D01*
D11*
X10509841Y-14912064D02*
X10395555Y-14912064D01*
X10452698Y-14912064D02*
X10452698Y-14712064D01*
X10452698Y-14712064D02*
X10433650Y-14740635D01*
X10433650Y-14740635D02*
X10414603Y-14759683D01*
X10414603Y-14759683D02*
X10395555Y-14769207D01*
X10595555Y-14893016D02*
X10605079Y-14902540D01*
X10605079Y-14902540D02*
X10595555Y-14912064D01*
X10595555Y-14912064D02*
X10586031Y-14902540D01*
X10586031Y-14902540D02*
X10595555Y-14893016D01*
X10595555Y-14893016D02*
X10595555Y-14912064D01*
X10671746Y-14712064D02*
X10795555Y-14712064D01*
X10795555Y-14712064D02*
X10728889Y-14788254D01*
X10728889Y-14788254D02*
X10757460Y-14788254D01*
X10757460Y-14788254D02*
X10776508Y-14797778D01*
X10776508Y-14797778D02*
X10786031Y-14807302D01*
X10786031Y-14807302D02*
X10795555Y-14826349D01*
X10795555Y-14826349D02*
X10795555Y-14873968D01*
X10795555Y-14873968D02*
X10786031Y-14893016D01*
X10786031Y-14893016D02*
X10776508Y-14902540D01*
X10776508Y-14902540D02*
X10757460Y-14912064D01*
X10757460Y-14912064D02*
X10700317Y-14912064D01*
X10700317Y-14912064D02*
X10681270Y-14902540D01*
X10681270Y-14902540D02*
X10671746Y-14893016D01*
X10919365Y-14712064D02*
X10938412Y-14712064D01*
X10938412Y-14712064D02*
X10957460Y-14721588D01*
X10957460Y-14721588D02*
X10966984Y-14731111D01*
X10966984Y-14731111D02*
X10976508Y-14750159D01*
X10976508Y-14750159D02*
X10986031Y-14788254D01*
X10986031Y-14788254D02*
X10986031Y-14835873D01*
X10986031Y-14835873D02*
X10976508Y-14873968D01*
X10976508Y-14873968D02*
X10966984Y-14893016D01*
X10966984Y-14893016D02*
X10957460Y-14902540D01*
X10957460Y-14902540D02*
X10938412Y-14912064D01*
X10938412Y-14912064D02*
X10919365Y-14912064D01*
X10919365Y-14912064D02*
X10900317Y-14902540D01*
X10900317Y-14902540D02*
X10890793Y-14893016D01*
X10890793Y-14893016D02*
X10881270Y-14873968D01*
X10881270Y-14873968D02*
X10871746Y-14835873D01*
X10871746Y-14835873D02*
X10871746Y-14788254D01*
X10871746Y-14788254D02*
X10881270Y-14750159D01*
X10881270Y-14750159D02*
X10890793Y-14731111D01*
X10890793Y-14731111D02*
X10900317Y-14721588D01*
X10900317Y-14721588D02*
X10919365Y-14712064D01*
X11109841Y-14712064D02*
X11128889Y-14712064D01*
X11128889Y-14712064D02*
X11147936Y-14721588D01*
X11147936Y-14721588D02*
X11157460Y-14731111D01*
X11157460Y-14731111D02*
X11166984Y-14750159D01*
X11166984Y-14750159D02*
X11176508Y-14788254D01*
X11176508Y-14788254D02*
X11176508Y-14835873D01*
X11176508Y-14835873D02*
X11166984Y-14873968D01*
X11166984Y-14873968D02*
X11157460Y-14893016D01*
X11157460Y-14893016D02*
X11147936Y-14902540D01*
X11147936Y-14902540D02*
X11128889Y-14912064D01*
X11128889Y-14912064D02*
X11109841Y-14912064D01*
X11109841Y-14912064D02*
X11090793Y-14902540D01*
X11090793Y-14902540D02*
X11081270Y-14893016D01*
X11081270Y-14893016D02*
X11071746Y-14873968D01*
X11071746Y-14873968D02*
X11062222Y-14835873D01*
X11062222Y-14835873D02*
X11062222Y-14788254D01*
X11062222Y-14788254D02*
X11071746Y-14750159D01*
X11071746Y-14750159D02*
X11081270Y-14731111D01*
X11081270Y-14731111D02*
X11090793Y-14721588D01*
X11090793Y-14721588D02*
X11109841Y-14712064D01*
X11262222Y-14912064D02*
X11262222Y-14778730D01*
X11262222Y-14797778D02*
X11271746Y-14788254D01*
X11271746Y-14788254D02*
X11290793Y-14778730D01*
X11290793Y-14778730D02*
X11319365Y-14778730D01*
X11319365Y-14778730D02*
X11338412Y-14788254D01*
X11338412Y-14788254D02*
X11347936Y-14807302D01*
X11347936Y-14807302D02*
X11347936Y-14912064D01*
X11347936Y-14807302D02*
X11357460Y-14788254D01*
X11357460Y-14788254D02*
X11376508Y-14778730D01*
X11376508Y-14778730D02*
X11405079Y-14778730D01*
X11405079Y-14778730D02*
X11424127Y-14788254D01*
X11424127Y-14788254D02*
X11433650Y-14807302D01*
X11433650Y-14807302D02*
X11433650Y-14912064D01*
X11528889Y-14912064D02*
X11528889Y-14778730D01*
X11528889Y-14797778D02*
X11538412Y-14788254D01*
X11538412Y-14788254D02*
X11557460Y-14778730D01*
X11557460Y-14778730D02*
X11586031Y-14778730D01*
X11586031Y-14778730D02*
X11605079Y-14788254D01*
X11605079Y-14788254D02*
X11614603Y-14807302D01*
X11614603Y-14807302D02*
X11614603Y-14912064D01*
X11614603Y-14807302D02*
X11624127Y-14788254D01*
X11624127Y-14788254D02*
X11643174Y-14778730D01*
X11643174Y-14778730D02*
X11671746Y-14778730D01*
X11671746Y-14778730D02*
X11690793Y-14788254D01*
X11690793Y-14788254D02*
X11700317Y-14807302D01*
X11700317Y-14807302D02*
X11700317Y-14912064D01*
X12090793Y-14702540D02*
X11919365Y-14959683D01*
X12347936Y-14712064D02*
X12366984Y-14712064D01*
X12366984Y-14712064D02*
X12386032Y-14721588D01*
X12386032Y-14721588D02*
X12395555Y-14731111D01*
X12395555Y-14731111D02*
X12405079Y-14750159D01*
X12405079Y-14750159D02*
X12414603Y-14788254D01*
X12414603Y-14788254D02*
X12414603Y-14835873D01*
X12414603Y-14835873D02*
X12405079Y-14873968D01*
X12405079Y-14873968D02*
X12395555Y-14893016D01*
X12395555Y-14893016D02*
X12386032Y-14902540D01*
X12386032Y-14902540D02*
X12366984Y-14912064D01*
X12366984Y-14912064D02*
X12347936Y-14912064D01*
X12347936Y-14912064D02*
X12328889Y-14902540D01*
X12328889Y-14902540D02*
X12319365Y-14893016D01*
X12319365Y-14893016D02*
X12309841Y-14873968D01*
X12309841Y-14873968D02*
X12300317Y-14835873D01*
X12300317Y-14835873D02*
X12300317Y-14788254D01*
X12300317Y-14788254D02*
X12309841Y-14750159D01*
X12309841Y-14750159D02*
X12319365Y-14731111D01*
X12319365Y-14731111D02*
X12328889Y-14721588D01*
X12328889Y-14721588D02*
X12347936Y-14712064D01*
X12500317Y-14893016D02*
X12509841Y-14902540D01*
X12509841Y-14902540D02*
X12500317Y-14912064D01*
X12500317Y-14912064D02*
X12490793Y-14902540D01*
X12490793Y-14902540D02*
X12500317Y-14893016D01*
X12500317Y-14893016D02*
X12500317Y-14912064D01*
X12633651Y-14712064D02*
X12652698Y-14712064D01*
X12652698Y-14712064D02*
X12671746Y-14721588D01*
X12671746Y-14721588D02*
X12681270Y-14731111D01*
X12681270Y-14731111D02*
X12690793Y-14750159D01*
X12690793Y-14750159D02*
X12700317Y-14788254D01*
X12700317Y-14788254D02*
X12700317Y-14835873D01*
X12700317Y-14835873D02*
X12690793Y-14873968D01*
X12690793Y-14873968D02*
X12681270Y-14893016D01*
X12681270Y-14893016D02*
X12671746Y-14902540D01*
X12671746Y-14902540D02*
X12652698Y-14912064D01*
X12652698Y-14912064D02*
X12633651Y-14912064D01*
X12633651Y-14912064D02*
X12614603Y-14902540D01*
X12614603Y-14902540D02*
X12605079Y-14893016D01*
X12605079Y-14893016D02*
X12595555Y-14873968D01*
X12595555Y-14873968D02*
X12586032Y-14835873D01*
X12586032Y-14835873D02*
X12586032Y-14788254D01*
X12586032Y-14788254D02*
X12595555Y-14750159D01*
X12595555Y-14750159D02*
X12605079Y-14731111D01*
X12605079Y-14731111D02*
X12614603Y-14721588D01*
X12614603Y-14721588D02*
X12633651Y-14712064D01*
X12881270Y-14712064D02*
X12786032Y-14712064D01*
X12786032Y-14712064D02*
X12776508Y-14807302D01*
X12776508Y-14807302D02*
X12786032Y-14797778D01*
X12786032Y-14797778D02*
X12805079Y-14788254D01*
X12805079Y-14788254D02*
X12852698Y-14788254D01*
X12852698Y-14788254D02*
X12871746Y-14797778D01*
X12871746Y-14797778D02*
X12881270Y-14807302D01*
X12881270Y-14807302D02*
X12890793Y-14826349D01*
X12890793Y-14826349D02*
X12890793Y-14873968D01*
X12890793Y-14873968D02*
X12881270Y-14893016D01*
X12881270Y-14893016D02*
X12871746Y-14902540D01*
X12871746Y-14902540D02*
X12852698Y-14912064D01*
X12852698Y-14912064D02*
X12805079Y-14912064D01*
X12805079Y-14912064D02*
X12786032Y-14902540D01*
X12786032Y-14902540D02*
X12776508Y-14893016D01*
X13081270Y-14912064D02*
X12966984Y-14912064D01*
X13024127Y-14912064D02*
X13024127Y-14712064D01*
X13024127Y-14712064D02*
X13005079Y-14740635D01*
X13005079Y-14740635D02*
X12986032Y-14759683D01*
X12986032Y-14759683D02*
X12966984Y-14769207D01*
X13157460Y-14731111D02*
X13166984Y-14721588D01*
X13166984Y-14721588D02*
X13186032Y-14712064D01*
X13186032Y-14712064D02*
X13233651Y-14712064D01*
X13233651Y-14712064D02*
X13252698Y-14721588D01*
X13252698Y-14721588D02*
X13262222Y-14731111D01*
X13262222Y-14731111D02*
X13271746Y-14750159D01*
X13271746Y-14750159D02*
X13271746Y-14769207D01*
X13271746Y-14769207D02*
X13262222Y-14797778D01*
X13262222Y-14797778D02*
X13147936Y-14912064D01*
X13147936Y-14912064D02*
X13271746Y-14912064D01*
X13347936Y-14712064D02*
X13347936Y-14750159D01*
X13424127Y-14712064D02*
X13424127Y-14750159D01*
X13719365Y-14988254D02*
X13709841Y-14978730D01*
X13709841Y-14978730D02*
X13690794Y-14950159D01*
X13690794Y-14950159D02*
X13681270Y-14931111D01*
X13681270Y-14931111D02*
X13671746Y-14902540D01*
X13671746Y-14902540D02*
X13662222Y-14854921D01*
X13662222Y-14854921D02*
X13662222Y-14816826D01*
X13662222Y-14816826D02*
X13671746Y-14769207D01*
X13671746Y-14769207D02*
X13681270Y-14740635D01*
X13681270Y-14740635D02*
X13690794Y-14721588D01*
X13690794Y-14721588D02*
X13709841Y-14693016D01*
X13709841Y-14693016D02*
X13719365Y-14683492D01*
X13881270Y-14712064D02*
X13843174Y-14712064D01*
X13843174Y-14712064D02*
X13824127Y-14721588D01*
X13824127Y-14721588D02*
X13814603Y-14731111D01*
X13814603Y-14731111D02*
X13795555Y-14759683D01*
X13795555Y-14759683D02*
X13786032Y-14797778D01*
X13786032Y-14797778D02*
X13786032Y-14873968D01*
X13786032Y-14873968D02*
X13795555Y-14893016D01*
X13795555Y-14893016D02*
X13805079Y-14902540D01*
X13805079Y-14902540D02*
X13824127Y-14912064D01*
X13824127Y-14912064D02*
X13862222Y-14912064D01*
X13862222Y-14912064D02*
X13881270Y-14902540D01*
X13881270Y-14902540D02*
X13890794Y-14893016D01*
X13890794Y-14893016D02*
X13900317Y-14873968D01*
X13900317Y-14873968D02*
X13900317Y-14826349D01*
X13900317Y-14826349D02*
X13890794Y-14807302D01*
X13890794Y-14807302D02*
X13881270Y-14797778D01*
X13881270Y-14797778D02*
X13862222Y-14788254D01*
X13862222Y-14788254D02*
X13824127Y-14788254D01*
X13824127Y-14788254D02*
X13805079Y-14797778D01*
X13805079Y-14797778D02*
X13795555Y-14807302D01*
X13795555Y-14807302D02*
X13786032Y-14826349D01*
X14138413Y-14912064D02*
X14138413Y-14712064D01*
X14224127Y-14912064D02*
X14224127Y-14807302D01*
X14224127Y-14807302D02*
X14214603Y-14788254D01*
X14214603Y-14788254D02*
X14195556Y-14778730D01*
X14195556Y-14778730D02*
X14166984Y-14778730D01*
X14166984Y-14778730D02*
X14147936Y-14788254D01*
X14147936Y-14788254D02*
X14138413Y-14797778D01*
X14347936Y-14912064D02*
X14328889Y-14902540D01*
X14328889Y-14902540D02*
X14319365Y-14893016D01*
X14319365Y-14893016D02*
X14309841Y-14873968D01*
X14309841Y-14873968D02*
X14309841Y-14816826D01*
X14309841Y-14816826D02*
X14319365Y-14797778D01*
X14319365Y-14797778D02*
X14328889Y-14788254D01*
X14328889Y-14788254D02*
X14347936Y-14778730D01*
X14347936Y-14778730D02*
X14376508Y-14778730D01*
X14376508Y-14778730D02*
X14395556Y-14788254D01*
X14395556Y-14788254D02*
X14405079Y-14797778D01*
X14405079Y-14797778D02*
X14414603Y-14816826D01*
X14414603Y-14816826D02*
X14414603Y-14873968D01*
X14414603Y-14873968D02*
X14405079Y-14893016D01*
X14405079Y-14893016D02*
X14395556Y-14902540D01*
X14395556Y-14902540D02*
X14376508Y-14912064D01*
X14376508Y-14912064D02*
X14347936Y-14912064D01*
X14528889Y-14912064D02*
X14509841Y-14902540D01*
X14509841Y-14902540D02*
X14500317Y-14883492D01*
X14500317Y-14883492D02*
X14500317Y-14712064D01*
X14681270Y-14902540D02*
X14662222Y-14912064D01*
X14662222Y-14912064D02*
X14624127Y-14912064D01*
X14624127Y-14912064D02*
X14605079Y-14902540D01*
X14605079Y-14902540D02*
X14595556Y-14883492D01*
X14595556Y-14883492D02*
X14595556Y-14807302D01*
X14595556Y-14807302D02*
X14605079Y-14788254D01*
X14605079Y-14788254D02*
X14624127Y-14778730D01*
X14624127Y-14778730D02*
X14662222Y-14778730D01*
X14662222Y-14778730D02*
X14681270Y-14788254D01*
X14681270Y-14788254D02*
X14690794Y-14807302D01*
X14690794Y-14807302D02*
X14690794Y-14826349D01*
X14690794Y-14826349D02*
X14595556Y-14845397D01*
X14766984Y-14902540D02*
X14786032Y-14912064D01*
X14786032Y-14912064D02*
X14824127Y-14912064D01*
X14824127Y-14912064D02*
X14843175Y-14902540D01*
X14843175Y-14902540D02*
X14852698Y-14883492D01*
X14852698Y-14883492D02*
X14852698Y-14873968D01*
X14852698Y-14873968D02*
X14843175Y-14854921D01*
X14843175Y-14854921D02*
X14824127Y-14845397D01*
X14824127Y-14845397D02*
X14795556Y-14845397D01*
X14795556Y-14845397D02*
X14776508Y-14835873D01*
X14776508Y-14835873D02*
X14766984Y-14816826D01*
X14766984Y-14816826D02*
X14766984Y-14807302D01*
X14766984Y-14807302D02*
X14776508Y-14788254D01*
X14776508Y-14788254D02*
X14795556Y-14778730D01*
X14795556Y-14778730D02*
X14824127Y-14778730D01*
X14824127Y-14778730D02*
X14843175Y-14788254D01*
X14919365Y-14988254D02*
X14928889Y-14978730D01*
X14928889Y-14978730D02*
X14947937Y-14950159D01*
X14947937Y-14950159D02*
X14957460Y-14931111D01*
X14957460Y-14931111D02*
X14966984Y-14902540D01*
X14966984Y-14902540D02*
X14976508Y-14854921D01*
X14976508Y-14854921D02*
X14976508Y-14816826D01*
X14976508Y-14816826D02*
X14966984Y-14769207D01*
X14966984Y-14769207D02*
X14957460Y-14740635D01*
X14957460Y-14740635D02*
X14947937Y-14721588D01*
X14947937Y-14721588D02*
X14928889Y-14693016D01*
X14928889Y-14693016D02*
X14919365Y-14683492D01*
X10057460Y-14983540D02*
X10057460Y-15183540D01*
X9957460Y-15083540D02*
X10157460Y-15083540D01*
X10157460Y-15083540D02*
G75*
G03*
X10157460Y-15083540I-100000J0D01*
G01*
X10386031Y-14976064D02*
X10509841Y-14976064D01*
X10509841Y-14976064D02*
X10443174Y-15052254D01*
X10443174Y-15052254D02*
X10471746Y-15052254D01*
X10471746Y-15052254D02*
X10490793Y-15061778D01*
X10490793Y-15061778D02*
X10500317Y-15071302D01*
X10500317Y-15071302D02*
X10509841Y-15090349D01*
X10509841Y-15090349D02*
X10509841Y-15137968D01*
X10509841Y-15137968D02*
X10500317Y-15157016D01*
X10500317Y-15157016D02*
X10490793Y-15166540D01*
X10490793Y-15166540D02*
X10471746Y-15176064D01*
X10471746Y-15176064D02*
X10414603Y-15176064D01*
X10414603Y-15176064D02*
X10395555Y-15166540D01*
X10395555Y-15166540D02*
X10386031Y-15157016D01*
X10595555Y-15157016D02*
X10605079Y-15166540D01*
X10605079Y-15166540D02*
X10595555Y-15176064D01*
X10595555Y-15176064D02*
X10586031Y-15166540D01*
X10586031Y-15166540D02*
X10595555Y-15157016D01*
X10595555Y-15157016D02*
X10595555Y-15176064D01*
X10681270Y-14995111D02*
X10690793Y-14985588D01*
X10690793Y-14985588D02*
X10709841Y-14976064D01*
X10709841Y-14976064D02*
X10757460Y-14976064D01*
X10757460Y-14976064D02*
X10776508Y-14985588D01*
X10776508Y-14985588D02*
X10786031Y-14995111D01*
X10786031Y-14995111D02*
X10795555Y-15014159D01*
X10795555Y-15014159D02*
X10795555Y-15033207D01*
X10795555Y-15033207D02*
X10786031Y-15061778D01*
X10786031Y-15061778D02*
X10671746Y-15176064D01*
X10671746Y-15176064D02*
X10795555Y-15176064D01*
X10919365Y-14976064D02*
X10938412Y-14976064D01*
X10938412Y-14976064D02*
X10957460Y-14985588D01*
X10957460Y-14985588D02*
X10966984Y-14995111D01*
X10966984Y-14995111D02*
X10976508Y-15014159D01*
X10976508Y-15014159D02*
X10986031Y-15052254D01*
X10986031Y-15052254D02*
X10986031Y-15099873D01*
X10986031Y-15099873D02*
X10976508Y-15137968D01*
X10976508Y-15137968D02*
X10966984Y-15157016D01*
X10966984Y-15157016D02*
X10957460Y-15166540D01*
X10957460Y-15166540D02*
X10938412Y-15176064D01*
X10938412Y-15176064D02*
X10919365Y-15176064D01*
X10919365Y-15176064D02*
X10900317Y-15166540D01*
X10900317Y-15166540D02*
X10890793Y-15157016D01*
X10890793Y-15157016D02*
X10881270Y-15137968D01*
X10881270Y-15137968D02*
X10871746Y-15099873D01*
X10871746Y-15099873D02*
X10871746Y-15052254D01*
X10871746Y-15052254D02*
X10881270Y-15014159D01*
X10881270Y-15014159D02*
X10890793Y-14995111D01*
X10890793Y-14995111D02*
X10900317Y-14985588D01*
X10900317Y-14985588D02*
X10919365Y-14976064D01*
X11109841Y-14976064D02*
X11128889Y-14976064D01*
X11128889Y-14976064D02*
X11147936Y-14985588D01*
X11147936Y-14985588D02*
X11157460Y-14995111D01*
X11157460Y-14995111D02*
X11166984Y-15014159D01*
X11166984Y-15014159D02*
X11176508Y-15052254D01*
X11176508Y-15052254D02*
X11176508Y-15099873D01*
X11176508Y-15099873D02*
X11166984Y-15137968D01*
X11166984Y-15137968D02*
X11157460Y-15157016D01*
X11157460Y-15157016D02*
X11147936Y-15166540D01*
X11147936Y-15166540D02*
X11128889Y-15176064D01*
X11128889Y-15176064D02*
X11109841Y-15176064D01*
X11109841Y-15176064D02*
X11090793Y-15166540D01*
X11090793Y-15166540D02*
X11081270Y-15157016D01*
X11081270Y-15157016D02*
X11071746Y-15137968D01*
X11071746Y-15137968D02*
X11062222Y-15099873D01*
X11062222Y-15099873D02*
X11062222Y-15052254D01*
X11062222Y-15052254D02*
X11071746Y-15014159D01*
X11071746Y-15014159D02*
X11081270Y-14995111D01*
X11081270Y-14995111D02*
X11090793Y-14985588D01*
X11090793Y-14985588D02*
X11109841Y-14976064D01*
X11262222Y-15176064D02*
X11262222Y-15042730D01*
X11262222Y-15061778D02*
X11271746Y-15052254D01*
X11271746Y-15052254D02*
X11290793Y-15042730D01*
X11290793Y-15042730D02*
X11319365Y-15042730D01*
X11319365Y-15042730D02*
X11338412Y-15052254D01*
X11338412Y-15052254D02*
X11347936Y-15071302D01*
X11347936Y-15071302D02*
X11347936Y-15176064D01*
X11347936Y-15071302D02*
X11357460Y-15052254D01*
X11357460Y-15052254D02*
X11376508Y-15042730D01*
X11376508Y-15042730D02*
X11405079Y-15042730D01*
X11405079Y-15042730D02*
X11424127Y-15052254D01*
X11424127Y-15052254D02*
X11433650Y-15071302D01*
X11433650Y-15071302D02*
X11433650Y-15176064D01*
X11528889Y-15176064D02*
X11528889Y-15042730D01*
X11528889Y-15061778D02*
X11538412Y-15052254D01*
X11538412Y-15052254D02*
X11557460Y-15042730D01*
X11557460Y-15042730D02*
X11586031Y-15042730D01*
X11586031Y-15042730D02*
X11605079Y-15052254D01*
X11605079Y-15052254D02*
X11614603Y-15071302D01*
X11614603Y-15071302D02*
X11614603Y-15176064D01*
X11614603Y-15071302D02*
X11624127Y-15052254D01*
X11624127Y-15052254D02*
X11643174Y-15042730D01*
X11643174Y-15042730D02*
X11671746Y-15042730D01*
X11671746Y-15042730D02*
X11690793Y-15052254D01*
X11690793Y-15052254D02*
X11700317Y-15071302D01*
X11700317Y-15071302D02*
X11700317Y-15176064D01*
X12090793Y-14966540D02*
X11919365Y-15223683D01*
X12347936Y-14976064D02*
X12366984Y-14976064D01*
X12366984Y-14976064D02*
X12386032Y-14985588D01*
X12386032Y-14985588D02*
X12395555Y-14995111D01*
X12395555Y-14995111D02*
X12405079Y-15014159D01*
X12405079Y-15014159D02*
X12414603Y-15052254D01*
X12414603Y-15052254D02*
X12414603Y-15099873D01*
X12414603Y-15099873D02*
X12405079Y-15137968D01*
X12405079Y-15137968D02*
X12395555Y-15157016D01*
X12395555Y-15157016D02*
X12386032Y-15166540D01*
X12386032Y-15166540D02*
X12366984Y-15176064D01*
X12366984Y-15176064D02*
X12347936Y-15176064D01*
X12347936Y-15176064D02*
X12328889Y-15166540D01*
X12328889Y-15166540D02*
X12319365Y-15157016D01*
X12319365Y-15157016D02*
X12309841Y-15137968D01*
X12309841Y-15137968D02*
X12300317Y-15099873D01*
X12300317Y-15099873D02*
X12300317Y-15052254D01*
X12300317Y-15052254D02*
X12309841Y-15014159D01*
X12309841Y-15014159D02*
X12319365Y-14995111D01*
X12319365Y-14995111D02*
X12328889Y-14985588D01*
X12328889Y-14985588D02*
X12347936Y-14976064D01*
X12500317Y-15157016D02*
X12509841Y-15166540D01*
X12509841Y-15166540D02*
X12500317Y-15176064D01*
X12500317Y-15176064D02*
X12490793Y-15166540D01*
X12490793Y-15166540D02*
X12500317Y-15157016D01*
X12500317Y-15157016D02*
X12500317Y-15176064D01*
X12700317Y-15176064D02*
X12586032Y-15176064D01*
X12643174Y-15176064D02*
X12643174Y-14976064D01*
X12643174Y-14976064D02*
X12624127Y-15004635D01*
X12624127Y-15004635D02*
X12605079Y-15023683D01*
X12605079Y-15023683D02*
X12586032Y-15033207D01*
X12776508Y-14995111D02*
X12786032Y-14985588D01*
X12786032Y-14985588D02*
X12805079Y-14976064D01*
X12805079Y-14976064D02*
X12852698Y-14976064D01*
X12852698Y-14976064D02*
X12871746Y-14985588D01*
X12871746Y-14985588D02*
X12881270Y-14995111D01*
X12881270Y-14995111D02*
X12890793Y-15014159D01*
X12890793Y-15014159D02*
X12890793Y-15033207D01*
X12890793Y-15033207D02*
X12881270Y-15061778D01*
X12881270Y-15061778D02*
X12766984Y-15176064D01*
X12766984Y-15176064D02*
X12890793Y-15176064D01*
X13062222Y-14976064D02*
X13024127Y-14976064D01*
X13024127Y-14976064D02*
X13005079Y-14985588D01*
X13005079Y-14985588D02*
X12995555Y-14995111D01*
X12995555Y-14995111D02*
X12976508Y-15023683D01*
X12976508Y-15023683D02*
X12966984Y-15061778D01*
X12966984Y-15061778D02*
X12966984Y-15137968D01*
X12966984Y-15137968D02*
X12976508Y-15157016D01*
X12976508Y-15157016D02*
X12986032Y-15166540D01*
X12986032Y-15166540D02*
X13005079Y-15176064D01*
X13005079Y-15176064D02*
X13043174Y-15176064D01*
X13043174Y-15176064D02*
X13062222Y-15166540D01*
X13062222Y-15166540D02*
X13071746Y-15157016D01*
X13071746Y-15157016D02*
X13081270Y-15137968D01*
X13081270Y-15137968D02*
X13081270Y-15090349D01*
X13081270Y-15090349D02*
X13071746Y-15071302D01*
X13071746Y-15071302D02*
X13062222Y-15061778D01*
X13062222Y-15061778D02*
X13043174Y-15052254D01*
X13043174Y-15052254D02*
X13005079Y-15052254D01*
X13005079Y-15052254D02*
X12986032Y-15061778D01*
X12986032Y-15061778D02*
X12976508Y-15071302D01*
X12976508Y-15071302D02*
X12966984Y-15090349D01*
X13205079Y-14976064D02*
X13224127Y-14976064D01*
X13224127Y-14976064D02*
X13243174Y-14985588D01*
X13243174Y-14985588D02*
X13252698Y-14995111D01*
X13252698Y-14995111D02*
X13262222Y-15014159D01*
X13262222Y-15014159D02*
X13271746Y-15052254D01*
X13271746Y-15052254D02*
X13271746Y-15099873D01*
X13271746Y-15099873D02*
X13262222Y-15137968D01*
X13262222Y-15137968D02*
X13252698Y-15157016D01*
X13252698Y-15157016D02*
X13243174Y-15166540D01*
X13243174Y-15166540D02*
X13224127Y-15176064D01*
X13224127Y-15176064D02*
X13205079Y-15176064D01*
X13205079Y-15176064D02*
X13186032Y-15166540D01*
X13186032Y-15166540D02*
X13176508Y-15157016D01*
X13176508Y-15157016D02*
X13166984Y-15137968D01*
X13166984Y-15137968D02*
X13157460Y-15099873D01*
X13157460Y-15099873D02*
X13157460Y-15052254D01*
X13157460Y-15052254D02*
X13166984Y-15014159D01*
X13166984Y-15014159D02*
X13176508Y-14995111D01*
X13176508Y-14995111D02*
X13186032Y-14985588D01*
X13186032Y-14985588D02*
X13205079Y-14976064D01*
X13347936Y-14976064D02*
X13347936Y-15014159D01*
X13424127Y-14976064D02*
X13424127Y-15014159D01*
X13719365Y-15252254D02*
X13709841Y-15242730D01*
X13709841Y-15242730D02*
X13690794Y-15214159D01*
X13690794Y-15214159D02*
X13681270Y-15195111D01*
X13681270Y-15195111D02*
X13671746Y-15166540D01*
X13671746Y-15166540D02*
X13662222Y-15118921D01*
X13662222Y-15118921D02*
X13662222Y-15080826D01*
X13662222Y-15080826D02*
X13671746Y-15033207D01*
X13671746Y-15033207D02*
X13681270Y-15004635D01*
X13681270Y-15004635D02*
X13690794Y-14985588D01*
X13690794Y-14985588D02*
X13709841Y-14957016D01*
X13709841Y-14957016D02*
X13719365Y-14947492D01*
X13881270Y-14976064D02*
X13843174Y-14976064D01*
X13843174Y-14976064D02*
X13824127Y-14985588D01*
X13824127Y-14985588D02*
X13814603Y-14995111D01*
X13814603Y-14995111D02*
X13795555Y-15023683D01*
X13795555Y-15023683D02*
X13786032Y-15061778D01*
X13786032Y-15061778D02*
X13786032Y-15137968D01*
X13786032Y-15137968D02*
X13795555Y-15157016D01*
X13795555Y-15157016D02*
X13805079Y-15166540D01*
X13805079Y-15166540D02*
X13824127Y-15176064D01*
X13824127Y-15176064D02*
X13862222Y-15176064D01*
X13862222Y-15176064D02*
X13881270Y-15166540D01*
X13881270Y-15166540D02*
X13890794Y-15157016D01*
X13890794Y-15157016D02*
X13900317Y-15137968D01*
X13900317Y-15137968D02*
X13900317Y-15090349D01*
X13900317Y-15090349D02*
X13890794Y-15071302D01*
X13890794Y-15071302D02*
X13881270Y-15061778D01*
X13881270Y-15061778D02*
X13862222Y-15052254D01*
X13862222Y-15052254D02*
X13824127Y-15052254D01*
X13824127Y-15052254D02*
X13805079Y-15061778D01*
X13805079Y-15061778D02*
X13795555Y-15071302D01*
X13795555Y-15071302D02*
X13786032Y-15090349D01*
X14138413Y-15176064D02*
X14138413Y-14976064D01*
X14224127Y-15176064D02*
X14224127Y-15071302D01*
X14224127Y-15071302D02*
X14214603Y-15052254D01*
X14214603Y-15052254D02*
X14195556Y-15042730D01*
X14195556Y-15042730D02*
X14166984Y-15042730D01*
X14166984Y-15042730D02*
X14147936Y-15052254D01*
X14147936Y-15052254D02*
X14138413Y-15061778D01*
X14347936Y-15176064D02*
X14328889Y-15166540D01*
X14328889Y-15166540D02*
X14319365Y-15157016D01*
X14319365Y-15157016D02*
X14309841Y-15137968D01*
X14309841Y-15137968D02*
X14309841Y-15080826D01*
X14309841Y-15080826D02*
X14319365Y-15061778D01*
X14319365Y-15061778D02*
X14328889Y-15052254D01*
X14328889Y-15052254D02*
X14347936Y-15042730D01*
X14347936Y-15042730D02*
X14376508Y-15042730D01*
X14376508Y-15042730D02*
X14395556Y-15052254D01*
X14395556Y-15052254D02*
X14405079Y-15061778D01*
X14405079Y-15061778D02*
X14414603Y-15080826D01*
X14414603Y-15080826D02*
X14414603Y-15137968D01*
X14414603Y-15137968D02*
X14405079Y-15157016D01*
X14405079Y-15157016D02*
X14395556Y-15166540D01*
X14395556Y-15166540D02*
X14376508Y-15176064D01*
X14376508Y-15176064D02*
X14347936Y-15176064D01*
X14528889Y-15176064D02*
X14509841Y-15166540D01*
X14509841Y-15166540D02*
X14500317Y-15147492D01*
X14500317Y-15147492D02*
X14500317Y-14976064D01*
X14681270Y-15166540D02*
X14662222Y-15176064D01*
X14662222Y-15176064D02*
X14624127Y-15176064D01*
X14624127Y-15176064D02*
X14605079Y-15166540D01*
X14605079Y-15166540D02*
X14595556Y-15147492D01*
X14595556Y-15147492D02*
X14595556Y-15071302D01*
X14595556Y-15071302D02*
X14605079Y-15052254D01*
X14605079Y-15052254D02*
X14624127Y-15042730D01*
X14624127Y-15042730D02*
X14662222Y-15042730D01*
X14662222Y-15042730D02*
X14681270Y-15052254D01*
X14681270Y-15052254D02*
X14690794Y-15071302D01*
X14690794Y-15071302D02*
X14690794Y-15090349D01*
X14690794Y-15090349D02*
X14595556Y-15109397D01*
X14766984Y-15166540D02*
X14786032Y-15176064D01*
X14786032Y-15176064D02*
X14824127Y-15176064D01*
X14824127Y-15176064D02*
X14843175Y-15166540D01*
X14843175Y-15166540D02*
X14852698Y-15147492D01*
X14852698Y-15147492D02*
X14852698Y-15137968D01*
X14852698Y-15137968D02*
X14843175Y-15118921D01*
X14843175Y-15118921D02*
X14824127Y-15109397D01*
X14824127Y-15109397D02*
X14795556Y-15109397D01*
X14795556Y-15109397D02*
X14776508Y-15099873D01*
X14776508Y-15099873D02*
X14766984Y-15080826D01*
X14766984Y-15080826D02*
X14766984Y-15071302D01*
X14766984Y-15071302D02*
X14776508Y-15052254D01*
X14776508Y-15052254D02*
X14795556Y-15042730D01*
X14795556Y-15042730D02*
X14824127Y-15042730D01*
X14824127Y-15042730D02*
X14843175Y-15052254D01*
X14919365Y-15252254D02*
X14928889Y-15242730D01*
X14928889Y-15242730D02*
X14947937Y-15214159D01*
X14947937Y-15214159D02*
X14957460Y-15195111D01*
X14957460Y-15195111D02*
X14966984Y-15166540D01*
X14966984Y-15166540D02*
X14976508Y-15118921D01*
X14976508Y-15118921D02*
X14976508Y-15080826D01*
X14976508Y-15080826D02*
X14966984Y-15033207D01*
X14966984Y-15033207D02*
X14957460Y-15004635D01*
X14957460Y-15004635D02*
X14947937Y-14985588D01*
X14947937Y-14985588D02*
X14928889Y-14957016D01*
X14928889Y-14957016D02*
X14919365Y-14947492D01*
X10128171Y-15474251D02*
X10128171Y-15332829D01*
X9986749Y-15332829D01*
X9986749Y-15474251D01*
X10128171Y-15474251D01*
X10157460Y-15403540D02*
G75*
G03*
X10157460Y-15403540I-100000J0D01*
G01*
X10386031Y-15296064D02*
X10509841Y-15296064D01*
X10509841Y-15296064D02*
X10443174Y-15372254D01*
X10443174Y-15372254D02*
X10471746Y-15372254D01*
X10471746Y-15372254D02*
X10490793Y-15381778D01*
X10490793Y-15381778D02*
X10500317Y-15391302D01*
X10500317Y-15391302D02*
X10509841Y-15410349D01*
X10509841Y-15410349D02*
X10509841Y-15457968D01*
X10509841Y-15457968D02*
X10500317Y-15477016D01*
X10500317Y-15477016D02*
X10490793Y-15486540D01*
X10490793Y-15486540D02*
X10471746Y-15496064D01*
X10471746Y-15496064D02*
X10414603Y-15496064D01*
X10414603Y-15496064D02*
X10395555Y-15486540D01*
X10395555Y-15486540D02*
X10386031Y-15477016D01*
X10595555Y-15477016D02*
X10605079Y-15486540D01*
X10605079Y-15486540D02*
X10595555Y-15496064D01*
X10595555Y-15496064D02*
X10586031Y-15486540D01*
X10586031Y-15486540D02*
X10595555Y-15477016D01*
X10595555Y-15477016D02*
X10595555Y-15496064D01*
X10786031Y-15296064D02*
X10690793Y-15296064D01*
X10690793Y-15296064D02*
X10681270Y-15391302D01*
X10681270Y-15391302D02*
X10690793Y-15381778D01*
X10690793Y-15381778D02*
X10709841Y-15372254D01*
X10709841Y-15372254D02*
X10757460Y-15372254D01*
X10757460Y-15372254D02*
X10776508Y-15381778D01*
X10776508Y-15381778D02*
X10786031Y-15391302D01*
X10786031Y-15391302D02*
X10795555Y-15410349D01*
X10795555Y-15410349D02*
X10795555Y-15457968D01*
X10795555Y-15457968D02*
X10786031Y-15477016D01*
X10786031Y-15477016D02*
X10776508Y-15486540D01*
X10776508Y-15486540D02*
X10757460Y-15496064D01*
X10757460Y-15496064D02*
X10709841Y-15496064D01*
X10709841Y-15496064D02*
X10690793Y-15486540D01*
X10690793Y-15486540D02*
X10681270Y-15477016D01*
X10919365Y-15296064D02*
X10938412Y-15296064D01*
X10938412Y-15296064D02*
X10957460Y-15305588D01*
X10957460Y-15305588D02*
X10966984Y-15315111D01*
X10966984Y-15315111D02*
X10976508Y-15334159D01*
X10976508Y-15334159D02*
X10986031Y-15372254D01*
X10986031Y-15372254D02*
X10986031Y-15419873D01*
X10986031Y-15419873D02*
X10976508Y-15457968D01*
X10976508Y-15457968D02*
X10966984Y-15477016D01*
X10966984Y-15477016D02*
X10957460Y-15486540D01*
X10957460Y-15486540D02*
X10938412Y-15496064D01*
X10938412Y-15496064D02*
X10919365Y-15496064D01*
X10919365Y-15496064D02*
X10900317Y-15486540D01*
X10900317Y-15486540D02*
X10890793Y-15477016D01*
X10890793Y-15477016D02*
X10881270Y-15457968D01*
X10881270Y-15457968D02*
X10871746Y-15419873D01*
X10871746Y-15419873D02*
X10871746Y-15372254D01*
X10871746Y-15372254D02*
X10881270Y-15334159D01*
X10881270Y-15334159D02*
X10890793Y-15315111D01*
X10890793Y-15315111D02*
X10900317Y-15305588D01*
X10900317Y-15305588D02*
X10919365Y-15296064D01*
X11109841Y-15296064D02*
X11128889Y-15296064D01*
X11128889Y-15296064D02*
X11147936Y-15305588D01*
X11147936Y-15305588D02*
X11157460Y-15315111D01*
X11157460Y-15315111D02*
X11166984Y-15334159D01*
X11166984Y-15334159D02*
X11176508Y-15372254D01*
X11176508Y-15372254D02*
X11176508Y-15419873D01*
X11176508Y-15419873D02*
X11166984Y-15457968D01*
X11166984Y-15457968D02*
X11157460Y-15477016D01*
X11157460Y-15477016D02*
X11147936Y-15486540D01*
X11147936Y-15486540D02*
X11128889Y-15496064D01*
X11128889Y-15496064D02*
X11109841Y-15496064D01*
X11109841Y-15496064D02*
X11090793Y-15486540D01*
X11090793Y-15486540D02*
X11081270Y-15477016D01*
X11081270Y-15477016D02*
X11071746Y-15457968D01*
X11071746Y-15457968D02*
X11062222Y-15419873D01*
X11062222Y-15419873D02*
X11062222Y-15372254D01*
X11062222Y-15372254D02*
X11071746Y-15334159D01*
X11071746Y-15334159D02*
X11081270Y-15315111D01*
X11081270Y-15315111D02*
X11090793Y-15305588D01*
X11090793Y-15305588D02*
X11109841Y-15296064D01*
X11262222Y-15496064D02*
X11262222Y-15362730D01*
X11262222Y-15381778D02*
X11271746Y-15372254D01*
X11271746Y-15372254D02*
X11290793Y-15362730D01*
X11290793Y-15362730D02*
X11319365Y-15362730D01*
X11319365Y-15362730D02*
X11338412Y-15372254D01*
X11338412Y-15372254D02*
X11347936Y-15391302D01*
X11347936Y-15391302D02*
X11347936Y-15496064D01*
X11347936Y-15391302D02*
X11357460Y-15372254D01*
X11357460Y-15372254D02*
X11376508Y-15362730D01*
X11376508Y-15362730D02*
X11405079Y-15362730D01*
X11405079Y-15362730D02*
X11424127Y-15372254D01*
X11424127Y-15372254D02*
X11433650Y-15391302D01*
X11433650Y-15391302D02*
X11433650Y-15496064D01*
X11528889Y-15496064D02*
X11528889Y-15362730D01*
X11528889Y-15381778D02*
X11538412Y-15372254D01*
X11538412Y-15372254D02*
X11557460Y-15362730D01*
X11557460Y-15362730D02*
X11586031Y-15362730D01*
X11586031Y-15362730D02*
X11605079Y-15372254D01*
X11605079Y-15372254D02*
X11614603Y-15391302D01*
X11614603Y-15391302D02*
X11614603Y-15496064D01*
X11614603Y-15391302D02*
X11624127Y-15372254D01*
X11624127Y-15372254D02*
X11643174Y-15362730D01*
X11643174Y-15362730D02*
X11671746Y-15362730D01*
X11671746Y-15362730D02*
X11690793Y-15372254D01*
X11690793Y-15372254D02*
X11700317Y-15391302D01*
X11700317Y-15391302D02*
X11700317Y-15496064D01*
X12090793Y-15286540D02*
X11919365Y-15543683D01*
X12347936Y-15296064D02*
X12366984Y-15296064D01*
X12366984Y-15296064D02*
X12386032Y-15305588D01*
X12386032Y-15305588D02*
X12395555Y-15315111D01*
X12395555Y-15315111D02*
X12405079Y-15334159D01*
X12405079Y-15334159D02*
X12414603Y-15372254D01*
X12414603Y-15372254D02*
X12414603Y-15419873D01*
X12414603Y-15419873D02*
X12405079Y-15457968D01*
X12405079Y-15457968D02*
X12395555Y-15477016D01*
X12395555Y-15477016D02*
X12386032Y-15486540D01*
X12386032Y-15486540D02*
X12366984Y-15496064D01*
X12366984Y-15496064D02*
X12347936Y-15496064D01*
X12347936Y-15496064D02*
X12328889Y-15486540D01*
X12328889Y-15486540D02*
X12319365Y-15477016D01*
X12319365Y-15477016D02*
X12309841Y-15457968D01*
X12309841Y-15457968D02*
X12300317Y-15419873D01*
X12300317Y-15419873D02*
X12300317Y-15372254D01*
X12300317Y-15372254D02*
X12309841Y-15334159D01*
X12309841Y-15334159D02*
X12319365Y-15315111D01*
X12319365Y-15315111D02*
X12328889Y-15305588D01*
X12328889Y-15305588D02*
X12347936Y-15296064D01*
X12500317Y-15477016D02*
X12509841Y-15486540D01*
X12509841Y-15486540D02*
X12500317Y-15496064D01*
X12500317Y-15496064D02*
X12490793Y-15486540D01*
X12490793Y-15486540D02*
X12500317Y-15477016D01*
X12500317Y-15477016D02*
X12500317Y-15496064D01*
X12700317Y-15496064D02*
X12586032Y-15496064D01*
X12643174Y-15496064D02*
X12643174Y-15296064D01*
X12643174Y-15296064D02*
X12624127Y-15324635D01*
X12624127Y-15324635D02*
X12605079Y-15343683D01*
X12605079Y-15343683D02*
X12586032Y-15353207D01*
X12766984Y-15296064D02*
X12890793Y-15296064D01*
X12890793Y-15296064D02*
X12824127Y-15372254D01*
X12824127Y-15372254D02*
X12852698Y-15372254D01*
X12852698Y-15372254D02*
X12871746Y-15381778D01*
X12871746Y-15381778D02*
X12881270Y-15391302D01*
X12881270Y-15391302D02*
X12890793Y-15410349D01*
X12890793Y-15410349D02*
X12890793Y-15457968D01*
X12890793Y-15457968D02*
X12881270Y-15477016D01*
X12881270Y-15477016D02*
X12871746Y-15486540D01*
X12871746Y-15486540D02*
X12852698Y-15496064D01*
X12852698Y-15496064D02*
X12795555Y-15496064D01*
X12795555Y-15496064D02*
X12776508Y-15486540D01*
X12776508Y-15486540D02*
X12766984Y-15477016D01*
X12957460Y-15296064D02*
X13090793Y-15296064D01*
X13090793Y-15296064D02*
X13005079Y-15496064D01*
X13195555Y-15381778D02*
X13176508Y-15372254D01*
X13176508Y-15372254D02*
X13166984Y-15362730D01*
X13166984Y-15362730D02*
X13157460Y-15343683D01*
X13157460Y-15343683D02*
X13157460Y-15334159D01*
X13157460Y-15334159D02*
X13166984Y-15315111D01*
X13166984Y-15315111D02*
X13176508Y-15305588D01*
X13176508Y-15305588D02*
X13195555Y-15296064D01*
X13195555Y-15296064D02*
X13233651Y-15296064D01*
X13233651Y-15296064D02*
X13252698Y-15305588D01*
X13252698Y-15305588D02*
X13262222Y-15315111D01*
X13262222Y-15315111D02*
X13271746Y-15334159D01*
X13271746Y-15334159D02*
X13271746Y-15343683D01*
X13271746Y-15343683D02*
X13262222Y-15362730D01*
X13262222Y-15362730D02*
X13252698Y-15372254D01*
X13252698Y-15372254D02*
X13233651Y-15381778D01*
X13233651Y-15381778D02*
X13195555Y-15381778D01*
X13195555Y-15381778D02*
X13176508Y-15391302D01*
X13176508Y-15391302D02*
X13166984Y-15400826D01*
X13166984Y-15400826D02*
X13157460Y-15419873D01*
X13157460Y-15419873D02*
X13157460Y-15457968D01*
X13157460Y-15457968D02*
X13166984Y-15477016D01*
X13166984Y-15477016D02*
X13176508Y-15486540D01*
X13176508Y-15486540D02*
X13195555Y-15496064D01*
X13195555Y-15496064D02*
X13233651Y-15496064D01*
X13233651Y-15496064D02*
X13252698Y-15486540D01*
X13252698Y-15486540D02*
X13262222Y-15477016D01*
X13262222Y-15477016D02*
X13271746Y-15457968D01*
X13271746Y-15457968D02*
X13271746Y-15419873D01*
X13271746Y-15419873D02*
X13262222Y-15400826D01*
X13262222Y-15400826D02*
X13252698Y-15391302D01*
X13252698Y-15391302D02*
X13233651Y-15381778D01*
X13347936Y-15296064D02*
X13347936Y-15334159D01*
X13424127Y-15296064D02*
X13424127Y-15334159D01*
X13719365Y-15572254D02*
X13709841Y-15562730D01*
X13709841Y-15562730D02*
X13690794Y-15534159D01*
X13690794Y-15534159D02*
X13681270Y-15515111D01*
X13681270Y-15515111D02*
X13671746Y-15486540D01*
X13671746Y-15486540D02*
X13662222Y-15438921D01*
X13662222Y-15438921D02*
X13662222Y-15400826D01*
X13662222Y-15400826D02*
X13671746Y-15353207D01*
X13671746Y-15353207D02*
X13681270Y-15324635D01*
X13681270Y-15324635D02*
X13690794Y-15305588D01*
X13690794Y-15305588D02*
X13709841Y-15277016D01*
X13709841Y-15277016D02*
X13719365Y-15267492D01*
X13900317Y-15496064D02*
X13786032Y-15496064D01*
X13843174Y-15496064D02*
X13843174Y-15296064D01*
X13843174Y-15296064D02*
X13824127Y-15324635D01*
X13824127Y-15324635D02*
X13805079Y-15343683D01*
X13805079Y-15343683D02*
X13786032Y-15353207D01*
X14138413Y-15496064D02*
X14138413Y-15296064D01*
X14224127Y-15496064D02*
X14224127Y-15391302D01*
X14224127Y-15391302D02*
X14214603Y-15372254D01*
X14214603Y-15372254D02*
X14195556Y-15362730D01*
X14195556Y-15362730D02*
X14166984Y-15362730D01*
X14166984Y-15362730D02*
X14147936Y-15372254D01*
X14147936Y-15372254D02*
X14138413Y-15381778D01*
X14347936Y-15496064D02*
X14328889Y-15486540D01*
X14328889Y-15486540D02*
X14319365Y-15477016D01*
X14319365Y-15477016D02*
X14309841Y-15457968D01*
X14309841Y-15457968D02*
X14309841Y-15400826D01*
X14309841Y-15400826D02*
X14319365Y-15381778D01*
X14319365Y-15381778D02*
X14328889Y-15372254D01*
X14328889Y-15372254D02*
X14347936Y-15362730D01*
X14347936Y-15362730D02*
X14376508Y-15362730D01*
X14376508Y-15362730D02*
X14395556Y-15372254D01*
X14395556Y-15372254D02*
X14405079Y-15381778D01*
X14405079Y-15381778D02*
X14414603Y-15400826D01*
X14414603Y-15400826D02*
X14414603Y-15457968D01*
X14414603Y-15457968D02*
X14405079Y-15477016D01*
X14405079Y-15477016D02*
X14395556Y-15486540D01*
X14395556Y-15486540D02*
X14376508Y-15496064D01*
X14376508Y-15496064D02*
X14347936Y-15496064D01*
X14528889Y-15496064D02*
X14509841Y-15486540D01*
X14509841Y-15486540D02*
X14500317Y-15467492D01*
X14500317Y-15467492D02*
X14500317Y-15296064D01*
X14681270Y-15486540D02*
X14662222Y-15496064D01*
X14662222Y-15496064D02*
X14624127Y-15496064D01*
X14624127Y-15496064D02*
X14605079Y-15486540D01*
X14605079Y-15486540D02*
X14595556Y-15467492D01*
X14595556Y-15467492D02*
X14595556Y-15391302D01*
X14595556Y-15391302D02*
X14605079Y-15372254D01*
X14605079Y-15372254D02*
X14624127Y-15362730D01*
X14624127Y-15362730D02*
X14662222Y-15362730D01*
X14662222Y-15362730D02*
X14681270Y-15372254D01*
X14681270Y-15372254D02*
X14690794Y-15391302D01*
X14690794Y-15391302D02*
X14690794Y-15410349D01*
X14690794Y-15410349D02*
X14595556Y-15429397D01*
X14757460Y-15572254D02*
X14766984Y-15562730D01*
X14766984Y-15562730D02*
X14786032Y-15534159D01*
X14786032Y-15534159D02*
X14795556Y-15515111D01*
X14795556Y-15515111D02*
X14805079Y-15486540D01*
X14805079Y-15486540D02*
X14814603Y-15438921D01*
X14814603Y-15438921D02*
X14814603Y-15400826D01*
X14814603Y-15400826D02*
X14805079Y-15353207D01*
X14805079Y-15353207D02*
X14795556Y-15324635D01*
X14795556Y-15324635D02*
X14786032Y-15305588D01*
X14786032Y-15305588D02*
X14766984Y-15277016D01*
X14766984Y-15277016D02*
X14757460Y-15267492D01*
X15119365Y-15572254D02*
X15109841Y-15562730D01*
X15109841Y-15562730D02*
X15090794Y-15534159D01*
X15090794Y-15534159D02*
X15081270Y-15515111D01*
X15081270Y-15515111D02*
X15071746Y-15486540D01*
X15071746Y-15486540D02*
X15062222Y-15438921D01*
X15062222Y-15438921D02*
X15062222Y-15400826D01*
X15062222Y-15400826D02*
X15071746Y-15353207D01*
X15071746Y-15353207D02*
X15081270Y-15324635D01*
X15081270Y-15324635D02*
X15090794Y-15305588D01*
X15090794Y-15305588D02*
X15109841Y-15277016D01*
X15109841Y-15277016D02*
X15119365Y-15267492D01*
X15195556Y-15362730D02*
X15195556Y-15496064D01*
X15195556Y-15381778D02*
X15205079Y-15372254D01*
X15205079Y-15372254D02*
X15224127Y-15362730D01*
X15224127Y-15362730D02*
X15252698Y-15362730D01*
X15252698Y-15362730D02*
X15271746Y-15372254D01*
X15271746Y-15372254D02*
X15281270Y-15391302D01*
X15281270Y-15391302D02*
X15281270Y-15496064D01*
X15405079Y-15496064D02*
X15386032Y-15486540D01*
X15386032Y-15486540D02*
X15376508Y-15477016D01*
X15376508Y-15477016D02*
X15366984Y-15457968D01*
X15366984Y-15457968D02*
X15366984Y-15400826D01*
X15366984Y-15400826D02*
X15376508Y-15381778D01*
X15376508Y-15381778D02*
X15386032Y-15372254D01*
X15386032Y-15372254D02*
X15405079Y-15362730D01*
X15405079Y-15362730D02*
X15433651Y-15362730D01*
X15433651Y-15362730D02*
X15452698Y-15372254D01*
X15452698Y-15372254D02*
X15462222Y-15381778D01*
X15462222Y-15381778D02*
X15471746Y-15400826D01*
X15471746Y-15400826D02*
X15471746Y-15457968D01*
X15471746Y-15457968D02*
X15462222Y-15477016D01*
X15462222Y-15477016D02*
X15452698Y-15486540D01*
X15452698Y-15486540D02*
X15433651Y-15496064D01*
X15433651Y-15496064D02*
X15405079Y-15496064D01*
X15528889Y-15362730D02*
X15605079Y-15362730D01*
X15557460Y-15296064D02*
X15557460Y-15467492D01*
X15557460Y-15467492D02*
X15566984Y-15486540D01*
X15566984Y-15486540D02*
X15586032Y-15496064D01*
X15586032Y-15496064D02*
X15605079Y-15496064D01*
X15824127Y-15362730D02*
X15824127Y-15562730D01*
X15824127Y-15372254D02*
X15843175Y-15362730D01*
X15843175Y-15362730D02*
X15881270Y-15362730D01*
X15881270Y-15362730D02*
X15900318Y-15372254D01*
X15900318Y-15372254D02*
X15909841Y-15381778D01*
X15909841Y-15381778D02*
X15919365Y-15400826D01*
X15919365Y-15400826D02*
X15919365Y-15457968D01*
X15919365Y-15457968D02*
X15909841Y-15477016D01*
X15909841Y-15477016D02*
X15900318Y-15486540D01*
X15900318Y-15486540D02*
X15881270Y-15496064D01*
X15881270Y-15496064D02*
X15843175Y-15496064D01*
X15843175Y-15496064D02*
X15824127Y-15486540D01*
X16033651Y-15496064D02*
X16014603Y-15486540D01*
X16014603Y-15486540D02*
X16005079Y-15467492D01*
X16005079Y-15467492D02*
X16005079Y-15296064D01*
X16195556Y-15496064D02*
X16195556Y-15391302D01*
X16195556Y-15391302D02*
X16186032Y-15372254D01*
X16186032Y-15372254D02*
X16166984Y-15362730D01*
X16166984Y-15362730D02*
X16128889Y-15362730D01*
X16128889Y-15362730D02*
X16109841Y-15372254D01*
X16195556Y-15486540D02*
X16176508Y-15496064D01*
X16176508Y-15496064D02*
X16128889Y-15496064D01*
X16128889Y-15496064D02*
X16109841Y-15486540D01*
X16109841Y-15486540D02*
X16100318Y-15467492D01*
X16100318Y-15467492D02*
X16100318Y-15448445D01*
X16100318Y-15448445D02*
X16109841Y-15429397D01*
X16109841Y-15429397D02*
X16128889Y-15419873D01*
X16128889Y-15419873D02*
X16176508Y-15419873D01*
X16176508Y-15419873D02*
X16195556Y-15410349D01*
X16262222Y-15362730D02*
X16338413Y-15362730D01*
X16290794Y-15296064D02*
X16290794Y-15467492D01*
X16290794Y-15467492D02*
X16300318Y-15486540D01*
X16300318Y-15486540D02*
X16319365Y-15496064D01*
X16319365Y-15496064D02*
X16338413Y-15496064D01*
X16481270Y-15486540D02*
X16462222Y-15496064D01*
X16462222Y-15496064D02*
X16424127Y-15496064D01*
X16424127Y-15496064D02*
X16405079Y-15486540D01*
X16405079Y-15486540D02*
X16395556Y-15467492D01*
X16395556Y-15467492D02*
X16395556Y-15391302D01*
X16395556Y-15391302D02*
X16405079Y-15372254D01*
X16405079Y-15372254D02*
X16424127Y-15362730D01*
X16424127Y-15362730D02*
X16462222Y-15362730D01*
X16462222Y-15362730D02*
X16481270Y-15372254D01*
X16481270Y-15372254D02*
X16490794Y-15391302D01*
X16490794Y-15391302D02*
X16490794Y-15410349D01*
X16490794Y-15410349D02*
X16395556Y-15429397D01*
X16662222Y-15496064D02*
X16662222Y-15296064D01*
X16662222Y-15486540D02*
X16643175Y-15496064D01*
X16643175Y-15496064D02*
X16605079Y-15496064D01*
X16605079Y-15496064D02*
X16586032Y-15486540D01*
X16586032Y-15486540D02*
X16576508Y-15477016D01*
X16576508Y-15477016D02*
X16566984Y-15457968D01*
X16566984Y-15457968D02*
X16566984Y-15400826D01*
X16566984Y-15400826D02*
X16576508Y-15381778D01*
X16576508Y-15381778D02*
X16586032Y-15372254D01*
X16586032Y-15372254D02*
X16605079Y-15362730D01*
X16605079Y-15362730D02*
X16643175Y-15362730D01*
X16643175Y-15362730D02*
X16662222Y-15372254D01*
X16738413Y-15572254D02*
X16747937Y-15562730D01*
X16747937Y-15562730D02*
X16766984Y-15534159D01*
X16766984Y-15534159D02*
X16776508Y-15515111D01*
X16776508Y-15515111D02*
X16786032Y-15486540D01*
X16786032Y-15486540D02*
X16795556Y-15438921D01*
X16795556Y-15438921D02*
X16795556Y-15400826D01*
X16795556Y-15400826D02*
X16786032Y-15353207D01*
X16786032Y-15353207D02*
X16776508Y-15324635D01*
X16776508Y-15324635D02*
X16766984Y-15305588D01*
X16766984Y-15305588D02*
X16747937Y-15277016D01*
X16747937Y-15277016D02*
X16738413Y-15267492D01*
M02*
