%TF.GenerationSoftware,KiCad,Pcbnew,7.0.1-0*%
%TF.CreationDate,2023-03-30T00:17:16-04:00*%
%TF.ProjectId,CHRP400,43485250-3430-4302-9e6b-696361645f70,0*%
%TF.SameCoordinates,Original*%
%TF.FileFunction,Soldermask,Bot*%
%TF.FilePolarity,Negative*%
%FSLAX46Y46*%
G04 Gerber Fmt 4.6, Leading zero omitted, Abs format (unit mm)*
G04 Created by KiCad (PCBNEW 7.0.1-0) date 2023-03-30 00:17:16*
%MOMM*%
%LPD*%
G01*
G04 APERTURE LIST*
G04 Aperture macros list*
%AMRoundRect*
0 Rectangle with rounded corners*
0 $1 Rounding radius*
0 $2 $3 $4 $5 $6 $7 $8 $9 X,Y pos of 4 corners*
0 Add a 4 corners polygon primitive as box body*
4,1,4,$2,$3,$4,$5,$6,$7,$8,$9,$2,$3,0*
0 Add four circle primitives for the rounded corners*
1,1,$1+$1,$2,$3*
1,1,$1+$1,$4,$5*
1,1,$1+$1,$6,$7*
1,1,$1+$1,$8,$9*
0 Add four rect primitives between the rounded corners*
20,1,$1+$1,$2,$3,$4,$5,0*
20,1,$1+$1,$4,$5,$6,$7,0*
20,1,$1+$1,$6,$7,$8,$9,0*
20,1,$1+$1,$8,$9,$2,$3,0*%
G04 Aperture macros list end*
%ADD10RoundRect,0.050800X0.800000X-0.800000X0.800000X0.800000X-0.800000X0.800000X-0.800000X-0.800000X0*%
%ADD11C,1.701600*%
%ADD12C,1.901600*%
%ADD13RoundRect,0.050800X-0.900000X0.900000X-0.900000X-0.900000X0.900000X-0.900000X0.900000X0.900000X0*%
%ADD14RoundRect,0.050800X0.900000X-0.900000X0.900000X0.900000X-0.900000X0.900000X-0.900000X-0.900000X0*%
%ADD15C,2.501600*%
%ADD16O,2.501600X2.501600*%
%ADD17C,6.501600*%
%ADD18O,1.701600X1.701600*%
%ADD19C,2.101600*%
%ADD20RoundRect,0.050800X-0.800000X-0.800000X0.800000X-0.800000X0.800000X0.800000X-0.800000X0.800000X0*%
%ADD21RoundRect,0.050800X-0.850000X-0.850000X0.850000X-0.850000X0.850000X0.850000X-0.850000X0.850000X0*%
%ADD22O,1.801600X1.801600*%
%ADD23RoundRect,0.050800X0.850000X0.850000X-0.850000X0.850000X-0.850000X-0.850000X0.850000X-0.850000X0*%
%ADD24C,0.801600*%
%ADD25O,2.501600X1.001600*%
%ADD26O,1.801600X1.001600*%
%ADD27RoundRect,0.050800X1.000000X1.000000X-1.000000X1.000000X-1.000000X-1.000000X1.000000X-1.000000X0*%
%ADD28RoundRect,0.301000X-0.649800X-0.649800X0.649800X-0.649800X0.649800X0.649800X-0.649800X0.649800X0*%
%ADD29RoundRect,0.050800X0.900000X0.900000X-0.900000X0.900000X-0.900000X-0.900000X0.900000X-0.900000X0*%
%ADD30RoundRect,0.050800X0.850000X-0.850000X0.850000X0.850000X-0.850000X0.850000X-0.850000X-0.850000X0*%
%ADD31RoundRect,0.050800X-1.300000X-1.300000X1.300000X-1.300000X1.300000X1.300000X-1.300000X1.300000X0*%
%ADD32C,2.701600*%
%ADD33RoundRect,0.050800X-0.850000X0.850000X-0.850000X-0.850000X0.850000X-0.850000X0.850000X0.850000X0*%
%ADD34O,3.601600X3.601600*%
%ADD35C,2.006600*%
G04 APERTURE END LIST*
D10*
%TO.C,C1*%
X120015000Y-66040000D03*
D11*
X120015000Y-63540000D03*
%TD*%
%TO.C,C4*%
X104160000Y-84455000D03*
X106660000Y-84455000D03*
%TD*%
D12*
%TO.C,D1*%
X112395000Y-84455000D03*
D13*
X112395000Y-86995000D03*
%TD*%
D12*
%TO.C,D4*%
X132715000Y-99065000D03*
D14*
X132715000Y-96525000D03*
%TD*%
D15*
%TO.C,FB1*%
X116840000Y-69850000D03*
D16*
X104140000Y-69850000D03*
%TD*%
D17*
%TO.C,MH1*%
X105409999Y-60959999D03*
%TD*%
D11*
%TO.C,R6*%
X146050000Y-81280000D03*
D18*
X156210000Y-81280000D03*
%TD*%
D19*
%TO.C,SW4*%
X186055000Y-80645000D03*
X179555000Y-80645000D03*
X186055000Y-76145000D03*
X179555000Y-76145000D03*
%TD*%
D11*
%TO.C,C2*%
X116185000Y-83820000D03*
X116185000Y-86320000D03*
%TD*%
%TO.C,C3*%
X126365000Y-71100000D03*
X126365000Y-68600000D03*
%TD*%
D12*
%TO.C,D3*%
X126365000Y-99065000D03*
D14*
X126365000Y-96525000D03*
%TD*%
D19*
%TO.C,SW3*%
X169545000Y-80645000D03*
X163045000Y-80645000D03*
X169545000Y-76145000D03*
X163045000Y-76145000D03*
%TD*%
D11*
%TO.C,R5*%
X146050000Y-73660000D03*
D18*
X156210000Y-73660000D03*
%TD*%
D17*
%TO.C,MH4*%
X105410000Y-116840000D03*
%TD*%
D19*
%TO.C,SW5*%
X177875000Y-89245000D03*
X171375000Y-89245000D03*
X177875000Y-84745000D03*
X171375000Y-84745000D03*
%TD*%
D11*
%TO.C,R22*%
X128905000Y-93980000D03*
D18*
X128905000Y-83820000D03*
%TD*%
D11*
%TO.C,R2*%
X118745000Y-93980000D03*
D18*
X118745000Y-83820000D03*
%TD*%
D10*
%TO.C,U1*%
X118745000Y-81280000D03*
D18*
X121285000Y-81280000D03*
X123825000Y-81280000D03*
X126365000Y-81280000D03*
X128905000Y-81280000D03*
X131445000Y-81280000D03*
X133985000Y-81280000D03*
X136525000Y-81280000D03*
X139065000Y-81280000D03*
X141605000Y-81280000D03*
X141605000Y-73660000D03*
X139065000Y-73660000D03*
X136525000Y-73660000D03*
X133985000Y-73660000D03*
X131445000Y-73660000D03*
X128905000Y-73660000D03*
X126365000Y-73660000D03*
X123825000Y-73660000D03*
X121285000Y-73660000D03*
X118745000Y-73660000D03*
%TD*%
D11*
%TO.C,R13*%
X139065000Y-60960000D03*
D18*
X139065000Y-71120000D03*
%TD*%
D11*
%TO.C,R9*%
X136525000Y-83820000D03*
D18*
X136525000Y-93980000D03*
%TD*%
D11*
%TO.C,R8*%
X133985000Y-83820000D03*
D18*
X133985000Y-93980000D03*
%TD*%
D11*
%TO.C,R14*%
X153035000Y-60960000D03*
D18*
X153035000Y-71120000D03*
%TD*%
D11*
%TO.C,R10*%
X139065000Y-83820000D03*
D18*
X139065000Y-93980000D03*
%TD*%
D11*
%TO.C,R12*%
X136525000Y-60960000D03*
D18*
X136525000Y-71120000D03*
%TD*%
D20*
%TO.C,C6*%
X125095000Y-104140000D03*
D11*
X127595000Y-104140000D03*
%TD*%
D21*
%TO.C,H2*%
X147320000Y-63500000D03*
D22*
X147320000Y-66040000D03*
X147320000Y-68580000D03*
%TD*%
D23*
%TO.C,H4*%
X142240000Y-68565000D03*
D22*
X142240000Y-66025000D03*
X142240000Y-63485000D03*
%TD*%
D17*
%TO.C,MH2*%
X186690000Y-60960000D03*
%TD*%
D11*
%TO.C,R4*%
X146050000Y-76200000D03*
D18*
X156210000Y-76200000D03*
%TD*%
D21*
%TO.C,H3*%
X144780000Y-63500000D03*
D22*
X144780000Y-66040000D03*
X144780000Y-68580000D03*
%TD*%
D24*
%TO.C,J1*%
X107696000Y-74498200D03*
X107696000Y-75348200D03*
X107696000Y-76198200D03*
X107696000Y-77048200D03*
X107696000Y-77898200D03*
X107696000Y-78748200D03*
X107696000Y-79598200D03*
X107696000Y-80448200D03*
X106346000Y-80448200D03*
X106346000Y-79598200D03*
X106346000Y-78748200D03*
X106346000Y-77898200D03*
X106346000Y-77048200D03*
X106346000Y-76198200D03*
X106346000Y-75348200D03*
X106346000Y-74498200D03*
D25*
X106716000Y-73148200D03*
D26*
X103336000Y-73148200D03*
D25*
X106716000Y-81798200D03*
D26*
X103336000Y-81798200D03*
%TD*%
D17*
%TO.C,MH3*%
X186690000Y-116840000D03*
%TD*%
D11*
%TO.C,R17*%
X155575000Y-60960000D03*
D18*
X155575000Y-71120000D03*
%TD*%
D11*
%TO.C,R11*%
X133985000Y-60960000D03*
D18*
X133985000Y-71120000D03*
%TD*%
D11*
%TO.C,R1*%
X126365000Y-83820000D03*
D18*
X126365000Y-93980000D03*
%TD*%
D12*
%TO.C,D5*%
X139065000Y-99065000D03*
D14*
X139065000Y-96525000D03*
%TD*%
D27*
%TO.C,LS1*%
X111125000Y-93980000D03*
D19*
X106125000Y-93980000D03*
%TD*%
D28*
%TO.C,U4*%
X161925000Y-92075000D03*
D12*
X164465000Y-92075000D03*
X167005000Y-92075000D03*
%TD*%
D11*
%TO.C,R7*%
X131445000Y-83820000D03*
D18*
X131445000Y-93980000D03*
%TD*%
D29*
%TO.C,H9*%
X184150000Y-99060000D03*
D12*
X184150000Y-96520000D03*
X184150000Y-93980000D03*
X184150000Y-91440000D03*
X184150000Y-88900000D03*
X184150000Y-86360000D03*
%TD*%
D21*
%TO.C,H1*%
X149860000Y-60960000D03*
D22*
X149860000Y-63500000D03*
X149860000Y-66040000D03*
%TD*%
D11*
%TO.C,C5*%
X125095000Y-109220000D03*
X125095000Y-111720000D03*
%TD*%
%TO.C,R3*%
X146050000Y-78740000D03*
D18*
X156210000Y-78740000D03*
%TD*%
D12*
%TO.C,D2*%
X120015000Y-99065000D03*
D14*
X120015000Y-96525000D03*
%TD*%
D19*
%TO.C,SW2*%
X171375000Y-67600000D03*
X177875000Y-67600000D03*
X171375000Y-72100000D03*
X177875000Y-72100000D03*
%TD*%
%TO.C,SW1*%
X114935000Y-74295000D03*
X114935000Y-80795000D03*
X110435000Y-74295000D03*
X110435000Y-80795000D03*
%TD*%
D23*
%TO.C,BT1*%
X114935000Y-66040000D03*
D22*
X114935000Y-63500000D03*
%TD*%
D11*
%TO.C,R25*%
X121285000Y-83820000D03*
D18*
X121285000Y-93980000D03*
%TD*%
D30*
%TO.C,H8*%
X172100000Y-52578000D03*
D22*
X174640000Y-52578000D03*
X177180000Y-52578000D03*
%TD*%
D11*
%TO.C,R15*%
X128905000Y-71120000D03*
D18*
X128905000Y-60960000D03*
%TD*%
D31*
%TO.C,CON1*%
X133350000Y-115570008D03*
D32*
X138430000Y-115570008D03*
X143510000Y-115570008D03*
X148590000Y-115570008D03*
X153670000Y-115570008D03*
X158750000Y-115570008D03*
%TD*%
D10*
%TO.C,C8*%
X140970000Y-107250121D03*
D11*
X140970000Y-104750121D03*
%TD*%
D17*
%TO.C,MH6*%
X161925000Y-50800000D03*
%TD*%
D11*
%TO.C,R18*%
X124968000Y-46990000D03*
D18*
X114808000Y-46990000D03*
%TD*%
D11*
%TO.C,C7*%
X157480000Y-89535000D03*
X157480000Y-92035000D03*
%TD*%
D20*
%TO.C,U2*%
X147320000Y-89535008D03*
D18*
X147320000Y-92075008D03*
X147320000Y-94615008D03*
X147320000Y-97155008D03*
X147320000Y-99695008D03*
X147320000Y-102235008D03*
X147320000Y-104775008D03*
X147320000Y-107315008D03*
X154940000Y-107315008D03*
X154940000Y-104775008D03*
X154940000Y-102235008D03*
X154940000Y-99695008D03*
X154940000Y-97155008D03*
X154940000Y-94615008D03*
X154940000Y-92075008D03*
X154940000Y-89535008D03*
%TD*%
D11*
%TO.C,R20*%
X167132000Y-46990000D03*
D18*
X177292000Y-46990000D03*
%TD*%
D33*
%TO.C,H5*%
X120015000Y-59055000D03*
D22*
X117475000Y-59055000D03*
X114935000Y-59055000D03*
%TD*%
D11*
%TO.C,R16*%
X131445000Y-60960000D03*
D18*
X131445000Y-71120000D03*
%TD*%
D11*
%TO.C,R23*%
X156210000Y-86360000D03*
D18*
X146050000Y-86360000D03*
%TD*%
D11*
%TO.C,R21*%
X167132000Y-49530000D03*
D18*
X177292000Y-49530000D03*
%TD*%
D11*
%TO.C,R19*%
X124968000Y-49530000D03*
D18*
X114808000Y-49530000D03*
%TD*%
D33*
%TO.C,H6*%
X120015000Y-52705000D03*
D22*
X117475000Y-52705000D03*
X114935000Y-52705000D03*
%TD*%
D17*
%TO.C,MH5*%
X130175000Y-50800000D03*
%TD*%
D34*
%TO.C,U3*%
X105260000Y-106680000D03*
D35*
X121920000Y-109220000D03*
X121920000Y-106680000D03*
X121920000Y-104140000D03*
%TD*%
D11*
%TO.C,C9*%
X167005000Y-94615000D03*
X164505000Y-94615000D03*
%TD*%
%TO.C,R24*%
X156210000Y-83820000D03*
D18*
X146050000Y-83820000D03*
%TD*%
D30*
%TO.C,H7*%
X172100000Y-59055000D03*
D22*
X174640000Y-59055000D03*
X177180000Y-59055000D03*
%TD*%
D11*
%TO.C,R26*%
X123825000Y-83820000D03*
D18*
X123825000Y-93980000D03*
%TD*%
D12*
%TO.C,Q1*%
X139700000Y-49535000D03*
D14*
X139700000Y-46995000D03*
%TD*%
D12*
%TO.C,Q2*%
X152400000Y-49535000D03*
D14*
X152400000Y-46995000D03*
%TD*%
D12*
%TO.C,D6*%
X146050000Y-49530000D03*
D14*
X146050000Y-46990000D03*
%TD*%
D12*
%TO.C,Q3*%
X111760000Y-49530000D03*
D14*
X111760000Y-46990000D03*
%TD*%
D12*
%TO.C,D7*%
X105410000Y-49535000D03*
D14*
X105410000Y-46995000D03*
%TD*%
D12*
%TO.C,D8*%
X186690000Y-49535000D03*
D14*
X186690000Y-46995000D03*
%TD*%
D12*
%TO.C,Q4*%
X180340000Y-49535000D03*
D14*
X180340000Y-46995000D03*
%TD*%
G36*
X107696000Y-79996975D02*
G01*
X107785376Y-79982819D01*
X107787188Y-79983470D01*
X107787611Y-79985348D01*
X107786403Y-79986562D01*
X107786403Y-80059838D01*
X107787610Y-80061050D01*
X107787188Y-80062929D01*
X107785376Y-80063580D01*
X107696000Y-80049424D01*
X107606621Y-80063581D01*
X107604809Y-80062930D01*
X107604386Y-80061052D01*
X107605596Y-80059837D01*
X107605596Y-79986564D01*
X107604386Y-79985347D01*
X107604809Y-79983469D01*
X107606621Y-79982818D01*
X107696000Y-79996975D01*
G37*
G36*
X106346000Y-79996975D02*
G01*
X106435376Y-79982819D01*
X106437188Y-79983470D01*
X106437611Y-79985348D01*
X106436403Y-79986562D01*
X106436403Y-80059838D01*
X106437610Y-80061050D01*
X106437188Y-80062929D01*
X106435376Y-80063580D01*
X106346000Y-80049424D01*
X106256621Y-80063581D01*
X106254809Y-80062930D01*
X106254386Y-80061052D01*
X106255596Y-80059837D01*
X106255596Y-79986564D01*
X106254386Y-79985347D01*
X106254809Y-79983469D01*
X106256621Y-79982818D01*
X106346000Y-79996975D01*
G37*
G36*
X107696000Y-79146975D02*
G01*
X107785376Y-79132819D01*
X107787188Y-79133470D01*
X107787611Y-79135348D01*
X107786403Y-79136562D01*
X107786403Y-79209838D01*
X107787610Y-79211050D01*
X107787188Y-79212929D01*
X107785376Y-79213580D01*
X107696000Y-79199424D01*
X107606621Y-79213581D01*
X107604809Y-79212930D01*
X107604386Y-79211052D01*
X107605596Y-79209837D01*
X107605596Y-79136564D01*
X107604386Y-79135347D01*
X107604809Y-79133469D01*
X107606621Y-79132818D01*
X107696000Y-79146975D01*
G37*
G36*
X106346000Y-79146975D02*
G01*
X106435376Y-79132819D01*
X106437188Y-79133470D01*
X106437611Y-79135348D01*
X106436403Y-79136562D01*
X106436403Y-79209838D01*
X106437610Y-79211050D01*
X106437188Y-79212929D01*
X106435376Y-79213580D01*
X106346000Y-79199424D01*
X106256621Y-79213581D01*
X106254809Y-79212930D01*
X106254386Y-79211052D01*
X106255596Y-79209837D01*
X106255596Y-79136564D01*
X106254386Y-79135347D01*
X106254809Y-79133469D01*
X106256621Y-79132818D01*
X106346000Y-79146975D01*
G37*
G36*
X107696000Y-78296975D02*
G01*
X107785376Y-78282819D01*
X107787188Y-78283470D01*
X107787611Y-78285348D01*
X107786403Y-78286562D01*
X107786403Y-78359838D01*
X107787610Y-78361050D01*
X107787188Y-78362929D01*
X107785376Y-78363580D01*
X107696000Y-78349424D01*
X107606621Y-78363581D01*
X107604809Y-78362930D01*
X107604386Y-78361052D01*
X107605596Y-78359837D01*
X107605596Y-78286564D01*
X107604386Y-78285347D01*
X107604809Y-78283469D01*
X107606621Y-78282818D01*
X107696000Y-78296975D01*
G37*
G36*
X106346000Y-78296975D02*
G01*
X106435376Y-78282819D01*
X106437188Y-78283470D01*
X106437611Y-78285348D01*
X106436403Y-78286562D01*
X106436403Y-78359838D01*
X106437610Y-78361050D01*
X106437188Y-78362929D01*
X106435376Y-78363580D01*
X106346000Y-78349424D01*
X106256621Y-78363581D01*
X106254809Y-78362930D01*
X106254386Y-78361052D01*
X106255596Y-78359837D01*
X106255596Y-78286564D01*
X106254386Y-78285347D01*
X106254809Y-78283469D01*
X106256621Y-78282818D01*
X106346000Y-78296975D01*
G37*
G36*
X107696000Y-77446975D02*
G01*
X107785376Y-77432819D01*
X107787188Y-77433470D01*
X107787611Y-77435348D01*
X107786403Y-77436562D01*
X107786403Y-77509838D01*
X107787610Y-77511050D01*
X107787188Y-77512929D01*
X107785376Y-77513580D01*
X107696000Y-77499424D01*
X107606621Y-77513581D01*
X107604809Y-77512930D01*
X107604386Y-77511052D01*
X107605596Y-77509837D01*
X107605596Y-77436564D01*
X107604386Y-77435347D01*
X107604809Y-77433469D01*
X107606621Y-77432818D01*
X107696000Y-77446975D01*
G37*
G36*
X106346000Y-77446975D02*
G01*
X106435376Y-77432819D01*
X106437188Y-77433470D01*
X106437611Y-77435348D01*
X106436403Y-77436562D01*
X106436403Y-77509838D01*
X106437610Y-77511050D01*
X106437188Y-77512929D01*
X106435376Y-77513580D01*
X106346000Y-77499424D01*
X106256621Y-77513581D01*
X106254809Y-77512930D01*
X106254386Y-77511052D01*
X106255596Y-77509837D01*
X106255596Y-77436564D01*
X106254386Y-77435347D01*
X106254809Y-77433469D01*
X106256621Y-77432818D01*
X106346000Y-77446975D01*
G37*
G36*
X107696000Y-76596975D02*
G01*
X107785376Y-76582819D01*
X107787188Y-76583470D01*
X107787611Y-76585348D01*
X107786403Y-76586562D01*
X107786403Y-76659838D01*
X107787610Y-76661050D01*
X107787188Y-76662929D01*
X107785376Y-76663580D01*
X107696000Y-76649424D01*
X107606621Y-76663581D01*
X107604809Y-76662930D01*
X107604386Y-76661052D01*
X107605596Y-76659837D01*
X107605596Y-76586564D01*
X107604386Y-76585347D01*
X107604809Y-76583469D01*
X107606621Y-76582818D01*
X107696000Y-76596975D01*
G37*
G36*
X106346000Y-76596975D02*
G01*
X106435376Y-76582819D01*
X106437188Y-76583470D01*
X106437611Y-76585348D01*
X106436403Y-76586562D01*
X106436403Y-76659838D01*
X106437610Y-76661050D01*
X106437188Y-76662929D01*
X106435376Y-76663580D01*
X106346000Y-76649424D01*
X106256621Y-76663581D01*
X106254809Y-76662930D01*
X106254386Y-76661052D01*
X106255596Y-76659837D01*
X106255596Y-76586564D01*
X106254386Y-76585347D01*
X106254809Y-76583469D01*
X106256621Y-76582818D01*
X106346000Y-76596975D01*
G37*
G36*
X107696000Y-75746975D02*
G01*
X107785376Y-75732819D01*
X107787188Y-75733470D01*
X107787611Y-75735348D01*
X107786403Y-75736562D01*
X107786403Y-75809838D01*
X107787610Y-75811050D01*
X107787188Y-75812929D01*
X107785376Y-75813580D01*
X107696000Y-75799424D01*
X107606621Y-75813581D01*
X107604809Y-75812930D01*
X107604386Y-75811052D01*
X107605596Y-75809837D01*
X107605596Y-75736564D01*
X107604386Y-75735347D01*
X107604809Y-75733469D01*
X107606621Y-75732818D01*
X107696000Y-75746975D01*
G37*
G36*
X106346000Y-75746975D02*
G01*
X106435376Y-75732819D01*
X106437188Y-75733470D01*
X106437611Y-75735348D01*
X106436403Y-75736562D01*
X106436403Y-75809838D01*
X106437610Y-75811050D01*
X106437188Y-75812929D01*
X106435376Y-75813580D01*
X106346000Y-75799424D01*
X106256621Y-75813581D01*
X106254809Y-75812930D01*
X106254386Y-75811052D01*
X106255596Y-75809837D01*
X106255596Y-75736564D01*
X106254386Y-75735347D01*
X106254809Y-75733469D01*
X106256621Y-75732818D01*
X106346000Y-75746975D01*
G37*
G36*
X107696000Y-74896975D02*
G01*
X107785376Y-74882819D01*
X107787188Y-74883470D01*
X107787611Y-74885348D01*
X107786403Y-74886562D01*
X107786403Y-74959838D01*
X107787610Y-74961050D01*
X107787188Y-74962929D01*
X107785376Y-74963580D01*
X107696000Y-74949424D01*
X107606621Y-74963581D01*
X107604809Y-74962930D01*
X107604386Y-74961052D01*
X107605596Y-74959837D01*
X107605596Y-74886564D01*
X107604386Y-74885347D01*
X107604809Y-74883469D01*
X107606621Y-74882818D01*
X107696000Y-74896975D01*
G37*
G36*
X106346000Y-74896975D02*
G01*
X106435376Y-74882819D01*
X106437188Y-74883470D01*
X106437611Y-74885348D01*
X106436403Y-74886562D01*
X106436403Y-74959838D01*
X106437610Y-74961050D01*
X106437188Y-74962929D01*
X106435376Y-74963580D01*
X106346000Y-74949424D01*
X106256621Y-74963581D01*
X106254809Y-74962930D01*
X106254386Y-74961052D01*
X106255596Y-74959837D01*
X106255596Y-74886564D01*
X106254386Y-74885347D01*
X106254809Y-74883469D01*
X106256621Y-74882818D01*
X106346000Y-74896975D01*
G37*
M02*
