%TF.GenerationSoftware,KiCad,Pcbnew,7.0.1-0*%
%TF.CreationDate,2023-03-30T00:17:16-04:00*%
%TF.ProjectId,CHRP400,43485250-3430-4302-9e6b-696361645f70,0*%
%TF.SameCoordinates,Original*%
%TF.FileFunction,Copper,L2,Bot*%
%TF.FilePolarity,Positive*%
%FSLAX46Y46*%
G04 Gerber Fmt 4.6, Leading zero omitted, Abs format (unit mm)*
G04 Created by KiCad (PCBNEW 7.0.1-0) date 2023-03-30 00:17:16*
%MOMM*%
%LPD*%
G01*
G04 APERTURE LIST*
G04 Aperture macros list*
%AMRoundRect*
0 Rectangle with rounded corners*
0 $1 Rounding radius*
0 $2 $3 $4 $5 $6 $7 $8 $9 X,Y pos of 4 corners*
0 Add a 4 corners polygon primitive as box body*
4,1,4,$2,$3,$4,$5,$6,$7,$8,$9,$2,$3,0*
0 Add four circle primitives for the rounded corners*
1,1,$1+$1,$2,$3*
1,1,$1+$1,$4,$5*
1,1,$1+$1,$6,$7*
1,1,$1+$1,$8,$9*
0 Add four rect primitives between the rounded corners*
20,1,$1+$1,$2,$3,$4,$5,0*
20,1,$1+$1,$4,$5,$6,$7,0*
20,1,$1+$1,$6,$7,$8,$9,0*
20,1,$1+$1,$8,$9,$2,$3,0*%
G04 Aperture macros list end*
%TA.AperFunction,ComponentPad*%
%ADD10R,1.600000X1.600000*%
%TD*%
%TA.AperFunction,ComponentPad*%
%ADD11C,1.600000*%
%TD*%
%TA.AperFunction,ComponentPad*%
%ADD12C,1.800000*%
%TD*%
%TA.AperFunction,ComponentPad*%
%ADD13R,1.800000X1.800000*%
%TD*%
%TA.AperFunction,ComponentPad*%
%ADD14C,2.400000*%
%TD*%
%TA.AperFunction,ComponentPad*%
%ADD15O,2.400000X2.400000*%
%TD*%
%TA.AperFunction,ComponentPad*%
%ADD16C,6.400000*%
%TD*%
%TA.AperFunction,ComponentPad*%
%ADD17O,1.600000X1.600000*%
%TD*%
%TA.AperFunction,ComponentPad*%
%ADD18C,2.000000*%
%TD*%
%TA.AperFunction,ComponentPad*%
%ADD19R,1.700000X1.700000*%
%TD*%
%TA.AperFunction,ComponentPad*%
%ADD20O,1.700000X1.700000*%
%TD*%
%TA.AperFunction,ComponentPad*%
%ADD21C,0.700000*%
%TD*%
%TA.AperFunction,ComponentPad*%
%ADD22O,2.400000X0.900000*%
%TD*%
%TA.AperFunction,ComponentPad*%
%ADD23O,1.700000X0.900000*%
%TD*%
%TA.AperFunction,ComponentPad*%
%ADD24R,2.000000X2.000000*%
%TD*%
%TA.AperFunction,ComponentPad*%
%ADD25RoundRect,0.250200X-0.649800X-0.649800X0.649800X-0.649800X0.649800X0.649800X-0.649800X0.649800X0*%
%TD*%
%TA.AperFunction,ComponentPad*%
%ADD26R,2.600000X2.600000*%
%TD*%
%TA.AperFunction,ComponentPad*%
%ADD27C,2.600000*%
%TD*%
%TA.AperFunction,ComponentPad*%
%ADD28C,1.905000*%
%TD*%
%TA.AperFunction,ViaPad*%
%ADD29C,0.762000*%
%TD*%
%TA.AperFunction,Conductor*%
%ADD30C,0.635000*%
%TD*%
%TA.AperFunction,Conductor*%
%ADD31C,1.270000*%
%TD*%
%TA.AperFunction,Conductor*%
%ADD32C,0.304800*%
%TD*%
%TA.AperFunction,Conductor*%
%ADD33C,1.524000*%
%TD*%
G04 APERTURE END LIST*
D10*
%TO.P,C1,1*%
%TO.N,+5V*%
X120015000Y-66040000D03*
D11*
%TO.P,C1,2*%
%TO.N,GND*%
X120015000Y-63540000D03*
%TD*%
%TO.P,C4,1*%
%TO.N,GND*%
X104160000Y-84455000D03*
%TO.P,C4,2*%
%TO.N,Net-(J1-SHIELD)*%
X106660000Y-84455000D03*
%TD*%
D12*
%TO.P,D1,1,K*%
%TO.N,Net-(D1-K)*%
X112395000Y-84455000D03*
D13*
%TO.P,D1,2,A*%
%TO.N,Net-(D1-A)*%
X112395000Y-86995000D03*
%TD*%
D12*
%TO.P,D4,1,K*%
%TO.N,GND*%
X132715000Y-99065000D03*
D13*
%TO.P,D4,2,A*%
%TO.N,Net-(D4-A)*%
X132715000Y-96525000D03*
%TD*%
D14*
%TO.P,FB1,1*%
%TO.N,+5V*%
X116840000Y-69850000D03*
D15*
%TO.P,FB1,2*%
%TO.N,Net-(#FLG0103-pwr)*%
X104140000Y-69850000D03*
%TD*%
D16*
%TO.P,MH1,1*%
%TO.N,N/C*%
X105409999Y-60959999D03*
%TD*%
D11*
%TO.P,R6,1*%
%TO.N,Net-(U1-RB7{slash}TX{slash}CK)*%
X146050000Y-81280000D03*
D17*
%TO.P,R6,2*%
%TO.N,Net-(R6-Pad2)*%
X156210000Y-81280000D03*
%TD*%
D18*
%TO.P,SW4,1,1*%
%TO.N,GND*%
X186055000Y-80645000D03*
X179555000Y-80645000D03*
%TO.P,SW4,2,2*%
%TO.N,Net-(R5-Pad2)*%
X186055000Y-76145000D03*
X179555000Y-76145000D03*
%TD*%
D11*
%TO.P,C2,1*%
%TO.N,+5V*%
X116185000Y-83820000D03*
%TO.P,C2,2*%
%TO.N,GND*%
X116185000Y-86320000D03*
%TD*%
%TO.P,C3,1*%
%TO.N,Net-(U1-Vusb3v3)*%
X126365000Y-71100000D03*
%TO.P,C3,2*%
%TO.N,GND*%
X126365000Y-68600000D03*
%TD*%
D12*
%TO.P,D3,1,K*%
%TO.N,GND*%
X126365000Y-99065000D03*
D13*
%TO.P,D3,2,A*%
%TO.N,Net-(D3-A)*%
X126365000Y-96525000D03*
%TD*%
D18*
%TO.P,SW3,1,1*%
%TO.N,GND*%
X169545000Y-80645000D03*
X163045000Y-80645000D03*
%TO.P,SW3,2,2*%
%TO.N,Net-(R4-Pad2)*%
X169545000Y-76145000D03*
X163045000Y-76145000D03*
%TD*%
D11*
%TO.P,R5,1*%
%TO.N,Net-(U1-RB6{slash}SCL{slash}SCK)*%
X146050000Y-73660000D03*
D17*
%TO.P,R5,2*%
%TO.N,Net-(R5-Pad2)*%
X156210000Y-73660000D03*
%TD*%
D16*
%TO.P,MH4,1*%
%TO.N,N/C*%
X105410000Y-116840000D03*
%TD*%
D18*
%TO.P,SW5,1,1*%
%TO.N,GND*%
X177875000Y-89245000D03*
X171375000Y-89245000D03*
%TO.P,SW5,2,2*%
%TO.N,Net-(R6-Pad2)*%
X177875000Y-84745000D03*
X171375000Y-84745000D03*
%TD*%
D11*
%TO.P,R22,1*%
%TO.N,GND*%
X128905000Y-93980000D03*
D17*
%TO.P,R22,2*%
%TO.N,Net-(U1-RA4{slash}AN3{slash}SOSCO{slash}T1G{slash}OSC2{slash}CLKOUT{slash}CLKR)*%
X128905000Y-83820000D03*
%TD*%
D11*
%TO.P,R2,1*%
%TO.N,Net-(D1-A)*%
X118745000Y-93980000D03*
D17*
%TO.P,R2,2*%
%TO.N,+5V*%
X118745000Y-83820000D03*
%TD*%
D10*
%TO.P,U1,1,VDD*%
%TO.N,+5V*%
X118745000Y-81280000D03*
D17*
%TO.P,U1,2,RA5/SOSCI/T1CKI/OSC1/CLKIN*%
%TO.N,Net-(D1-K)*%
X121285000Y-81280000D03*
%TO.P,U1,3,RA4/AN3/SOSCO/T1G/OSC2/CLKOUT/CLKR*%
%TO.N,Net-(U1-RA4{slash}AN3{slash}SOSCO{slash}T1G{slash}OSC2{slash}CLKOUT{slash}CLKR)*%
X123825000Y-81280000D03*
%TO.P,U1,4,RA3/T1G/~{SS}/~{MCLR}/Vpp*%
%TO.N,/Vpp*%
X126365000Y-81280000D03*
%TO.P,U1,5,PWM1/CWG1A/T0CKI/RC5*%
%TO.N,Net-(U1-PWM1{slash}CWG1A{slash}T0CKI{slash}RC5)*%
X128905000Y-81280000D03*
%TO.P,U1,6,CWG1B/C1OUT/C2OUT/RC4*%
%TO.N,Net-(U1-CWG1B{slash}C1OUT{slash}C2OUT{slash}RC4)*%
X131445000Y-81280000D03*
%TO.P,U1,7,CLKR/C1IN3-/C2IN3-/DACOUT2/AN7/RC3*%
%TO.N,Right Sensor*%
X133985000Y-81280000D03*
%TO.P,U1,8,~{SS}/PWM2/AN8/RC6*%
%TO.N,Net-(U1-~{SS}{slash}PWM2{slash}AN8{slash}RC6)*%
X136525000Y-81280000D03*
%TO.P,U1,9,SDO/AN9/RC7*%
%TO.N,Net-(U1-SDO{slash}AN9{slash}RC7)*%
X139065000Y-81280000D03*
%TO.P,U1,10,RB7/TX/CK*%
%TO.N,Net-(U1-RB7{slash}TX{slash}CK)*%
X141605000Y-81280000D03*
%TO.P,U1,11,RB6/SCL/SCK*%
%TO.N,Net-(U1-RB6{slash}SCL{slash}SCK)*%
X141605000Y-73660000D03*
%TO.P,U1,12,RB5/AN11/RX/DX*%
%TO.N,Net-(U1-RB5{slash}AN11{slash}RX{slash}DX)*%
X139065000Y-73660000D03*
%TO.P,U1,13,RB4/AN10/SDA/SDI*%
%TO.N,Net-(U1-RB4{slash}AN10{slash}SDA{slash}SDI)*%
X136525000Y-73660000D03*
%TO.P,U1,14,C2IN2-/C1IN2-/DACOUT1/AN6/RC2*%
%TO.N,Left Sensor*%
X133985000Y-73660000D03*
%TO.P,U1,15,ICSPCLK/~{CWGFLT}/C2IN-/C1IN-/AN5/RC1*%
%TO.N,Right Sensor +5V*%
X131445000Y-73660000D03*
%TO.P,U1,16,ICSPDAT/C2IN+/C1IN+/Vref+/AN4/RC0*%
%TO.N,Left Sensor +5V*%
X128905000Y-73660000D03*
%TO.P,U1,17,Vusb3v3*%
%TO.N,Net-(U1-Vusb3v3)*%
X126365000Y-73660000D03*
%TO.P,U1,18,RA1/D-/ICSPCLK*%
%TO.N,/D-*%
X123825000Y-73660000D03*
%TO.P,U1,19,RA0/D+/ICSPDAT*%
%TO.N,/D+*%
X121285000Y-73660000D03*
%TO.P,U1,20,VSS*%
%TO.N,GND*%
X118745000Y-73660000D03*
%TD*%
D11*
%TO.P,R13,1*%
%TO.N,Net-(H3-Pin_1)*%
X139065000Y-60960000D03*
D17*
%TO.P,R13,2*%
%TO.N,Net-(U1-RB6{slash}SCL{slash}SCK)*%
X139065000Y-71120000D03*
%TD*%
D11*
%TO.P,R9,1*%
%TO.N,Net-(U1-~{SS}{slash}PWM2{slash}AN8{slash}RC6)*%
X136525000Y-83820000D03*
D17*
%TO.P,R9,2*%
%TO.N,Net-(D4-A)*%
X136525000Y-93980000D03*
%TD*%
D11*
%TO.P,R8,1*%
%TO.N,Net-(U1-PWM1{slash}CWG1A{slash}T0CKI{slash}RC5)*%
X133985000Y-83820000D03*
D17*
%TO.P,R8,2*%
%TO.N,Net-(D3-A)*%
X133985000Y-93980000D03*
%TD*%
D11*
%TO.P,R14,1*%
%TO.N,Net-(H4-Pin_1)*%
X153035000Y-60960000D03*
D17*
%TO.P,R14,2*%
%TO.N,Net-(U1-RB7{slash}TX{slash}CK)*%
X153035000Y-71120000D03*
%TD*%
D11*
%TO.P,R10,1*%
%TO.N,Net-(U1-SDO{slash}AN9{slash}RC7)*%
X139065000Y-83820000D03*
D17*
%TO.P,R10,2*%
%TO.N,Net-(D5-A)*%
X139065000Y-93980000D03*
%TD*%
D11*
%TO.P,R12,1*%
%TO.N,Net-(H2-Pin_1)*%
X136525000Y-60960000D03*
D17*
%TO.P,R12,2*%
%TO.N,Net-(U1-RB5{slash}AN11{slash}RX{slash}DX)*%
X136525000Y-71120000D03*
%TD*%
D10*
%TO.P,C6,1*%
%TO.N,+5V*%
X125095000Y-104140000D03*
D11*
%TO.P,C6,2*%
%TO.N,GND*%
X127595000Y-104140000D03*
%TD*%
D19*
%TO.P,H2,1,Pin_1*%
%TO.N,Net-(H2-Pin_1)*%
X147320000Y-63500000D03*
D20*
%TO.P,H2,2,Pin_2*%
%TO.N,+5V*%
X147320000Y-66040000D03*
%TO.P,H2,3,Pin_3*%
%TO.N,GND*%
X147320000Y-68580000D03*
%TD*%
D19*
%TO.P,H4,1,Pin_1*%
%TO.N,Net-(H4-Pin_1)*%
X142240000Y-68565000D03*
D20*
%TO.P,H4,2,Pin_2*%
%TO.N,+5V*%
X142240000Y-66025000D03*
%TO.P,H4,3,Pin_3*%
%TO.N,GND*%
X142240000Y-63485000D03*
%TD*%
D16*
%TO.P,MH2,1*%
%TO.N,N/C*%
X186690000Y-60960000D03*
%TD*%
D11*
%TO.P,R4,1*%
%TO.N,Net-(U1-RB5{slash}AN11{slash}RX{slash}DX)*%
X146050000Y-76200000D03*
D17*
%TO.P,R4,2*%
%TO.N,Net-(R4-Pad2)*%
X156210000Y-76200000D03*
%TD*%
D19*
%TO.P,H3,1,Pin_1*%
%TO.N,Net-(H3-Pin_1)*%
X144780000Y-63500000D03*
D20*
%TO.P,H3,2,Pin_2*%
%TO.N,+5V*%
X144780000Y-66040000D03*
%TO.P,H3,3,Pin_3*%
%TO.N,GND*%
X144780000Y-68580000D03*
%TD*%
D21*
%TO.P,J1,A1,GND*%
%TO.N,GND*%
X107696000Y-74498200D03*
%TO.P,J1,A4,VBUS*%
%TO.N,Net-(#FLG0103-pwr)*%
X107696000Y-75348200D03*
%TO.P,J1,A5,CC1*%
%TO.N,unconnected-(J1-CC1-PadA5)*%
X107696000Y-76198200D03*
%TO.P,J1,A6,D+*%
%TO.N,/D+*%
X107696000Y-77048200D03*
%TO.P,J1,A7,D-*%
%TO.N,/D-*%
X107696000Y-77898200D03*
%TO.P,J1,A8,SBU1*%
%TO.N,unconnected-(J1-SBU1-PadA8)*%
X107696000Y-78748200D03*
%TO.P,J1,A9,VBUS*%
%TO.N,Net-(#FLG0103-pwr)*%
X107696000Y-79598200D03*
%TO.P,J1,A12,GND*%
%TO.N,GND*%
X107696000Y-80448200D03*
%TO.P,J1,B1,GND*%
X106346000Y-80448200D03*
%TO.P,J1,B4,VBUS*%
%TO.N,Net-(#FLG0103-pwr)*%
X106346000Y-79598200D03*
%TO.P,J1,B5,CC2*%
%TO.N,unconnected-(J1-CC2-PadB5)*%
X106346000Y-78748200D03*
%TO.P,J1,B6,D+*%
%TO.N,/D+*%
X106346000Y-77898200D03*
%TO.P,J1,B7,D-*%
%TO.N,/D-*%
X106346000Y-77048200D03*
%TO.P,J1,B8,SBU2*%
%TO.N,unconnected-(J1-SBU2-PadB8)*%
X106346000Y-76198200D03*
%TO.P,J1,B9,VBUS*%
%TO.N,Net-(#FLG0103-pwr)*%
X106346000Y-75348200D03*
%TO.P,J1,B12,GND*%
%TO.N,GND*%
X106346000Y-74498200D03*
D22*
%TO.P,J1,S1,SHIELD*%
%TO.N,Net-(J1-SHIELD)*%
X106716000Y-73148200D03*
D23*
X103336000Y-73148200D03*
D22*
X106716000Y-81798200D03*
D23*
X103336000Y-81798200D03*
%TD*%
D16*
%TO.P,MH3,1*%
%TO.N,N/C*%
X186690000Y-116840000D03*
%TD*%
D11*
%TO.P,R17,1*%
%TO.N,+5V*%
X155575000Y-60960000D03*
D17*
%TO.P,R17,2*%
%TO.N,Right Sensor*%
X155575000Y-71120000D03*
%TD*%
D11*
%TO.P,R11,1*%
%TO.N,Net-(H1-Pin_1)*%
X133985000Y-60960000D03*
D17*
%TO.P,R11,2*%
%TO.N,Net-(U1-RB4{slash}AN10{slash}SDA{slash}SDI)*%
X133985000Y-71120000D03*
%TD*%
D11*
%TO.P,R1,1*%
%TO.N,Net-(R1-Pad1)*%
X126365000Y-83820000D03*
D17*
%TO.P,R1,2*%
%TO.N,/Vpp*%
X126365000Y-93980000D03*
%TD*%
D12*
%TO.P,D5,1,K*%
%TO.N,GND*%
X139065000Y-99065000D03*
D13*
%TO.P,D5,2,A*%
%TO.N,Net-(D5-A)*%
X139065000Y-96525000D03*
%TD*%
D24*
%TO.P,LS1,1,1*%
%TO.N,Net-(U1-RA4{slash}AN3{slash}SOSCO{slash}T1G{slash}OSC2{slash}CLKOUT{slash}CLKR)*%
X111125000Y-93980000D03*
D18*
%TO.P,LS1,2,2*%
%TO.N,GND*%
X106125000Y-93980000D03*
%TD*%
D25*
%TO.P,U4,1,OUT*%
%TO.N,Net-(U4-OUT)*%
X161925000Y-92075000D03*
D12*
%TO.P,U4,2,GND*%
%TO.N,GND*%
X164465000Y-92075000D03*
%TO.P,U4,3,Vs*%
%TO.N,+5V*%
X167005000Y-92075000D03*
%TD*%
D11*
%TO.P,R7,1*%
%TO.N,Net-(U1-CWG1B{slash}C1OUT{slash}C2OUT{slash}RC4)*%
X131445000Y-83820000D03*
D17*
%TO.P,R7,2*%
%TO.N,Net-(D2-A)*%
X131445000Y-93980000D03*
%TD*%
D13*
%TO.P,H9,1,~{MCLR}/VPP*%
%TO.N,/Vpp*%
X184150000Y-99060000D03*
D12*
%TO.P,H9,2,VDD*%
%TO.N,+5V*%
X184150000Y-96520000D03*
%TO.P,H9,3,VSS*%
%TO.N,GND*%
X184150000Y-93980000D03*
%TO.P,H9,4,PGD/ICSPDAT*%
%TO.N,Left Sensor +5V*%
X184150000Y-91440000D03*
%TO.P,H9,5,PGC/ICSPCLK*%
%TO.N,Right Sensor +5V*%
X184150000Y-88900000D03*
%TO.P,H9,6,PGM/LVP*%
%TO.N,unconnected-(H9-PGM{slash}LVP-Pad6)*%
X184150000Y-86360000D03*
%TD*%
D19*
%TO.P,H1,1,Pin_1*%
%TO.N,Net-(H1-Pin_1)*%
X149860000Y-60960000D03*
D20*
%TO.P,H1,2,Pin_2*%
%TO.N,+5V*%
X149860000Y-63500000D03*
%TO.P,H1,3,Pin_3*%
%TO.N,GND*%
X149860000Y-66040000D03*
%TD*%
D11*
%TO.P,C5,1*%
%TO.N,Net-(CON1-Pin_1)*%
X125095000Y-109220000D03*
%TO.P,C5,2*%
%TO.N,GND*%
X125095000Y-111720000D03*
%TD*%
%TO.P,R3,1*%
%TO.N,Net-(U1-RB4{slash}AN10{slash}SDA{slash}SDI)*%
X146050000Y-78740000D03*
D17*
%TO.P,R3,2*%
%TO.N,Net-(R3-Pad2)*%
X156210000Y-78740000D03*
%TD*%
D12*
%TO.P,D2,1,K*%
%TO.N,GND*%
X120015000Y-99065000D03*
D13*
%TO.P,D2,2,A*%
%TO.N,Net-(D2-A)*%
X120015000Y-96525000D03*
%TD*%
D18*
%TO.P,SW2,1,1*%
%TO.N,GND*%
X171375000Y-67600000D03*
X177875000Y-67600000D03*
%TO.P,SW2,2,2*%
%TO.N,Net-(R3-Pad2)*%
X171375000Y-72100000D03*
X177875000Y-72100000D03*
%TD*%
%TO.P,SW1,1,1*%
%TO.N,GND*%
X114935000Y-74295000D03*
X114935000Y-80795000D03*
%TO.P,SW1,2,2*%
%TO.N,Net-(R1-Pad1)*%
X110435000Y-74295000D03*
X110435000Y-80795000D03*
%TD*%
D19*
%TO.P,BT1,1,+*%
%TO.N,+5V*%
X114935000Y-66040000D03*
D20*
%TO.P,BT1,2,-*%
%TO.N,GND*%
X114935000Y-63500000D03*
%TD*%
D11*
%TO.P,R25,1*%
%TO.N,unconnected-(J1-CC2-PadB5)*%
X121285000Y-83820000D03*
D17*
%TO.P,R25,2*%
%TO.N,GND*%
X121285000Y-93980000D03*
%TD*%
D19*
%TO.P,H8,1,Pin_1*%
%TO.N,Right Sensor*%
X172100000Y-52578000D03*
D20*
%TO.P,H8,2,Pin_2*%
%TO.N,Right Sensor +5V*%
X174640000Y-52578000D03*
%TO.P,H8,3,Pin_3*%
%TO.N,GND*%
X177180000Y-52578000D03*
%TD*%
D11*
%TO.P,R15,1*%
%TO.N,Left Sensor +5V*%
X128905000Y-71120000D03*
D17*
%TO.P,R15,2*%
%TO.N,Net-(D6-A)*%
X128905000Y-60960000D03*
%TD*%
D26*
%TO.P,CON1,1,Pin_1*%
%TO.N,Net-(CON1-Pin_1)*%
X133350000Y-115570008D03*
D27*
%TO.P,CON1,2,Pin_2*%
%TO.N,GND*%
X138430000Y-115570008D03*
%TO.P,CON1,3,Pin_3*%
%TO.N,Net-(CON1-Pin_3)*%
X143510000Y-115570008D03*
%TO.P,CON1,4,Pin_4*%
%TO.N,Net-(CON1-Pin_4)*%
X148590000Y-115570008D03*
%TO.P,CON1,5,Pin_5*%
%TO.N,Net-(CON1-Pin_5)*%
X153670000Y-115570008D03*
%TO.P,CON1,6,Pin_6*%
%TO.N,Net-(CON1-Pin_6)*%
X158750000Y-115570008D03*
%TD*%
D10*
%TO.P,C8,1*%
%TO.N,Net-(CON1-Pin_1)*%
X140970000Y-107250121D03*
D11*
%TO.P,C8,2*%
%TO.N,GND*%
X140970000Y-104750121D03*
%TD*%
D16*
%TO.P,MH6,1*%
%TO.N,N/C*%
X161925000Y-50800000D03*
%TD*%
D11*
%TO.P,R18,1*%
%TO.N,Left Sensor +5V*%
X124968000Y-46990000D03*
D17*
%TO.P,R18,2*%
%TO.N,Net-(D7-A)*%
X114808000Y-46990000D03*
%TD*%
D11*
%TO.P,C7,1*%
%TO.N,+5V*%
X157480000Y-89535000D03*
%TO.P,C7,2*%
%TO.N,GND*%
X157480000Y-92035000D03*
%TD*%
D10*
%TO.P,U2,1,1\u002C2EN*%
%TO.N,Net-(U2-1\u002C2EN)*%
X147320000Y-89535008D03*
D17*
%TO.P,U2,2,1A*%
%TO.N,Net-(U1-CWG1B{slash}C1OUT{slash}C2OUT{slash}RC4)*%
X147320000Y-92075008D03*
%TO.P,U2,3,1Y*%
%TO.N,Net-(CON1-Pin_3)*%
X147320000Y-94615008D03*
%TO.P,U2,4,GND*%
%TO.N,GND*%
X147320000Y-97155008D03*
%TO.P,U2,5,GND*%
X147320000Y-99695008D03*
%TO.P,U2,6,2Y*%
%TO.N,Net-(CON1-Pin_4)*%
X147320000Y-102235008D03*
%TO.P,U2,7,2A*%
%TO.N,Net-(U1-PWM1{slash}CWG1A{slash}T0CKI{slash}RC5)*%
X147320000Y-104775008D03*
%TO.P,U2,8,VCC2*%
%TO.N,Net-(CON1-Pin_1)*%
X147320000Y-107315008D03*
%TO.P,U2,9,3\u002C4EN*%
%TO.N,Net-(U2-1\u002C2EN)*%
X154940000Y-107315008D03*
%TO.P,U2,10,3A*%
%TO.N,Net-(U1-~{SS}{slash}PWM2{slash}AN8{slash}RC6)*%
X154940000Y-104775008D03*
%TO.P,U2,11,3Y*%
%TO.N,Net-(CON1-Pin_5)*%
X154940000Y-102235008D03*
%TO.P,U2,12,GND*%
%TO.N,GND*%
X154940000Y-99695008D03*
%TO.P,U2,13,GND*%
X154940000Y-97155008D03*
%TO.P,U2,14,4Y*%
%TO.N,Net-(CON1-Pin_6)*%
X154940000Y-94615008D03*
%TO.P,U2,15,4A*%
%TO.N,Net-(U1-SDO{slash}AN9{slash}RC7)*%
X154940000Y-92075008D03*
%TO.P,U2,16,VCC1*%
%TO.N,+5V*%
X154940000Y-89535008D03*
%TD*%
D11*
%TO.P,R20,1*%
%TO.N,Right Sensor +5V*%
X167132000Y-46990000D03*
D17*
%TO.P,R20,2*%
%TO.N,Net-(D8-A)*%
X177292000Y-46990000D03*
%TD*%
D19*
%TO.P,H5,1,Pin_1*%
%TO.N,Left Sensor*%
X120015000Y-59055000D03*
D20*
%TO.P,H5,2,Pin_2*%
%TO.N,Left Sensor +5V*%
X117475000Y-59055000D03*
%TO.P,H5,3,Pin_3*%
%TO.N,GND*%
X114935000Y-59055000D03*
%TD*%
D11*
%TO.P,R16,1*%
%TO.N,+5V*%
X131445000Y-60960000D03*
D17*
%TO.P,R16,2*%
%TO.N,Left Sensor*%
X131445000Y-71120000D03*
%TD*%
D11*
%TO.P,R23,1*%
%TO.N,+5V*%
X156210000Y-86360000D03*
D17*
%TO.P,R23,2*%
%TO.N,Net-(U2-1\u002C2EN)*%
X146050000Y-86360000D03*
%TD*%
D11*
%TO.P,R21,1*%
%TO.N,Right Sensor +5V*%
X167132000Y-49530000D03*
D17*
%TO.P,R21,2*%
%TO.N,Right Sensor*%
X177292000Y-49530000D03*
%TD*%
D11*
%TO.P,R19,1*%
%TO.N,Left Sensor +5V*%
X124968000Y-49530000D03*
D17*
%TO.P,R19,2*%
%TO.N,Left Sensor*%
X114808000Y-49530000D03*
%TD*%
D19*
%TO.P,H6,1,Pin_1*%
%TO.N,Left Sensor*%
X120015000Y-52705000D03*
D20*
%TO.P,H6,2,Pin_2*%
%TO.N,Left Sensor +5V*%
X117475000Y-52705000D03*
%TO.P,H6,3,Pin_3*%
%TO.N,GND*%
X114935000Y-52705000D03*
%TD*%
D16*
%TO.P,MH5,1*%
%TO.N,N/C*%
X130175000Y-50800000D03*
%TD*%
D28*
%TO.P,U3,1,VI*%
%TO.N,Net-(CON1-Pin_1)*%
X121920000Y-109220000D03*
%TO.P,U3,2,GND*%
%TO.N,GND*%
X121920000Y-106680000D03*
%TO.P,U3,3,VO*%
%TO.N,+5V*%
X121920000Y-104140000D03*
%TD*%
D11*
%TO.P,C9,1*%
%TO.N,+5V*%
X167005000Y-94615000D03*
%TO.P,C9,2*%
%TO.N,GND*%
X164505000Y-94615000D03*
%TD*%
%TO.P,R24,1*%
%TO.N,Net-(U4-OUT)*%
X156210000Y-83820000D03*
D17*
%TO.P,R24,2*%
%TO.N,Net-(U1-RB7{slash}TX{slash}CK)*%
X146050000Y-83820000D03*
%TD*%
D19*
%TO.P,H7,1,Pin_1*%
%TO.N,Right Sensor*%
X172100000Y-59055000D03*
D20*
%TO.P,H7,2,Pin_2*%
%TO.N,Right Sensor +5V*%
X174640000Y-59055000D03*
%TO.P,H7,3,Pin_3*%
%TO.N,GND*%
X177180000Y-59055000D03*
%TD*%
D11*
%TO.P,R26,1*%
%TO.N,unconnected-(J1-CC1-PadA5)*%
X123825000Y-83820000D03*
D17*
%TO.P,R26,2*%
%TO.N,GND*%
X123825000Y-93980000D03*
%TD*%
D12*
%TO.P,Q1,1,C*%
%TO.N,Left Sensor*%
X139700000Y-49535000D03*
D13*
%TO.P,Q1,2,E*%
%TO.N,GND*%
X139700000Y-46995000D03*
%TD*%
D12*
%TO.P,Q2,1,C*%
%TO.N,Right Sensor*%
X152400000Y-49535000D03*
D13*
%TO.P,Q2,2,E*%
%TO.N,GND*%
X152400000Y-46995000D03*
%TD*%
D12*
%TO.P,D6,1,K*%
%TO.N,GND*%
X146050000Y-49530000D03*
D13*
%TO.P,D6,2,A*%
%TO.N,Net-(D6-A)*%
X146050000Y-46990000D03*
%TD*%
D12*
%TO.P,Q3,1,C*%
%TO.N,Left Sensor*%
X111760000Y-49530000D03*
D13*
%TO.P,Q3,2,E*%
%TO.N,GND*%
X111760000Y-46990000D03*
%TD*%
D12*
%TO.P,D7,1,K*%
%TO.N,GND*%
X105410000Y-49535000D03*
D13*
%TO.P,D7,2,A*%
%TO.N,Net-(D7-A)*%
X105410000Y-46995000D03*
%TD*%
D12*
%TO.P,D8,1,K*%
%TO.N,GND*%
X186690000Y-49535000D03*
D13*
%TO.P,D8,2,A*%
%TO.N,Net-(D8-A)*%
X186690000Y-46995000D03*
%TD*%
D12*
%TO.P,Q4,1,C*%
%TO.N,Right Sensor*%
X180340000Y-49535000D03*
D13*
%TO.P,Q4,2,E*%
%TO.N,GND*%
X180340000Y-46995000D03*
%TD*%
D29*
%TO.N,+5V*%
X116205000Y-90170000D03*
X116205000Y-95885000D03*
%TO.N,/Vpp*%
X127635000Y-91440000D03*
X141605000Y-86995000D03*
X127635000Y-86360000D03*
X141605000Y-91440000D03*
%TO.N,unconnected-(J1-CC2-PadB5)*%
X104140000Y-80010000D03*
%TO.N,Left Sensor*%
X127635000Y-64135000D03*
%TO.N,Right Sensor*%
X155575000Y-67945000D03*
%TO.N,Right Sensor +5V*%
X158115000Y-70485000D03*
X158115000Y-67945000D03*
%TD*%
D30*
%TO.N,GND*%
X107696000Y-80448200D02*
X106346000Y-80448200D01*
X107696000Y-74498200D02*
X106346000Y-74498200D01*
D31*
%TO.N,+5V*%
X116840000Y-66040000D02*
X120015000Y-66040000D01*
X131460000Y-66025000D02*
X142240000Y-66025000D01*
X118745000Y-87630000D02*
X116205000Y-90170000D01*
D32*
X131445000Y-60960000D02*
X131445000Y-66040000D01*
X149860000Y-63500000D02*
X151130000Y-63500000D01*
X156210000Y-89535000D02*
X156209992Y-89535008D01*
D31*
X131445000Y-66040000D02*
X131460000Y-66025000D01*
X118745000Y-83820000D02*
X118745000Y-87630000D01*
D32*
X156210000Y-86360000D02*
X156210000Y-89535000D01*
X151765000Y-60325000D02*
X152400000Y-59690000D01*
D31*
X116840000Y-69850000D02*
X116840000Y-66040000D01*
D32*
X151130000Y-63500000D02*
X151765000Y-62865000D01*
D31*
X116185000Y-83820000D02*
X118745000Y-83820000D01*
D32*
X152400000Y-59690000D02*
X154305000Y-59690000D01*
D31*
X121920000Y-104140000D02*
X125095000Y-104140000D01*
D32*
X151765000Y-62865000D02*
X151765000Y-60325000D01*
D31*
X144765000Y-66025000D02*
X144780000Y-66040000D01*
X121920000Y-104140000D02*
X119380000Y-104140000D01*
X118745000Y-81280000D02*
X118745000Y-83820000D01*
X116205000Y-100965000D02*
X119380000Y-104140000D01*
X119380000Y-104140000D02*
X119380000Y-116840000D01*
X164465000Y-119380000D02*
X167005000Y-116840000D01*
X116205000Y-95885000D02*
X116205000Y-100965000D01*
D32*
X154305000Y-59690000D02*
X155575000Y-60960000D01*
D31*
X167005000Y-116840000D02*
X167005000Y-94615000D01*
X121920000Y-119380000D02*
X164465000Y-119380000D01*
X166370000Y-89535000D02*
X167005000Y-90170000D01*
X157480000Y-89535000D02*
X166370000Y-89535000D01*
X167005000Y-90170000D02*
X167005000Y-92075000D01*
X114935000Y-66040000D02*
X116840000Y-66040000D01*
X144780000Y-66040000D02*
X147320000Y-66040000D01*
D32*
X147320000Y-66040000D02*
X149860000Y-63500000D01*
D31*
X120015000Y-66040000D02*
X131445000Y-66040000D01*
X154940000Y-89535008D02*
X156209992Y-89535008D01*
D32*
X157479992Y-89535008D02*
X157480000Y-89535000D01*
D31*
X119380000Y-116840000D02*
X121920000Y-119380000D01*
X167005000Y-92075000D02*
X167005000Y-94615000D01*
X142240000Y-66025000D02*
X144765000Y-66025000D01*
X167005000Y-96520000D02*
X184150000Y-96520000D01*
X156209992Y-89535008D02*
X157479992Y-89535008D01*
D32*
%TO.N,Net-(U1-Vusb3v3)*%
X126365000Y-71100000D02*
X126365000Y-73660000D01*
D33*
%TO.N,Net-(CON1-Pin_1)*%
X135255000Y-107315000D02*
X140905121Y-107315000D01*
X133350000Y-109220000D02*
X135255000Y-107315000D01*
X125095000Y-109220000D02*
X121920000Y-109220000D01*
X133350000Y-109220000D02*
X125095000Y-109220000D01*
X140905121Y-107315000D02*
X140970000Y-107250121D01*
X133350000Y-115570008D02*
X133350000Y-109220000D01*
%TO.N,Net-(CON1-Pin_3)*%
X143510000Y-95885008D02*
X143510000Y-114935008D01*
X144780000Y-94615008D02*
X143510000Y-95885008D01*
X147320000Y-94615008D02*
X144780000Y-94615008D01*
%TO.N,Net-(CON1-Pin_4)*%
X147320000Y-102235008D02*
X148590000Y-102235008D01*
X149860000Y-103505008D02*
X149860000Y-109855008D01*
X148590000Y-102235008D02*
X149860000Y-103505008D01*
X149860000Y-110490008D02*
X148590000Y-111760008D01*
X148590000Y-111760008D02*
X148590000Y-115570008D01*
%TO.N,Net-(CON1-Pin_5)*%
X152400000Y-110490008D02*
X153670000Y-111760008D01*
X152400000Y-103505008D02*
X152400000Y-109855008D01*
X154940000Y-102235008D02*
X153670000Y-102235008D01*
X153670000Y-111760008D02*
X153670000Y-115570008D01*
X153670000Y-102235008D02*
X152400000Y-103505008D01*
%TO.N,Net-(CON1-Pin_6)*%
X154940000Y-94615008D02*
X157480000Y-94615008D01*
X157480000Y-94615008D02*
X158750000Y-95885008D01*
X158750000Y-95885008D02*
X158750000Y-114935008D01*
D32*
%TO.N,Net-(D1-K)*%
X122555000Y-87621316D02*
X122555000Y-83185000D01*
X115570000Y-92075000D02*
X118101316Y-92075000D01*
X121285000Y-81915000D02*
X121285000Y-81280000D01*
X114300000Y-84455000D02*
X114935000Y-85090000D01*
X112395000Y-84455000D02*
X114300000Y-84455000D01*
X114935000Y-85090000D02*
X114935000Y-91440000D01*
X122555000Y-83185000D02*
X121285000Y-81915000D01*
X114935000Y-91440000D02*
X115570000Y-92075000D01*
X118101316Y-92075000D02*
X122555000Y-87621316D01*
%TO.N,Net-(D1-A)*%
X114300000Y-93345000D02*
X118110000Y-93345000D01*
X112395000Y-86995000D02*
X112395000Y-91440000D01*
X112395000Y-91440000D02*
X114300000Y-93345000D01*
X118110000Y-93345000D02*
X118745000Y-93980000D01*
%TO.N,Net-(D2-A)*%
X130175000Y-95250000D02*
X125095000Y-95250000D01*
X125095000Y-95250000D02*
X123820000Y-96525000D01*
X131445000Y-93980000D02*
X130175000Y-95250000D01*
X123820000Y-96525000D02*
X120015000Y-96525000D01*
%TO.N,Net-(D3-A)*%
X133985000Y-93980000D02*
X132715000Y-95250000D01*
X130170000Y-96525000D02*
X126365000Y-96525000D01*
X132715000Y-95250000D02*
X131445000Y-95250000D01*
X131445000Y-95250000D02*
X130170000Y-96525000D01*
%TO.N,/Vpp*%
X127635000Y-91440000D02*
X126365000Y-92710000D01*
X186055000Y-95250000D02*
X186690000Y-95885000D01*
X163830000Y-87630000D02*
X167640000Y-87630000D01*
X168910000Y-88900000D02*
X168910000Y-92710000D01*
X168910000Y-92710000D02*
X171450000Y-95250000D01*
X171450000Y-95250000D02*
X186055000Y-95250000D01*
X149225000Y-87630000D02*
X154305000Y-82550000D01*
X126365000Y-81926578D02*
X127635000Y-83196578D01*
X144145000Y-86995000D02*
X144780000Y-87630000D01*
X126365000Y-81280000D02*
X126365000Y-81926578D01*
X158750000Y-82550000D02*
X163830000Y-87630000D01*
X167640000Y-87630000D02*
X168910000Y-88900000D01*
X186055000Y-99060000D02*
X184150000Y-99060000D01*
X186690000Y-98425000D02*
X186055000Y-99060000D01*
X127635000Y-83196578D02*
X127635000Y-86360000D01*
X141605000Y-86995000D02*
X144145000Y-86995000D01*
X154305000Y-82550000D02*
X158750000Y-82550000D01*
X186690000Y-95885000D02*
X186690000Y-98425000D01*
X141605000Y-91440000D02*
X127635000Y-91440000D01*
X144780000Y-87630000D02*
X149225000Y-87630000D01*
X126365000Y-92710000D02*
X126365000Y-93980000D01*
%TO.N,Net-(D4-A)*%
X136525000Y-95250000D02*
X135250000Y-96525000D01*
X136525000Y-93980000D02*
X136525000Y-95250000D01*
X135250000Y-96525000D02*
X132715000Y-96525000D01*
%TO.N,Net-(D5-A)*%
X139065000Y-93980000D02*
X139065000Y-97155000D01*
%TO.N,Net-(D6-A)*%
X130810000Y-59055000D02*
X140970000Y-59055000D01*
X128905000Y-60960000D02*
X130810000Y-59055000D01*
X141605000Y-52705000D02*
X143510000Y-50800000D01*
X144780000Y-46990000D02*
X146050000Y-46990000D01*
X141605000Y-58420000D02*
X141605000Y-52705000D01*
X143510000Y-48260000D02*
X144780000Y-46990000D01*
X140970000Y-59055000D02*
X141605000Y-58420000D01*
X143510000Y-50800000D02*
X143510000Y-48260000D01*
%TO.N,Net-(D7-A)*%
X113538000Y-48260000D02*
X114808000Y-46990000D01*
X105410000Y-46995000D02*
X105415000Y-46995000D01*
X106680000Y-48260000D02*
X113538000Y-48260000D01*
X105415000Y-46995000D02*
X106680000Y-48260000D01*
%TO.N,Net-(D8-A)*%
X185349800Y-48330200D02*
X178632200Y-48330200D01*
X186690000Y-46995000D02*
X186685000Y-46995000D01*
X186685000Y-46995000D02*
X185349800Y-48330200D01*
X178632200Y-48330200D02*
X177292000Y-46990000D01*
%TO.N,Net-(R1-Pad1)*%
X118739211Y-92710000D02*
X126359211Y-85090000D01*
X110435000Y-80795000D02*
X110435000Y-85035000D01*
X110435000Y-85035000D02*
X111125000Y-85725000D01*
X113665000Y-85725000D02*
X114300000Y-86360000D01*
X114300000Y-92075000D02*
X114935000Y-92710000D01*
X111125000Y-85725000D02*
X113665000Y-85725000D01*
X126359211Y-85090000D02*
X126365000Y-85090000D01*
X114935000Y-92710000D02*
X118739211Y-92710000D01*
X126365000Y-85090000D02*
X126365000Y-83820000D01*
X114300000Y-86360000D02*
X114300000Y-92075000D01*
%TO.N,Net-(R3-Pad2)*%
X160655000Y-78105000D02*
X170815000Y-78105000D01*
X156210000Y-78740000D02*
X160020000Y-78740000D01*
X170815000Y-78105000D02*
X171375000Y-77545000D01*
X160020000Y-78740000D02*
X160655000Y-78105000D01*
X171375000Y-77545000D02*
X171375000Y-72100000D01*
X156845000Y-78740000D02*
X156210000Y-78105000D01*
X177875000Y-72100000D02*
X171375000Y-72100000D01*
D30*
%TO.N,Net-(#FLG0103-pwr)*%
X106346000Y-79598200D02*
X107696000Y-79598200D01*
X104913800Y-75348200D02*
X104902000Y-75336400D01*
X106346000Y-75348200D02*
X104913800Y-75348200D01*
X104902000Y-75336400D02*
X104902000Y-79197200D01*
X105303000Y-79598200D02*
X106346000Y-79598200D01*
X106346000Y-75348200D02*
X107696000Y-75348200D01*
X104902000Y-79197200D02*
X105303000Y-79598200D01*
X104902000Y-70612000D02*
X104902000Y-75336400D01*
X104140000Y-69850000D02*
X104902000Y-70612000D01*
D32*
%TO.N,Net-(R4-Pad2)*%
X156265000Y-76145000D02*
X156210000Y-76200000D01*
X163045000Y-76145000D02*
X156265000Y-76145000D01*
X169545000Y-76145000D02*
X163045000Y-76145000D01*
%TO.N,Net-(H1-Pin_1)*%
X148590000Y-59690000D02*
X149860000Y-60960000D01*
X133985000Y-60960000D02*
X135255000Y-59690000D01*
X135255000Y-59690000D02*
X148590000Y-59690000D01*
%TO.N,Net-(R5-Pad2)*%
X175315000Y-76145000D02*
X172720000Y-78740000D01*
X154774800Y-79844800D02*
X154305000Y-79375000D01*
X179555000Y-76145000D02*
X175315000Y-76145000D01*
X172720000Y-78740000D02*
X161290000Y-78740000D01*
X186055000Y-76145000D02*
X179555000Y-76145000D01*
X154940000Y-73660000D02*
X156210000Y-73660000D01*
X154305000Y-74295000D02*
X154940000Y-73660000D01*
X160185200Y-79844800D02*
X154774800Y-79844800D01*
X154305000Y-79375000D02*
X154305000Y-74295000D01*
X161290000Y-78740000D02*
X160185200Y-79844800D01*
%TO.N,Net-(H2-Pin_1)*%
X139065000Y-64770000D02*
X136525000Y-62230000D01*
X146050000Y-64770000D02*
X139065000Y-64770000D01*
X136525000Y-62230000D02*
X136525000Y-60960000D01*
X147320000Y-63500000D02*
X146050000Y-64770000D01*
%TO.N,Net-(R6-Pad2)*%
X163485000Y-84745000D02*
X160020000Y-81280000D01*
X171375000Y-84745000D02*
X163485000Y-84745000D01*
X177875000Y-84745000D02*
X171375000Y-84745000D01*
X160020000Y-81280000D02*
X156210000Y-81280000D01*
%TO.N,Net-(H3-Pin_1)*%
X139065000Y-60960000D02*
X144145000Y-60960000D01*
X144145000Y-60960000D02*
X144780000Y-61595000D01*
X144780000Y-61595000D02*
X144780000Y-63500000D01*
%TO.N,Net-(H4-Pin_1)*%
X143495000Y-67310000D02*
X151765000Y-67310000D01*
X151765000Y-67310000D02*
X153035000Y-66040000D01*
X142240000Y-68565000D02*
X143495000Y-67310000D01*
X153035000Y-66040000D02*
X153035000Y-60960000D01*
%TO.N,/D+*%
X121539000Y-73660000D02*
X121285000Y-73660000D01*
X122577200Y-77193800D02*
X123190000Y-76581000D01*
X107841600Y-77193800D02*
X122577200Y-77193800D01*
X123190000Y-76581000D02*
X123190000Y-75311000D01*
X107457453Y-77048200D02*
X107696000Y-77048200D01*
X123190000Y-75311000D02*
X121539000Y-73660000D01*
X106607453Y-77898200D02*
X107457453Y-77048200D01*
X106346000Y-77898200D02*
X106607453Y-77898200D01*
X107696000Y-77048200D02*
X107841600Y-77193800D01*
%TO.N,/D-*%
X123825000Y-76835000D02*
X123825000Y-73660000D01*
X107841600Y-77752600D02*
X122907400Y-77752600D01*
X122907400Y-77752600D02*
X123825000Y-76835000D01*
X107696000Y-77898200D02*
X107841600Y-77752600D01*
%TO.N,unconnected-(J1-CC1-PadA5)*%
X107696000Y-76198200D02*
X119381800Y-76198200D01*
X119381800Y-76198200D02*
X120015000Y-75565000D01*
X120650000Y-71755000D02*
X124460000Y-71755000D01*
X125095000Y-72390000D02*
X125095000Y-77470000D01*
X120015000Y-75565000D02*
X120015000Y-72390000D01*
X122555000Y-81915000D02*
X123825000Y-83185000D01*
X123825000Y-83185000D02*
X123825000Y-83820000D01*
X124460000Y-71755000D02*
X125095000Y-72390000D01*
X120015000Y-72390000D02*
X120650000Y-71755000D01*
X125095000Y-77470000D02*
X122555000Y-80010000D01*
X122555000Y-80010000D02*
X122555000Y-81915000D01*
%TO.N,unconnected-(J1-CC2-PadB5)*%
X120015000Y-79375000D02*
X119380000Y-78740000D01*
X108839000Y-82550000D02*
X108204000Y-83185000D01*
X108204000Y-83185000D02*
X105410000Y-83185000D01*
X121285000Y-83820000D02*
X120015000Y-82550000D01*
X105410000Y-83185000D02*
X104775000Y-82550000D01*
X109474000Y-78740000D02*
X108839000Y-79375000D01*
X108839000Y-79375000D02*
X108839000Y-82550000D01*
X104775000Y-80645000D02*
X104140000Y-80010000D01*
X119380000Y-78740000D02*
X109474000Y-78740000D01*
X120015000Y-82550000D02*
X120015000Y-79375000D01*
X104775000Y-82550000D02*
X104775000Y-80645000D01*
%TO.N,Net-(U1-RA4{slash}AN3{slash}SOSCO{slash}T1G{slash}OSC2{slash}CLKOUT{slash}CLKR)*%
X120650000Y-92075000D02*
X123825000Y-92075000D01*
X123825000Y-92075000D02*
X128905000Y-86995000D01*
X119380000Y-95250000D02*
X120015000Y-94615000D01*
X120015000Y-92710000D02*
X120650000Y-92075000D01*
X124460000Y-80010000D02*
X126657424Y-80010000D01*
X128905000Y-83185000D02*
X128905000Y-83820000D01*
X111125000Y-93980000D02*
X116840000Y-93980000D01*
X127635000Y-80987576D02*
X127635000Y-81915000D01*
X116840000Y-93980000D02*
X118110000Y-95250000D01*
X127635000Y-81915000D02*
X128905000Y-83185000D01*
X118110000Y-95250000D02*
X119380000Y-95250000D01*
X126657424Y-80010000D02*
X127635000Y-80987576D01*
X123825000Y-81280000D02*
X123825000Y-80645000D01*
X123825000Y-80645000D02*
X124460000Y-80010000D01*
X120015000Y-94615000D02*
X120015000Y-92710000D01*
X128905000Y-86995000D02*
X128905000Y-83820000D01*
%TO.N,Net-(U1-RB4{slash}AN10{slash}SDA{slash}SDI)*%
X137795000Y-78740000D02*
X146050000Y-78740000D01*
X136525000Y-77470000D02*
X137795000Y-78740000D01*
X136525000Y-73660000D02*
X136525000Y-77470000D01*
X133985000Y-71120000D02*
X136525000Y-73660000D01*
%TO.N,Net-(U1-RB5{slash}AN11{slash}RX{slash}DX)*%
X140335000Y-76200000D02*
X146050000Y-76200000D01*
X139065000Y-73660000D02*
X139065000Y-74930000D01*
X139065000Y-74930000D02*
X140335000Y-76200000D01*
X136525000Y-71120000D02*
X139065000Y-73660000D01*
%TO.N,Net-(U1-RB6{slash}SCL{slash}SCK)*%
X139065000Y-71120000D02*
X141605000Y-73660000D01*
X141605000Y-73660000D02*
X146050000Y-73660000D01*
%TO.N,Net-(U1-RB7{slash}TX{slash}CK)*%
X151765000Y-80645000D02*
X151765000Y-72390000D01*
X151765000Y-72390000D02*
X153035000Y-71120000D01*
X151130000Y-81280000D02*
X151765000Y-80645000D01*
X146050000Y-81280000D02*
X146050000Y-83820000D01*
X146050000Y-81280000D02*
X151130000Y-81280000D01*
X141605000Y-81280000D02*
X146050000Y-81280000D01*
%TO.N,Net-(U1-CWG1B{slash}C1OUT{slash}C2OUT{slash}RC4)*%
X131445000Y-88900000D02*
X132080000Y-89535000D01*
X131445000Y-83820000D02*
X131445000Y-88900000D01*
X132080000Y-89535000D02*
X143510000Y-89535000D01*
X146050008Y-92075008D02*
X147320000Y-92075008D01*
X143510000Y-89535000D02*
X146050008Y-92075008D01*
X131445000Y-80645000D02*
X131445000Y-83820000D01*
%TO.N,Net-(U1-PWM1{slash}CWG1A{slash}T0CKI{slash}RC5)*%
X146050008Y-104775008D02*
X147320000Y-104775008D01*
X146050000Y-93345000D02*
X148590000Y-93345000D01*
X132715000Y-80645000D02*
X132715000Y-82550000D01*
X128905000Y-81280000D02*
X128905000Y-81915000D01*
X131445000Y-90170000D02*
X142875000Y-90170000D01*
X142875000Y-90170000D02*
X146050000Y-93345000D01*
X145415000Y-96520000D02*
X145415000Y-104140000D01*
X132080000Y-80010000D02*
X132715000Y-80645000D01*
X129540000Y-80010000D02*
X132080000Y-80010000D01*
X149225000Y-95250000D02*
X148590000Y-95885000D01*
X130175000Y-83185000D02*
X130175000Y-88900000D01*
X128905000Y-81915000D02*
X130175000Y-83185000D01*
X145415000Y-104140000D02*
X146050008Y-104775008D01*
X128905000Y-81280000D02*
X128905000Y-80645000D01*
X128905000Y-80645000D02*
X129540000Y-80010000D01*
X148590000Y-93345000D02*
X149225000Y-93980000D01*
X148590000Y-95885000D02*
X146050000Y-95885000D01*
X149225000Y-93980000D02*
X149225000Y-95250000D01*
X132715000Y-82550000D02*
X133985000Y-83820000D01*
X130175000Y-88900000D02*
X131445000Y-90170000D01*
X146050000Y-95885000D02*
X145415000Y-96520000D01*
%TO.N,Net-(U1-~{SS}{slash}PWM2{slash}AN8{slash}RC6)*%
X156210000Y-95885000D02*
X152400000Y-95885000D01*
X136525000Y-80645000D02*
X136525000Y-83820000D01*
X144145000Y-88900000D02*
X137160000Y-88900000D01*
X149225000Y-90805000D02*
X146050000Y-90805000D01*
X137160000Y-88900000D02*
X136525000Y-88265000D01*
X149860000Y-93345000D02*
X149860000Y-91440000D01*
X156845000Y-96520000D02*
X156210000Y-95885000D01*
X156209992Y-104775008D02*
X156845000Y-104140000D01*
X156845000Y-104140000D02*
X156845000Y-96520000D01*
X136525000Y-88265000D02*
X136525000Y-83820000D01*
X149860000Y-91440000D02*
X149225000Y-90805000D01*
X154940000Y-104775008D02*
X156209992Y-104775008D01*
X146050000Y-90805000D02*
X144145000Y-88900000D01*
X152400000Y-95885000D02*
X149860000Y-93345000D01*
%TO.N,Net-(U1-SDO{slash}AN9{slash}RC7)*%
X153035008Y-92075008D02*
X154940000Y-92075008D01*
X151765000Y-88265000D02*
X152400000Y-88900000D01*
X152400000Y-91440000D02*
X153035008Y-92075008D01*
X139065000Y-86995000D02*
X140335000Y-88265000D01*
X139065000Y-83820000D02*
X139065000Y-86995000D01*
X139065000Y-80645000D02*
X139065000Y-83820000D01*
X140335000Y-88265000D02*
X151765000Y-88265000D01*
X152400000Y-88900000D02*
X152400000Y-91440000D01*
%TO.N,Net-(U2-1\u002C2EN)*%
X160020000Y-118110000D02*
X161290000Y-116840000D01*
X156210000Y-108585008D02*
X156210000Y-116840000D01*
X160020000Y-93345000D02*
X151765000Y-93345000D01*
X157480000Y-118110000D02*
X160020000Y-118110000D01*
X150495008Y-89535008D02*
X147320000Y-89535008D01*
X161290000Y-94615000D02*
X160020000Y-93345000D01*
X151130000Y-90170000D02*
X150495008Y-89535008D01*
X161290000Y-116840000D02*
X161290000Y-94615000D01*
X156210000Y-116840000D02*
X157480000Y-118110000D01*
X151765000Y-93345000D02*
X151130000Y-92710000D01*
X151130000Y-92710000D02*
X151130000Y-90170000D01*
X154940000Y-107315008D02*
X156210000Y-108585008D01*
%TO.N,Left Sensor*%
X120015000Y-50800000D02*
X120015000Y-52705000D01*
X131445000Y-71120000D02*
X133985000Y-73660000D01*
X129540000Y-59055000D02*
X120015000Y-59055000D01*
X118745000Y-49530000D02*
X120015000Y-50800000D01*
X111760000Y-49530000D02*
X114808000Y-49530000D01*
X140335000Y-58420000D02*
X130175000Y-58420000D01*
X114808000Y-49530000D02*
X118745000Y-49530000D01*
X127000000Y-63500000D02*
X127000000Y-59055000D01*
X139700000Y-51435000D02*
X140970000Y-52705000D01*
X127635000Y-64135000D02*
X127000000Y-63500000D01*
X140970000Y-57785000D02*
X140335000Y-58420000D01*
X139700000Y-49535000D02*
X139700000Y-51435000D01*
X130175000Y-58420000D02*
X129540000Y-59055000D01*
X140970000Y-52705000D02*
X140970000Y-57785000D01*
%TO.N,Right Sensor*%
X180340000Y-49535000D02*
X177297000Y-49535000D01*
X151130000Y-57785000D02*
X152400000Y-59055000D01*
X158115000Y-59055000D02*
X172100000Y-59055000D01*
X139700000Y-80010000D02*
X140335000Y-80645000D01*
X152400000Y-52070000D02*
X151130000Y-53340000D01*
X177297000Y-49535000D02*
X177292000Y-49530000D01*
X153035000Y-73660000D02*
X155575000Y-71120000D01*
X140335000Y-82550000D02*
X142875000Y-85090000D01*
X133985000Y-80645000D02*
X134620000Y-80010000D01*
X177292000Y-49530000D02*
X173355000Y-49530000D01*
X153035000Y-81915000D02*
X153035000Y-73660000D01*
X134620000Y-80010000D02*
X139700000Y-80010000D01*
X152400000Y-59055000D02*
X158115000Y-59055000D01*
X133985000Y-81280000D02*
X133985000Y-80645000D01*
X151130000Y-53340000D02*
X151130000Y-57785000D01*
X172085000Y-50800000D02*
X172100000Y-50815000D01*
X158115000Y-59055000D02*
X158115000Y-65405000D01*
X152400000Y-49535000D02*
X152400000Y-52070000D01*
X149860000Y-85090000D02*
X153035000Y-81915000D01*
X173355000Y-49530000D02*
X172085000Y-50800000D01*
X142875000Y-85090000D02*
X149860000Y-85090000D01*
X158115000Y-65405000D02*
X155575000Y-67945000D01*
X172100000Y-50815000D02*
X172100000Y-52578000D01*
X140335000Y-80645000D02*
X140335000Y-82550000D01*
%TO.N,Net-(U4-OUT)*%
X154305000Y-90805000D02*
X160655000Y-90805000D01*
X160655000Y-90805000D02*
X161925000Y-92075000D01*
X153670000Y-84455000D02*
X153670000Y-90170000D01*
X156210000Y-83820000D02*
X154305000Y-83820000D01*
X153670000Y-90170000D02*
X154305000Y-90805000D01*
X154305000Y-83820000D02*
X153670000Y-84455000D01*
%TO.N,Left Sensor +5V*%
X140335000Y-69215000D02*
X140970000Y-69850000D01*
X150495000Y-69215000D02*
X187960000Y-69215000D01*
X128905000Y-69850000D02*
X129540000Y-69215000D01*
X112395000Y-62230000D02*
X113665000Y-60960000D01*
X128905000Y-71120000D02*
X128905000Y-73660000D01*
X112395000Y-70485000D02*
X112395000Y-62230000D01*
X118745000Y-71755000D02*
X113665000Y-71755000D01*
X113665000Y-60960000D02*
X116840000Y-60960000D01*
X188595000Y-69850000D02*
X188595000Y-90170000D01*
X123190000Y-53975000D02*
X118745000Y-53975000D01*
X117475000Y-60325000D02*
X117475000Y-59055000D01*
X140970000Y-69850000D02*
X149860000Y-69850000D01*
X124968000Y-52197000D02*
X123190000Y-53975000D01*
X116840000Y-60960000D02*
X117475000Y-60325000D01*
X128905000Y-69850000D02*
X120650000Y-69850000D01*
X124968000Y-46990000D02*
X124968000Y-49530000D01*
X187325000Y-91440000D02*
X184150000Y-91440000D01*
X118745000Y-53975000D02*
X117475000Y-52705000D01*
X187960000Y-69215000D02*
X188595000Y-69850000D01*
X188595000Y-90170000D02*
X187325000Y-91440000D01*
X124968000Y-49530000D02*
X124968000Y-52197000D01*
X149860000Y-69850000D02*
X150495000Y-69215000D01*
X113665000Y-71755000D02*
X112395000Y-70485000D01*
X128905000Y-71120000D02*
X128905000Y-69850000D01*
X120650000Y-69850000D02*
X118745000Y-71755000D01*
X129540000Y-69215000D02*
X140335000Y-69215000D01*
%TO.N,Right Sensor +5V*%
X187960000Y-71120000D02*
X187960000Y-87630000D01*
X174640000Y-60945000D02*
X174640000Y-59055000D01*
X151130000Y-69850000D02*
X150495000Y-70485000D01*
X158115000Y-70485000D02*
X157480000Y-69850000D01*
X130175000Y-70485000D02*
X130175000Y-72390000D01*
X186690000Y-88900000D02*
X184150000Y-88900000D01*
X173243000Y-53975000D02*
X174640000Y-52578000D01*
X150495000Y-70485000D02*
X140335000Y-70485000D01*
X158115000Y-70485000D02*
X187325000Y-70485000D01*
X168910000Y-53975000D02*
X173243000Y-53975000D01*
X157480000Y-69850000D02*
X151130000Y-69850000D01*
X167132000Y-52197000D02*
X168910000Y-53975000D01*
X187960000Y-87630000D02*
X186690000Y-88900000D01*
X130175000Y-72390000D02*
X131445000Y-73660000D01*
X139700000Y-69850000D02*
X130810000Y-69850000D01*
X187325000Y-70485000D02*
X187960000Y-71120000D01*
X158115000Y-67945000D02*
X160020000Y-66040000D01*
X160020000Y-62865000D02*
X161290000Y-61595000D01*
X167132000Y-46990000D02*
X167132000Y-49530000D01*
X173990000Y-61595000D02*
X174640000Y-60945000D01*
X140335000Y-70485000D02*
X139700000Y-69850000D01*
X161290000Y-61595000D02*
X173990000Y-61595000D01*
X167132000Y-49530000D02*
X167132000Y-52197000D01*
X130810000Y-69850000D02*
X130175000Y-70485000D01*
X160020000Y-66040000D02*
X160020000Y-62865000D01*
%TD*%
M02*
